<svg width="745" height="288" viewBox="0 0 745 288" fill="none" xmlns="http://www.w3.org/2000/svg">
<g filter="url(#filter0_dddd_698_38982)">
<rect x="4" y="1.85425" width="740" height="327.291" rx="16.9143" fill="white"/>
<rect width="538.72" height="197.897" transform="translate(4 50.0598)" fill="white"/>
<rect x="24.7202" y="50.4827" width="497.28" height="197.051" fill="#0288D1" fill-opacity="0.04"/>
<rect x="24.7202" y="50.4827" width="497.28" height="197.051" stroke="#0288D1" stroke-width="0.845714" stroke-dasharray="5.07 5.07"/>
<path d="M276.743 105.637H263.211C261.351 105.637 259.846 107.159 259.846 109.02L259.829 136.083C259.829 137.943 261.334 139.466 263.195 139.466H283.509C285.369 139.466 286.891 137.943 286.891 136.083V115.786L276.743 105.637ZM283.509 136.083H263.211V109.02H275.051V117.477H283.509V136.083ZM266.594 127.643L268.979 130.027L271.669 127.355V134.391H275.051V127.355L277.741 130.044L280.126 127.643L273.377 120.86L266.594 127.643Z" fill="#0288D1"/>
<path d="M167.455 170.38C167.376 170.38 167.309 170.356 167.253 170.309C167.198 170.253 167.17 170.182 167.17 170.096V162.388C167.17 162.301 167.198 162.23 167.253 162.175C167.309 162.119 167.376 162.092 167.455 162.092H173.659C173.746 162.092 173.817 162.119 173.872 162.175C173.927 162.23 173.955 162.301 173.955 162.388V170.096C173.955 170.175 173.927 170.242 173.872 170.297C173.817 170.352 173.746 170.38 173.659 170.38H172.593C172.514 170.38 172.447 170.352 172.392 170.297C172.337 170.242 172.309 170.175 172.309 170.096V163.572H168.816V170.096C168.816 170.175 168.789 170.242 168.733 170.297C168.686 170.352 168.619 170.38 168.532 170.38H167.455ZM178.391 170.498C177.515 170.498 176.82 170.246 176.307 169.74C175.794 169.235 175.518 168.517 175.478 167.586C175.47 167.507 175.466 167.408 175.466 167.29C175.466 167.163 175.47 167.065 175.478 166.994C175.51 166.402 175.644 165.888 175.881 165.454C176.125 165.02 176.461 164.689 176.887 164.46C177.313 164.223 177.814 164.105 178.391 164.105C179.03 164.105 179.567 164.239 180.001 164.507C180.435 164.768 180.763 165.135 180.984 165.608C181.205 166.074 181.315 166.615 181.315 167.23V167.479C181.315 167.558 181.288 167.625 181.232 167.68C181.177 167.735 181.106 167.763 181.019 167.763H177.088C177.088 167.763 177.088 167.775 177.088 167.799C177.088 167.822 177.088 167.842 177.088 167.858C177.096 168.134 177.147 168.391 177.242 168.627C177.345 168.856 177.491 169.042 177.68 169.184C177.878 169.326 178.11 169.397 178.379 169.397C178.6 169.397 178.785 169.365 178.935 169.302C179.085 169.231 179.208 169.152 179.302 169.066C179.397 168.979 179.464 168.908 179.504 168.852C179.575 168.758 179.63 168.702 179.669 168.687C179.717 168.663 179.784 168.651 179.871 168.651H180.889C180.968 168.651 181.031 168.675 181.078 168.722C181.134 168.77 181.157 168.829 181.149 168.9C181.142 169.026 181.074 169.18 180.948 169.362C180.83 169.543 180.656 169.721 180.427 169.894C180.198 170.068 179.91 170.214 179.563 170.332C179.223 170.443 178.833 170.498 178.391 170.498ZM177.088 166.769H179.705V166.733C179.705 166.425 179.654 166.157 179.551 165.928C179.448 165.699 179.298 165.517 179.101 165.383C178.904 165.249 178.667 165.182 178.391 165.182C178.114 165.182 177.878 165.249 177.68 165.383C177.483 165.517 177.333 165.699 177.23 165.928C177.136 166.157 177.088 166.425 177.088 166.733V166.769ZM182.953 172.629C182.874 172.629 182.806 172.602 182.751 172.546C182.696 172.491 182.668 172.424 182.668 172.345V164.507C182.668 164.428 182.696 164.361 182.751 164.306C182.806 164.251 182.874 164.223 182.953 164.223H183.888C183.975 164.223 184.042 164.251 184.089 164.306C184.144 164.361 184.172 164.428 184.172 164.507V164.981C184.361 164.728 184.61 164.519 184.918 164.353C185.226 164.187 185.609 164.105 186.066 164.105C186.485 164.105 186.848 164.172 187.156 164.306C187.464 164.44 187.72 164.633 187.925 164.886C188.131 165.131 188.288 165.423 188.399 165.762C188.509 166.102 188.573 166.477 188.588 166.887C188.596 167.021 188.6 167.159 188.6 167.301C188.6 167.443 188.596 167.586 188.588 167.728C188.58 168.122 188.521 168.489 188.411 168.829C188.3 169.16 188.138 169.452 187.925 169.705C187.72 169.95 187.464 170.143 187.156 170.285C186.848 170.427 186.485 170.498 186.066 170.498C185.64 170.498 185.277 170.423 184.977 170.273C184.677 170.115 184.433 169.91 184.243 169.658V172.345C184.243 172.424 184.215 172.491 184.16 172.546C184.113 172.602 184.046 172.629 183.959 172.629H182.953ZM185.628 169.231C185.968 169.231 186.232 169.16 186.422 169.018C186.611 168.868 186.745 168.675 186.824 168.438C186.911 168.201 186.962 167.941 186.978 167.657C186.994 167.42 186.994 167.183 186.978 166.946C186.962 166.662 186.911 166.402 186.824 166.165C186.745 165.928 186.611 165.738 186.422 165.596C186.232 165.446 185.968 165.371 185.628 165.371C185.305 165.371 185.04 165.446 184.835 165.596C184.638 165.746 184.492 165.94 184.397 166.177C184.31 166.405 184.259 166.642 184.243 166.887C184.235 167.029 184.231 167.179 184.231 167.337C184.231 167.495 184.235 167.649 184.243 167.799C184.251 168.035 184.306 168.264 184.409 168.485C184.511 168.698 184.661 168.876 184.859 169.018C185.056 169.16 185.313 169.231 185.628 169.231ZM192.666 170.498C191.79 170.498 191.095 170.246 190.582 169.74C190.069 169.235 189.793 168.517 189.753 167.586C189.746 167.507 189.742 167.408 189.742 167.29C189.742 167.163 189.746 167.065 189.753 166.994C189.785 166.402 189.919 165.888 190.156 165.454C190.401 165.02 190.736 164.689 191.162 164.46C191.589 164.223 192.09 164.105 192.666 164.105C193.305 164.105 193.842 164.239 194.276 164.507C194.71 164.768 195.038 165.135 195.259 165.608C195.48 166.074 195.591 166.615 195.591 167.23V167.479C195.591 167.558 195.563 167.625 195.508 167.68C195.452 167.735 195.381 167.763 195.295 167.763H191.364C191.364 167.763 191.364 167.775 191.364 167.799C191.364 167.822 191.364 167.842 191.364 167.858C191.372 168.134 191.423 168.391 191.518 168.627C191.62 168.856 191.766 169.042 191.956 169.184C192.153 169.326 192.386 169.397 192.654 169.397C192.875 169.397 193.061 169.365 193.211 169.302C193.361 169.231 193.483 169.152 193.578 169.066C193.672 168.979 193.74 168.908 193.779 168.852C193.85 168.758 193.905 168.702 193.945 168.687C193.992 168.663 194.059 168.651 194.146 168.651H195.164C195.243 168.651 195.306 168.675 195.354 168.722C195.409 168.77 195.433 168.829 195.425 168.9C195.417 169.026 195.35 169.18 195.224 169.362C195.105 169.543 194.931 169.721 194.703 169.894C194.474 170.068 194.186 170.214 193.838 170.332C193.499 170.443 193.108 170.498 192.666 170.498ZM191.364 166.769H193.98V166.733C193.98 166.425 193.929 166.157 193.826 165.928C193.724 165.699 193.574 165.517 193.376 165.383C193.179 165.249 192.942 165.182 192.666 165.182C192.39 165.182 192.153 165.249 191.956 165.383C191.758 165.517 191.608 165.699 191.506 165.928C191.411 166.157 191.364 166.425 191.364 166.733V166.769ZM198.814 170.38C198.728 170.38 198.657 170.352 198.601 170.297C198.554 170.242 198.53 170.175 198.53 170.096V165.478H196.6C196.514 165.478 196.443 165.45 196.387 165.395C196.34 165.34 196.316 165.273 196.316 165.194V164.507C196.316 164.428 196.34 164.361 196.387 164.306C196.443 164.251 196.514 164.223 196.6 164.223H201.976C202.063 164.223 202.134 164.251 202.189 164.306C202.244 164.361 202.272 164.428 202.272 164.507V165.194C202.272 165.273 202.244 165.34 202.189 165.395C202.134 165.45 202.063 165.478 201.976 165.478H200.058V170.096C200.058 170.175 200.03 170.242 199.975 170.297C199.92 170.352 199.852 170.38 199.774 170.38H198.814ZM207.202 170.38C207.115 170.38 207.044 170.352 206.989 170.297C206.942 170.242 206.918 170.175 206.918 170.096V168.284H205.746V168.225C204.949 168.225 204.349 168.043 203.946 167.68C203.551 167.309 203.354 166.824 203.354 166.224C203.354 165.561 203.563 165.064 203.982 164.732C204.4 164.393 205.004 164.223 205.793 164.223H208.209C208.287 164.223 208.355 164.251 208.41 164.306C208.465 164.361 208.493 164.428 208.493 164.507V170.096C208.493 170.175 208.465 170.242 208.41 170.297C208.355 170.352 208.287 170.38 208.209 170.38H207.202ZM203.413 170.38C203.342 170.38 203.283 170.356 203.236 170.309C203.188 170.261 203.165 170.206 203.165 170.143C203.165 170.119 203.169 170.092 203.177 170.06C203.184 170.021 203.204 169.985 203.236 169.954L204.562 167.87L206.006 168.059L204.692 170.202C204.668 170.25 204.629 170.293 204.574 170.332C204.518 170.364 204.459 170.38 204.396 170.38H203.413ZM205.758 167.159H206.942V165.348H205.829C205.466 165.348 205.197 165.415 205.024 165.549C204.85 165.675 204.763 165.9 204.763 166.224C204.763 166.5 204.842 166.725 205 166.899C205.166 167.072 205.418 167.159 205.758 167.159ZM210.462 170.38C210.383 170.38 210.316 170.352 210.261 170.297C210.206 170.242 210.178 170.175 210.178 170.096V164.507C210.178 164.428 210.206 164.361 210.261 164.306C210.316 164.251 210.383 164.223 210.462 164.223H214.216C214.295 164.223 214.362 164.251 214.417 164.306C214.472 164.361 214.5 164.428 214.5 164.507V165.194C214.5 165.273 214.472 165.34 214.417 165.395C214.362 165.45 214.295 165.478 214.216 165.478H211.729V170.096C211.729 170.175 211.702 170.242 211.646 170.297C211.599 170.352 211.532 170.38 211.445 170.38H210.462ZM215.819 170.38C215.741 170.38 215.673 170.352 215.618 170.297C215.563 170.242 215.535 170.175 215.535 170.096V164.507C215.535 164.428 215.563 164.361 215.618 164.306C215.673 164.251 215.741 164.223 215.819 164.223H216.802C216.889 164.223 216.956 164.251 217.003 164.306C217.059 164.361 217.086 164.428 217.086 164.507V166.626H219.762V164.507C219.762 164.428 219.79 164.361 219.845 164.306C219.9 164.251 219.967 164.223 220.046 164.223H221.029C221.108 164.223 221.175 164.251 221.23 164.306C221.286 164.361 221.313 164.428 221.313 164.507V170.096C221.313 170.175 221.286 170.242 221.23 170.297C221.175 170.352 221.108 170.38 221.029 170.38H220.046C219.967 170.38 219.9 170.352 219.845 170.297C219.79 170.242 219.762 170.175 219.762 170.096V167.87H217.086V170.096C217.086 170.175 217.059 170.242 217.003 170.297C216.956 170.352 216.889 170.38 216.802 170.38H215.819ZM223.281 170.38C223.202 170.38 223.135 170.352 223.08 170.297C223.024 170.242 222.997 170.175 222.997 170.096V164.507C222.997 164.428 223.024 164.361 223.08 164.306C223.135 164.251 223.202 164.223 223.281 164.223H224.264C224.35 164.223 224.418 164.251 224.465 164.306C224.52 164.361 224.548 164.428 224.548 164.507V170.096C224.548 170.175 224.52 170.242 224.465 170.297C224.418 170.352 224.35 170.38 224.264 170.38H223.281ZM223.234 163.205C223.147 163.205 223.076 163.181 223.02 163.134C222.973 163.078 222.949 163.007 222.949 162.921V162.068C222.949 161.989 222.973 161.922 223.02 161.867C223.076 161.812 223.147 161.784 223.234 161.784H224.311C224.398 161.784 224.469 161.812 224.524 161.867C224.579 161.922 224.607 161.989 224.607 162.068V162.921C224.607 163.007 224.579 163.078 224.524 163.134C224.469 163.181 224.398 163.205 224.311 163.205H223.234ZM228.086 170.38C227.999 170.38 227.928 170.352 227.873 170.297C227.825 170.242 227.802 170.175 227.802 170.096V165.478H225.872C225.785 165.478 225.714 165.45 225.659 165.395C225.611 165.34 225.588 165.273 225.588 165.194V164.507C225.588 164.428 225.611 164.361 225.659 164.306C225.714 164.251 225.785 164.223 225.872 164.223H231.247C231.334 164.223 231.405 164.251 231.46 164.306C231.515 164.361 231.543 164.428 231.543 164.507V165.194C231.543 165.273 231.515 165.34 231.46 165.395C231.405 165.45 231.334 165.478 231.247 165.478H229.329V170.096C229.329 170.175 229.301 170.242 229.246 170.297C229.191 170.352 229.124 170.38 229.045 170.38H228.086ZM232.85 170.38C232.771 170.38 232.704 170.352 232.649 170.297C232.594 170.242 232.566 170.175 232.566 170.096V164.507C232.566 164.428 232.594 164.361 232.649 164.306C232.704 164.251 232.771 164.223 232.85 164.223H233.845C233.924 164.223 233.991 164.251 234.046 164.306C234.101 164.361 234.129 164.428 234.129 164.507V166.177H235.349C236.154 166.177 236.758 166.366 237.16 166.745C237.563 167.124 237.764 167.645 237.764 168.308C237.764 168.994 237.547 169.511 237.113 169.859C236.679 170.206 236.059 170.38 235.254 170.38H232.85ZM234.105 169.255H235.218C235.605 169.255 235.889 169.184 236.071 169.042C236.26 168.9 236.355 168.655 236.355 168.308C236.355 167.968 236.264 167.716 236.083 167.55C235.909 167.384 235.621 167.301 235.218 167.301H234.105V169.255ZM244.964 172.629C244.877 172.629 244.806 172.602 244.75 172.546C244.703 172.491 244.679 172.424 244.679 172.345V170.38C243.969 170.38 243.381 170.273 242.915 170.06C242.457 169.839 242.11 169.531 241.873 169.137C241.644 168.742 241.514 168.28 241.483 167.751C241.467 167.451 241.467 167.151 241.483 166.851C241.514 166.323 241.648 165.861 241.885 165.466C242.13 165.071 242.485 164.768 242.951 164.554C243.416 164.333 243.993 164.223 244.679 164.223V162.258C244.679 162.179 244.703 162.111 244.75 162.056C244.806 162.001 244.877 161.973 244.964 161.973H245.934C246.021 161.973 246.088 162.001 246.136 162.056C246.191 162.111 246.219 162.179 246.219 162.258V164.223C246.913 164.223 247.489 164.333 247.947 164.554C248.413 164.768 248.764 165.071 249.001 165.466C249.246 165.861 249.38 166.323 249.404 166.851C249.427 167.151 249.427 167.451 249.404 167.751C249.38 168.28 249.25 168.742 249.013 169.137C248.784 169.531 248.437 169.839 247.971 170.06C247.513 170.273 246.929 170.38 246.219 170.38V172.345C246.219 172.424 246.191 172.491 246.136 172.546C246.088 172.602 246.021 172.629 245.934 172.629H244.964ZM244.679 169.208V165.395C244.135 165.395 243.728 165.525 243.46 165.786C243.199 166.046 243.057 166.437 243.034 166.958C243.026 167.069 243.022 167.187 243.022 167.313C243.022 167.432 243.026 167.542 243.034 167.645C243.065 168.174 243.211 168.568 243.472 168.829C243.732 169.081 244.135 169.208 244.679 169.208ZM246.219 169.208C246.771 169.208 247.178 169.077 247.438 168.817C247.699 168.556 247.841 168.166 247.864 167.645C247.872 167.542 247.876 167.432 247.876 167.313C247.876 167.187 247.872 167.069 247.864 166.958C247.849 166.429 247.703 166.038 247.426 165.786C247.158 165.525 246.755 165.395 246.219 165.395V169.208ZM252.611 170.498C252.2 170.498 251.829 170.419 251.498 170.261C251.166 170.096 250.902 169.879 250.704 169.61C250.515 169.334 250.42 169.026 250.42 168.687C250.42 168.134 250.641 167.696 251.083 167.372C251.533 167.041 252.125 166.82 252.859 166.709L254.481 166.473V166.224C254.481 165.892 254.398 165.636 254.233 165.454C254.067 165.273 253.783 165.182 253.38 165.182C253.096 165.182 252.863 165.241 252.682 165.36C252.508 165.47 252.378 165.62 252.291 165.81C252.228 165.912 252.137 165.963 252.019 165.963H251.083C250.996 165.963 250.929 165.94 250.882 165.892C250.842 165.845 250.823 165.782 250.823 165.703C250.831 165.577 250.882 165.423 250.977 165.241C251.071 165.06 251.221 164.886 251.427 164.72C251.632 164.547 251.896 164.401 252.22 164.282C252.543 164.164 252.934 164.105 253.392 164.105C253.889 164.105 254.308 164.168 254.647 164.294C254.994 164.412 255.271 164.574 255.476 164.779C255.681 164.985 255.831 165.225 255.926 165.502C256.021 165.778 256.068 166.07 256.068 166.378V170.096C256.068 170.175 256.04 170.242 255.985 170.297C255.93 170.352 255.863 170.38 255.784 170.38H254.825C254.738 170.38 254.667 170.352 254.612 170.297C254.564 170.242 254.541 170.175 254.541 170.096V169.634C254.438 169.784 254.3 169.926 254.126 170.06C253.952 170.186 253.739 170.293 253.487 170.38C253.242 170.459 252.95 170.498 252.611 170.498ZM253.013 169.373C253.289 169.373 253.538 169.314 253.759 169.196C253.988 169.077 254.166 168.896 254.292 168.651C254.426 168.399 254.493 168.083 254.493 167.704V167.455L253.309 167.645C252.843 167.716 252.496 167.83 252.267 167.988C252.038 168.146 251.924 168.339 251.924 168.568C251.924 168.742 251.975 168.892 252.078 169.018C252.188 169.137 252.326 169.227 252.492 169.29C252.658 169.346 252.832 169.373 253.013 169.373ZM257.944 170.38C257.873 170.38 257.81 170.352 257.754 170.297C257.699 170.242 257.671 170.178 257.671 170.107V164.507C257.671 164.428 257.699 164.361 257.754 164.306C257.81 164.251 257.877 164.223 257.956 164.223H258.938C259.025 164.223 259.092 164.251 259.14 164.306C259.195 164.361 259.222 164.428 259.222 164.507V169.184L258.808 168.888L262.064 164.412C262.103 164.357 262.147 164.314 262.194 164.282C262.242 164.243 262.305 164.223 262.384 164.223H263.284C263.355 164.223 263.418 164.251 263.473 164.306C263.528 164.353 263.556 164.412 263.556 164.483V170.096C263.556 170.175 263.528 170.242 263.473 170.297C263.418 170.352 263.351 170.38 263.272 170.38H262.289C262.202 170.38 262.131 170.352 262.076 170.297C262.028 170.242 262.005 170.175 262.005 170.096V165.632L262.443 165.691L259.163 170.19C259.132 170.238 259.088 170.281 259.033 170.321C258.986 170.36 258.922 170.38 258.844 170.38H257.944ZM260.679 163.418C260.205 163.418 259.826 163.343 259.542 163.193C259.258 163.043 259.053 162.85 258.926 162.613C258.808 162.368 258.749 162.108 258.749 161.831C258.749 161.768 258.769 161.717 258.808 161.677C258.847 161.63 258.903 161.606 258.974 161.606H259.649C259.72 161.606 259.775 161.63 259.814 161.677C259.854 161.717 259.874 161.768 259.874 161.831C259.874 162.005 259.929 162.163 260.039 162.305C260.15 162.439 260.363 162.506 260.679 162.506C261.01 162.506 261.227 162.439 261.33 162.305C261.433 162.163 261.484 162.005 261.484 161.831C261.484 161.768 261.504 161.717 261.543 161.677C261.583 161.63 261.638 161.606 261.709 161.606H262.396C262.467 161.606 262.522 161.63 262.561 161.677C262.601 161.717 262.62 161.768 262.62 161.831C262.62 162.108 262.557 162.368 262.431 162.613C262.305 162.85 262.1 163.043 261.815 163.193C261.539 163.343 261.16 163.418 260.679 163.418ZM264.943 170.38C264.857 170.38 264.786 170.352 264.73 170.297C264.675 170.242 264.647 170.171 264.647 170.084V169.35C264.647 169.176 264.738 169.081 264.92 169.066C265.157 169.05 265.346 168.939 265.488 168.734C265.63 168.529 265.733 168.213 265.796 167.787C265.859 167.353 265.891 166.792 265.891 166.106V164.507C265.891 164.428 265.918 164.361 265.973 164.306C266.029 164.251 266.1 164.223 266.187 164.223H270.39C270.469 164.223 270.536 164.251 270.591 164.306C270.646 164.361 270.674 164.428 270.674 164.507V170.096C270.674 170.175 270.646 170.242 270.591 170.297C270.536 170.352 270.469 170.38 270.39 170.38H269.407C269.32 170.38 269.249 170.352 269.194 170.297C269.147 170.242 269.123 170.175 269.123 170.096V165.478H267.382V166.271C267.382 167.029 267.339 167.672 267.252 168.201C267.173 168.722 267.035 169.144 266.838 169.468C266.648 169.784 266.396 170.017 266.08 170.167C265.772 170.309 265.393 170.38 264.943 170.38ZM277.806 170.498C277.237 170.498 276.736 170.392 276.302 170.178C275.876 169.965 275.54 169.658 275.296 169.255C275.059 168.845 274.929 168.351 274.905 167.775C274.897 167.657 274.893 167.503 274.893 167.313C274.893 167.116 274.897 166.954 274.905 166.828C274.929 166.252 275.059 165.762 275.296 165.36C275.54 164.949 275.876 164.637 276.302 164.424C276.736 164.211 277.237 164.105 277.806 164.105C278.311 164.105 278.741 164.176 279.096 164.318C279.451 164.46 279.743 164.637 279.972 164.85C280.201 165.064 280.371 165.289 280.482 165.525C280.6 165.754 280.663 165.963 280.671 166.153C280.679 166.24 280.651 166.311 280.588 166.366C280.533 166.413 280.466 166.437 280.387 166.437H279.345C279.266 166.437 279.203 166.417 279.155 166.378C279.116 166.338 279.076 166.279 279.037 166.2C278.919 165.885 278.761 165.663 278.563 165.537C278.374 165.403 278.129 165.336 277.829 165.336C277.435 165.336 277.119 165.462 276.882 165.715C276.653 165.959 276.531 166.35 276.515 166.887C276.499 167.187 276.499 167.463 276.515 167.716C276.531 168.26 276.653 168.655 276.882 168.9C277.119 169.144 277.435 169.267 277.829 169.267C278.137 169.267 278.386 169.204 278.575 169.077C278.765 168.943 278.919 168.718 279.037 168.402C279.076 168.324 279.116 168.264 279.155 168.225C279.203 168.185 279.266 168.166 279.345 168.166H280.387C280.466 168.166 280.533 168.193 280.588 168.249C280.651 168.296 280.679 168.363 280.671 168.45C280.663 168.592 280.624 168.754 280.553 168.935C280.489 169.109 280.383 169.29 280.233 169.48C280.091 169.661 279.909 169.831 279.688 169.989C279.467 170.139 279.199 170.261 278.883 170.356C278.575 170.451 278.216 170.498 277.806 170.498ZM285.4 167.87H283.541V170.096C283.541 170.175 283.514 170.242 283.458 170.297C283.411 170.352 283.344 170.38 283.257 170.38H282.274C282.196 170.38 282.128 170.352 282.073 170.297C282.018 170.242 281.99 170.175 281.99 170.096V164.507C281.99 164.428 282.018 164.361 282.073 164.306C282.128 164.251 282.196 164.223 282.274 164.223H283.257C283.344 164.223 283.411 164.251 283.458 164.306C283.514 164.361 283.541 164.428 283.541 164.507V166.626H285.4V167.87ZM287.579 170.498C286.947 170.498 286.415 170.388 285.98 170.167C285.554 169.946 285.227 169.634 284.998 169.231C284.769 168.829 284.642 168.359 284.619 167.822C284.611 167.68 284.607 167.507 284.607 167.301C284.607 167.096 284.611 166.922 284.619 166.78C284.642 166.236 284.773 165.766 285.01 165.371C285.246 164.969 285.578 164.657 286.004 164.436C286.438 164.215 286.963 164.105 287.579 164.105C288.194 164.105 288.715 164.215 289.142 164.436C289.576 164.657 289.907 164.969 290.136 165.371C290.373 165.766 290.503 166.236 290.527 166.78C290.543 166.922 290.551 167.096 290.551 167.301C290.551 167.507 290.543 167.68 290.527 167.822C290.503 168.359 290.377 168.829 290.148 169.231C289.927 169.634 289.599 169.946 289.165 170.167C288.739 170.388 288.21 170.498 287.579 170.498ZM287.579 169.326C287.997 169.326 288.321 169.196 288.55 168.935C288.779 168.667 288.905 168.276 288.929 167.763C288.936 167.645 288.94 167.491 288.94 167.301C288.94 167.112 288.936 166.958 288.929 166.84C288.905 166.334 288.779 165.948 288.55 165.679C288.321 165.411 287.997 165.277 287.579 165.277C287.16 165.277 286.833 165.411 286.596 165.679C286.367 165.948 286.245 166.334 286.229 166.84C286.221 166.958 286.217 167.112 286.217 167.301C286.217 167.491 286.221 167.645 286.229 167.763C286.245 168.276 286.367 168.667 286.596 168.935C286.833 169.196 287.16 169.326 287.579 169.326ZM291.712 171.682C291.634 171.682 291.566 171.655 291.511 171.599C291.456 171.544 291.428 171.477 291.428 171.398V169.409C291.428 169.33 291.456 169.263 291.511 169.208C291.566 169.152 291.634 169.125 291.712 169.125H291.807C292.012 169.125 292.178 169.018 292.304 168.805C292.439 168.584 292.537 168.253 292.6 167.81C292.664 167.361 292.695 166.792 292.695 166.106V164.507C292.695 164.428 292.723 164.361 292.778 164.306C292.833 164.251 292.9 164.223 292.979 164.223H297.194C297.281 164.223 297.348 164.251 297.396 164.306C297.451 164.361 297.479 164.428 297.479 164.507V169.113H298.011C298.098 169.113 298.165 169.141 298.213 169.196C298.268 169.251 298.295 169.318 298.295 169.397V171.398C298.295 171.477 298.268 171.544 298.213 171.599C298.165 171.655 298.098 171.682 298.011 171.682H297.029C296.95 171.682 296.883 171.655 296.827 171.599C296.772 171.544 296.744 171.477 296.744 171.398V170.38H292.979V171.398C292.979 171.477 292.952 171.544 292.896 171.599C292.841 171.655 292.774 171.682 292.695 171.682H291.712ZM293.631 169.125L295.927 169.113V165.478H294.187V166.271C294.187 166.982 294.14 167.57 294.045 168.035C293.95 168.501 293.812 168.864 293.631 169.125ZM299.741 170.38C299.67 170.38 299.607 170.352 299.551 170.297C299.496 170.242 299.469 170.178 299.469 170.107V164.507C299.469 164.428 299.496 164.361 299.551 164.306C299.607 164.251 299.674 164.223 299.753 164.223H300.735C300.822 164.223 300.889 164.251 300.937 164.306C300.992 164.361 301.02 164.428 301.02 164.507V169.184L300.605 168.888L303.861 164.412C303.901 164.357 303.944 164.314 303.991 164.282C304.039 164.243 304.102 164.223 304.181 164.223H305.081C305.152 164.223 305.215 164.251 305.27 164.306C305.325 164.353 305.353 164.412 305.353 164.483V170.096C305.353 170.175 305.325 170.242 305.27 170.297C305.215 170.352 305.148 170.38 305.069 170.38H304.086C303.999 170.38 303.928 170.352 303.873 170.297C303.826 170.242 303.802 170.175 303.802 170.096V165.632L304.24 165.691L300.96 170.19C300.929 170.238 300.885 170.281 300.83 170.321C300.783 170.36 300.72 170.38 300.641 170.38H299.741ZM306.859 171.268C306.788 171.268 306.733 171.244 306.693 171.197C306.654 171.149 306.638 171.09 306.646 171.019L306.965 169.006C306.981 168.904 307.017 168.817 307.072 168.746C307.135 168.667 307.226 168.627 307.344 168.627H308.434C308.497 168.627 308.548 168.651 308.588 168.698C308.627 168.738 308.647 168.789 308.647 168.852C308.647 168.908 308.635 168.959 308.611 169.006L307.853 170.972C307.822 171.051 307.775 171.118 307.711 171.173C307.656 171.236 307.573 171.268 307.463 171.268H306.859ZM314.714 170.498C314.304 170.498 313.933 170.419 313.601 170.261C313.27 170.096 313.006 169.879 312.808 169.61C312.619 169.334 312.524 169.026 312.524 168.687C312.524 168.134 312.745 167.696 313.187 167.372C313.637 167.041 314.229 166.82 314.963 166.709L316.585 166.473V166.224C316.585 165.892 316.502 165.636 316.337 165.454C316.171 165.273 315.887 165.182 315.484 165.182C315.2 165.182 314.967 165.241 314.785 165.36C314.612 165.47 314.482 165.62 314.395 165.81C314.332 165.912 314.241 165.963 314.122 165.963H313.187C313.1 165.963 313.033 165.94 312.986 165.892C312.946 165.845 312.927 165.782 312.927 165.703C312.934 165.577 312.986 165.423 313.081 165.241C313.175 165.06 313.325 164.886 313.53 164.72C313.736 164.547 314 164.401 314.324 164.282C314.647 164.164 315.038 164.105 315.496 164.105C315.993 164.105 316.411 164.168 316.751 164.294C317.098 164.412 317.374 164.574 317.58 164.779C317.785 164.985 317.935 165.225 318.03 165.502C318.124 165.778 318.172 166.07 318.172 166.378V170.096C318.172 170.175 318.144 170.242 318.089 170.297C318.034 170.352 317.966 170.38 317.888 170.38H316.929C316.842 170.38 316.771 170.352 316.715 170.297C316.668 170.242 316.644 170.175 316.644 170.096V169.634C316.542 169.784 316.404 169.926 316.23 170.06C316.056 170.186 315.843 170.293 315.591 170.38C315.346 170.459 315.054 170.498 314.714 170.498ZM315.117 169.373C315.393 169.373 315.642 169.314 315.863 169.196C316.092 169.077 316.269 168.896 316.396 168.651C316.53 168.399 316.597 168.083 316.597 167.704V167.455L315.413 167.645C314.947 167.716 314.6 167.83 314.371 167.988C314.142 168.146 314.028 168.339 314.028 168.568C314.028 168.742 314.079 168.892 314.182 169.018C314.292 169.137 314.43 169.227 314.596 169.29C314.762 169.346 314.935 169.373 315.117 169.373ZM322.558 170.498C321.902 170.498 321.358 170.384 320.924 170.155C320.497 169.918 320.178 169.575 319.965 169.125C319.752 168.675 319.629 168.126 319.598 167.479C319.598 167.25 319.598 167.013 319.598 166.769C319.598 166.524 319.598 166.287 319.598 166.058C319.613 165.364 319.68 164.787 319.799 164.33C319.925 163.864 320.111 163.481 320.355 163.181C320.6 162.873 320.916 162.621 321.303 162.423C321.689 162.218 322.147 162.04 322.676 161.89C323.205 161.741 323.817 161.583 324.511 161.417C324.59 161.401 324.661 161.413 324.724 161.452C324.795 161.492 324.835 161.555 324.843 161.642L324.997 162.423C325.012 162.502 325.001 162.573 324.961 162.636C324.922 162.692 324.866 162.727 324.795 162.743C324.195 162.877 323.678 162.999 323.244 163.11C322.81 163.213 322.451 163.331 322.167 163.465C321.883 163.599 321.658 163.777 321.492 163.998C321.334 164.211 321.224 164.491 321.16 164.839C321.097 165.186 321.078 165.632 321.101 166.177L320.829 165.952C320.876 165.707 320.999 165.482 321.196 165.277C321.393 165.071 321.634 164.91 321.918 164.791C322.21 164.665 322.518 164.602 322.842 164.602C323.41 164.602 323.888 164.708 324.274 164.922C324.661 165.135 324.957 165.435 325.162 165.821C325.376 166.2 325.494 166.646 325.518 167.159C325.533 167.443 325.533 167.704 325.518 167.941C325.494 168.446 325.368 168.892 325.139 169.279C324.91 169.665 324.582 169.965 324.156 170.178C323.73 170.392 323.197 170.498 322.558 170.498ZM322.558 169.409C322.984 169.409 323.311 169.279 323.54 169.018C323.769 168.758 323.892 168.379 323.907 167.882C323.915 167.795 323.919 167.692 323.919 167.574C323.919 167.447 323.915 167.329 323.907 167.218C323.892 166.721 323.769 166.342 323.54 166.082C323.319 165.821 323.023 165.691 322.652 165.691C322.226 165.691 321.883 165.821 321.622 166.082C321.37 166.342 321.235 166.721 321.22 167.218C321.212 167.329 321.208 167.447 321.208 167.574C321.208 167.692 321.212 167.795 321.22 167.882C321.235 168.379 321.358 168.758 321.587 169.018C321.816 169.279 322.139 169.409 322.558 169.409ZM329.648 170.498C329.016 170.498 328.483 170.388 328.049 170.167C327.623 169.946 327.295 169.634 327.067 169.231C326.846 168.829 326.719 168.359 326.688 167.822C326.68 167.68 326.676 167.507 326.676 167.301C326.676 167.096 326.68 166.922 326.688 166.78C326.719 166.236 326.849 165.766 327.078 165.371C327.315 164.969 327.647 164.657 328.073 164.436C328.507 164.215 329.032 164.105 329.648 164.105C330.263 164.105 330.784 164.215 331.211 164.436C331.645 164.657 331.976 164.969 332.205 165.371C332.442 165.766 332.576 166.236 332.608 166.78C332.616 166.922 332.62 167.096 332.62 167.301C332.62 167.507 332.616 167.68 332.608 167.822C332.576 168.359 332.446 168.829 332.217 169.231C331.996 169.634 331.668 169.946 331.234 170.167C330.808 170.388 330.279 170.498 329.648 170.498ZM329.648 169.326C330.066 169.326 330.39 169.196 330.619 168.935C330.847 168.667 330.974 168.276 330.997 167.763C331.005 167.645 331.009 167.491 331.009 167.301C331.009 167.112 331.005 166.958 330.997 166.84C330.974 166.334 330.847 165.948 330.619 165.679C330.39 165.411 330.066 165.277 329.648 165.277C329.229 165.277 328.906 165.411 328.677 165.679C328.448 165.948 328.322 166.334 328.298 166.84C328.29 166.958 328.286 167.112 328.286 167.301C328.286 167.491 328.29 167.645 328.298 167.763C328.322 168.276 328.448 168.667 328.677 168.935C328.906 169.196 329.229 169.326 329.648 169.326Z" fill="#292424"/>
<path d="M339.529 170.498C338.898 170.498 338.365 170.388 337.931 170.167C337.505 169.946 337.177 169.634 336.948 169.231C336.727 168.829 336.601 168.359 336.569 167.822C336.561 167.68 336.557 167.507 336.557 167.301C336.557 167.096 336.561 166.922 336.569 166.78C336.601 166.236 336.731 165.766 336.96 165.371C337.197 164.969 337.528 164.657 337.955 164.436C338.389 164.215 338.914 164.105 339.529 164.105C340.145 164.105 340.666 164.215 341.092 164.436C341.526 164.657 341.858 164.969 342.087 165.371C342.324 165.766 342.458 166.236 342.489 166.78C342.497 166.922 342.501 167.096 342.501 167.301C342.501 167.507 342.497 167.68 342.489 167.822C342.458 168.359 342.328 168.829 342.099 169.231C341.878 169.634 341.55 169.946 341.116 170.167C340.69 170.388 340.161 170.498 339.529 170.498ZM339.529 169.326C339.948 169.326 340.271 169.196 340.5 168.935C340.729 168.667 340.855 168.276 340.879 167.763C340.887 167.645 340.891 167.491 340.891 167.301C340.891 167.112 340.887 166.958 340.879 166.84C340.855 166.334 340.729 165.948 340.5 165.679C340.271 165.411 339.948 165.277 339.529 165.277C339.111 165.277 338.787 165.411 338.558 165.679C338.33 165.948 338.203 166.334 338.18 166.84C338.172 166.958 338.168 167.112 338.168 167.301C338.168 167.491 338.172 167.645 338.18 167.763C338.203 168.276 338.33 168.667 338.558 168.935C338.787 169.196 339.111 169.326 339.529 169.326ZM346.68 170.498C346.025 170.498 345.48 170.384 345.046 170.155C344.62 169.918 344.3 169.575 344.087 169.125C343.874 168.675 343.752 168.126 343.72 167.479C343.72 167.25 343.72 167.013 343.72 166.769C343.72 166.524 343.72 166.287 343.72 166.058C343.736 165.364 343.803 164.787 343.921 164.33C344.048 163.864 344.233 163.481 344.478 163.181C344.722 162.873 345.038 162.621 345.425 162.423C345.812 162.218 346.27 162.04 346.798 161.89C347.327 161.741 347.939 161.583 348.634 161.417C348.712 161.401 348.784 161.413 348.847 161.452C348.918 161.492 348.957 161.555 348.965 161.642L349.119 162.423C349.135 162.502 349.123 162.573 349.083 162.636C349.044 162.692 348.989 162.727 348.918 162.743C348.318 162.877 347.801 162.999 347.367 163.11C346.933 163.213 346.573 163.331 346.289 163.465C346.005 163.599 345.78 163.777 345.614 163.998C345.456 164.211 345.346 164.491 345.283 164.839C345.22 165.186 345.2 165.632 345.224 166.177L344.951 165.952C344.999 165.707 345.121 165.482 345.318 165.277C345.516 165.071 345.756 164.91 346.041 164.791C346.333 164.665 346.64 164.602 346.964 164.602C347.532 164.602 348.01 164.708 348.397 164.922C348.784 165.135 349.08 165.435 349.285 165.821C349.498 166.2 349.616 166.646 349.64 167.159C349.656 167.443 349.656 167.704 349.64 167.941C349.616 168.446 349.49 168.892 349.261 169.279C349.032 169.665 348.705 169.965 348.278 170.178C347.852 170.392 347.319 170.498 346.68 170.498ZM346.68 169.409C347.106 169.409 347.434 169.279 347.663 169.018C347.892 168.758 348.014 168.379 348.03 167.882C348.038 167.795 348.042 167.692 348.042 167.574C348.042 167.447 348.038 167.329 348.03 167.218C348.014 166.721 347.892 166.342 347.663 166.082C347.442 165.821 347.146 165.691 346.775 165.691C346.348 165.691 346.005 165.821 345.745 166.082C345.492 166.342 345.358 166.721 345.342 167.218C345.334 167.329 345.33 167.447 345.33 167.574C345.33 167.692 345.334 167.795 345.342 167.882C345.358 168.379 345.48 168.758 345.709 169.018C345.938 169.279 346.262 169.409 346.68 169.409ZM353.699 170.498C352.823 170.498 352.128 170.246 351.615 169.74C351.102 169.235 350.826 168.517 350.786 167.586C350.778 167.507 350.775 167.408 350.775 167.29C350.775 167.163 350.778 167.065 350.786 166.994C350.818 166.402 350.952 165.888 351.189 165.454C351.434 165.02 351.769 164.689 352.195 164.46C352.622 164.223 353.123 164.105 353.699 164.105C354.338 164.105 354.875 164.239 355.309 164.507C355.743 164.768 356.071 165.135 356.292 165.608C356.513 166.074 356.623 166.615 356.623 167.23V167.479C356.623 167.558 356.596 167.625 356.541 167.68C356.485 167.735 356.414 167.763 356.327 167.763H352.397C352.397 167.763 352.397 167.775 352.397 167.799C352.397 167.822 352.397 167.842 352.397 167.858C352.404 168.134 352.456 168.391 352.551 168.627C352.653 168.856 352.799 169.042 352.989 169.184C353.186 169.326 353.419 169.397 353.687 169.397C353.908 169.397 354.094 169.365 354.244 169.302C354.394 169.231 354.516 169.152 354.611 169.066C354.705 168.979 354.772 168.908 354.812 168.852C354.883 168.758 354.938 168.702 354.978 168.687C355.025 168.663 355.092 168.651 355.179 168.651H356.197C356.276 168.651 356.339 168.675 356.387 168.722C356.442 168.77 356.466 168.829 356.458 168.9C356.45 169.026 356.383 169.18 356.256 169.362C356.138 169.543 355.964 169.721 355.735 169.894C355.507 170.068 355.218 170.214 354.871 170.332C354.532 170.443 354.141 170.498 353.699 170.498ZM352.397 166.769H355.013V166.733C355.013 166.425 354.962 166.157 354.859 165.928C354.757 165.699 354.607 165.517 354.409 165.383C354.212 165.249 353.975 165.182 353.699 165.182C353.423 165.182 353.186 165.249 352.989 165.383C352.791 165.517 352.641 165.699 352.539 165.928C352.444 166.157 352.397 166.425 352.397 166.733V166.769ZM358.261 172.629C358.182 172.629 358.115 172.602 358.06 172.546C358.004 172.491 357.977 172.424 357.977 172.345V164.507C357.977 164.428 358.004 164.361 358.06 164.306C358.115 164.251 358.182 164.223 358.261 164.223H359.196C359.283 164.223 359.35 164.251 359.397 164.306C359.453 164.361 359.48 164.428 359.48 164.507V164.981C359.67 164.728 359.918 164.519 360.226 164.353C360.534 164.187 360.917 164.105 361.375 164.105C361.793 164.105 362.156 164.172 362.464 164.306C362.772 164.44 363.028 164.633 363.234 164.886C363.439 165.131 363.597 165.423 363.707 165.762C363.818 166.102 363.881 166.477 363.897 166.887C363.905 167.021 363.909 167.159 363.909 167.301C363.909 167.443 363.905 167.586 363.897 167.728C363.889 168.122 363.83 168.489 363.719 168.829C363.609 169.16 363.447 169.452 363.234 169.705C363.028 169.95 362.772 170.143 362.464 170.285C362.156 170.427 361.793 170.498 361.375 170.498C360.949 170.498 360.585 170.423 360.285 170.273C359.986 170.115 359.741 169.91 359.551 169.658V172.345C359.551 172.424 359.524 172.491 359.469 172.546C359.421 172.602 359.354 172.629 359.267 172.629H358.261ZM360.937 169.231C361.276 169.231 361.541 169.16 361.73 169.018C361.919 168.868 362.054 168.675 362.133 168.438C362.219 168.201 362.271 167.941 362.286 167.657C362.302 167.42 362.302 167.183 362.286 166.946C362.271 166.662 362.219 166.402 362.133 166.165C362.054 165.928 361.919 165.738 361.73 165.596C361.541 165.446 361.276 165.371 360.937 165.371C360.613 165.371 360.349 165.446 360.143 165.596C359.946 165.746 359.8 165.94 359.705 166.177C359.619 166.405 359.567 166.642 359.551 166.887C359.544 167.029 359.54 167.179 359.54 167.337C359.54 167.495 359.544 167.649 359.551 167.799C359.559 168.035 359.615 168.264 359.717 168.485C359.82 168.698 359.97 168.876 360.167 169.018C360.364 169.16 360.621 169.231 360.937 169.231ZM365.606 170.38C365.527 170.38 365.46 170.352 365.405 170.297C365.35 170.242 365.322 170.175 365.322 170.096V164.507C365.322 164.428 365.35 164.361 365.405 164.306C365.46 164.251 365.527 164.223 365.606 164.223H366.589C366.676 164.223 366.743 164.251 366.79 164.306C366.846 164.361 366.873 164.428 366.873 164.507V170.096C366.873 170.175 366.846 170.242 366.79 170.297C366.743 170.352 366.676 170.38 366.589 170.38H365.606ZM365.559 163.205C365.472 163.205 365.401 163.181 365.346 163.134C365.299 163.078 365.275 163.007 365.275 162.921V162.068C365.275 161.989 365.299 161.922 365.346 161.867C365.401 161.812 365.472 161.784 365.559 161.784H366.636C366.723 161.784 366.794 161.812 366.85 161.867C366.905 161.922 366.932 161.989 366.932 162.068V162.921C366.932 163.007 366.905 163.078 366.85 163.134C366.794 163.181 366.723 163.205 366.636 163.205H365.559ZM370.411 170.38C370.324 170.38 370.253 170.352 370.198 170.297C370.151 170.242 370.127 170.175 370.127 170.096V165.478H368.197C368.11 165.478 368.039 165.45 367.984 165.395C367.937 165.34 367.913 165.273 367.913 165.194V164.507C367.913 164.428 367.937 164.361 367.984 164.306C368.039 164.251 368.11 164.223 368.197 164.223H373.573C373.659 164.223 373.73 164.251 373.786 164.306C373.841 164.361 373.869 164.428 373.869 164.507V165.194C373.869 165.273 373.841 165.34 373.786 165.395C373.73 165.45 373.659 165.478 373.573 165.478H371.654V170.096C371.654 170.175 371.627 170.242 371.572 170.297C371.516 170.352 371.449 170.38 371.37 170.38H370.411ZM375.176 170.38C375.097 170.38 375.03 170.352 374.975 170.297C374.919 170.242 374.892 170.175 374.892 170.096V164.507C374.892 164.428 374.919 164.361 374.975 164.306C375.03 164.251 375.097 164.223 375.176 164.223H376.17C376.249 164.223 376.316 164.251 376.372 164.306C376.427 164.361 376.455 164.428 376.455 164.507V166.177H377.674C378.479 166.177 379.083 166.366 379.486 166.745C379.888 167.124 380.089 167.645 380.089 168.308C380.089 168.994 379.872 169.511 379.438 169.859C379.004 170.206 378.384 170.38 377.579 170.38H375.176ZM376.431 169.255H377.544C377.931 169.255 378.215 169.184 378.396 169.042C378.586 168.9 378.68 168.655 378.68 168.308C378.68 167.968 378.59 167.716 378.408 167.55C378.234 167.384 377.946 167.301 377.544 167.301H376.431V169.255Z" fill="#0288D1"/>
<path d="M336.025 171.386H380.473V171.978H336.025V171.386Z" fill="#0288D1"/>
<path d="M227.579 191.763C227.493 191.763 227.426 191.739 227.378 191.692C227.331 191.636 227.307 191.569 227.307 191.49V183.759C227.307 183.672 227.331 183.605 227.378 183.557C227.426 183.502 227.493 183.475 227.579 183.475H228.183C228.27 183.475 228.337 183.502 228.385 183.557C228.44 183.605 228.467 183.672 228.467 183.759V187.027H232.54V183.759C232.54 183.672 232.564 183.605 232.612 183.557C232.667 183.502 232.734 183.475 232.813 183.475H233.417C233.503 183.475 233.571 183.502 233.618 183.557C233.673 183.605 233.701 183.672 233.701 183.759V191.49C233.701 191.569 233.673 191.636 233.618 191.692C233.571 191.739 233.503 191.763 233.417 191.763H232.813C232.734 191.763 232.667 191.739 232.612 191.692C232.564 191.636 232.54 191.569 232.54 191.49V188.092H228.467V191.49C228.467 191.569 228.44 191.636 228.385 191.692C228.337 191.739 228.27 191.763 228.183 191.763H227.579ZM238.189 191.881C237.376 191.881 236.728 191.632 236.247 191.135C235.765 190.63 235.501 189.943 235.453 189.075C235.446 188.972 235.442 188.842 235.442 188.684C235.442 188.518 235.446 188.384 235.453 188.282C235.485 187.721 235.615 187.232 235.844 186.813C236.073 186.387 236.385 186.06 236.78 185.831C237.182 185.602 237.652 185.487 238.189 185.487C238.788 185.487 239.29 185.614 239.692 185.866C240.103 186.119 240.414 186.478 240.628 186.944C240.841 187.409 240.947 187.954 240.947 188.578V188.779C240.947 188.866 240.92 188.933 240.864 188.98C240.817 189.028 240.754 189.051 240.675 189.051H236.578C236.578 189.059 236.578 189.075 236.578 189.099C236.578 189.122 236.578 189.142 236.578 189.158C236.594 189.481 236.665 189.785 236.791 190.069C236.918 190.346 237.099 190.571 237.336 190.744C237.573 190.918 237.857 191.005 238.189 191.005C238.473 191.005 238.709 190.961 238.899 190.875C239.088 190.788 239.242 190.693 239.361 190.59C239.479 190.48 239.558 190.397 239.597 190.342C239.669 190.239 239.724 190.18 239.763 190.164C239.803 190.14 239.866 190.129 239.953 190.129H240.521C240.6 190.129 240.663 190.152 240.71 190.2C240.766 190.239 240.789 190.298 240.781 190.377C240.774 190.496 240.71 190.642 240.592 190.815C240.474 190.981 240.304 191.147 240.083 191.313C239.862 191.478 239.594 191.617 239.278 191.727C238.962 191.83 238.599 191.881 238.189 191.881ZM236.578 188.234H239.822V188.199C239.822 187.844 239.755 187.528 239.621 187.252C239.495 186.975 239.309 186.758 239.065 186.6C238.82 186.435 238.528 186.352 238.189 186.352C237.849 186.352 237.557 186.435 237.312 186.6C237.076 186.758 236.894 186.975 236.768 187.252C236.641 187.528 236.578 187.844 236.578 188.199V188.234ZM248.158 191.881C247.55 191.881 247.041 191.767 246.63 191.538C246.228 191.301 245.92 190.969 245.707 190.543C245.501 190.109 245.391 189.608 245.375 189.039C245.367 188.803 245.363 188.566 245.363 188.329C245.363 188.092 245.367 187.855 245.375 187.619C245.375 186.9 245.434 186.304 245.553 185.831C245.671 185.357 245.849 184.97 246.086 184.67C246.33 184.363 246.638 184.11 247.009 183.913C247.38 183.715 247.818 183.546 248.323 183.404C248.828 183.254 249.405 183.096 250.052 182.93C250.123 182.914 250.19 182.926 250.253 182.965C250.324 183.005 250.364 183.06 250.372 183.131L250.466 183.617C250.482 183.688 250.47 183.751 250.431 183.806C250.399 183.861 250.348 183.897 250.277 183.913C249.685 184.063 249.168 184.193 248.726 184.303C248.284 184.414 247.913 184.544 247.613 184.694C247.313 184.836 247.072 185.022 246.891 185.251C246.709 185.479 246.583 185.783 246.512 186.162C246.449 186.541 246.429 187.027 246.453 187.619L246.192 187.512C246.232 187.22 246.354 186.956 246.559 186.719C246.772 186.474 247.037 186.277 247.352 186.127C247.668 185.977 248.004 185.902 248.359 185.902C248.903 185.902 249.361 186.016 249.732 186.245C250.111 186.474 250.399 186.786 250.597 187.18C250.802 187.575 250.916 188.029 250.94 188.542C250.956 188.81 250.956 189.043 250.94 189.241C250.916 189.754 250.798 190.212 250.585 190.614C250.372 191.009 250.064 191.321 249.661 191.549C249.259 191.77 248.757 191.881 248.158 191.881ZM248.158 191.005C248.655 191.005 249.049 190.851 249.342 190.543C249.634 190.235 249.787 189.785 249.803 189.193C249.811 189.114 249.815 189.024 249.815 188.921C249.815 188.818 249.811 188.712 249.803 188.601C249.787 188.001 249.634 187.548 249.342 187.24C249.057 186.932 248.698 186.778 248.264 186.778C247.767 186.778 247.356 186.932 247.033 187.24C246.709 187.548 246.535 188.001 246.512 188.601C246.504 188.712 246.5 188.818 246.5 188.921C246.5 189.024 246.504 189.114 246.512 189.193C246.535 189.785 246.693 190.235 246.985 190.543C247.277 190.851 247.668 191.005 248.158 191.005ZM252.848 191.763C252.77 191.763 252.702 191.739 252.647 191.692C252.6 191.636 252.576 191.569 252.576 191.49V185.878C252.576 185.799 252.6 185.736 252.647 185.689C252.702 185.633 252.77 185.606 252.848 185.606H253.417C253.496 185.606 253.559 185.633 253.606 185.689C253.654 185.736 253.677 185.799 253.677 185.878V191.49C253.677 191.569 253.654 191.636 253.606 191.692C253.559 191.739 253.496 191.763 253.417 191.763H252.848ZM252.754 184.457C252.675 184.457 252.608 184.434 252.552 184.386C252.505 184.331 252.481 184.264 252.481 184.185V183.546C252.481 183.467 252.505 183.404 252.552 183.356C252.608 183.301 252.675 183.273 252.754 183.273H253.5C253.579 183.273 253.642 183.301 253.689 183.356C253.744 183.404 253.772 183.467 253.772 183.546V184.185C253.772 184.264 253.744 184.331 253.689 184.386C253.642 184.434 253.579 184.457 253.5 184.457H252.754ZM255.291 191.763C255.212 191.763 255.145 191.735 255.09 191.68C255.035 191.624 255.007 191.557 255.007 191.478V191.04C255.007 190.875 255.09 190.788 255.256 190.78C255.501 190.772 255.706 190.658 255.872 190.436C256.037 190.208 256.164 189.848 256.25 189.359C256.337 188.862 256.381 188.207 256.381 187.394V185.878C256.381 185.799 256.404 185.736 256.452 185.689C256.507 185.633 256.574 185.606 256.653 185.606H260.418C260.497 185.606 260.56 185.633 260.608 185.689C260.663 185.736 260.69 185.799 260.69 185.878V191.49C260.69 191.569 260.663 191.636 260.608 191.692C260.56 191.739 260.497 191.763 260.418 191.763H259.85C259.771 191.763 259.708 191.739 259.66 191.692C259.613 191.636 259.589 191.569 259.589 191.49V186.553H257.458V187.524C257.458 188.282 257.415 188.933 257.328 189.477C257.241 190.014 257.107 190.452 256.925 190.792C256.752 191.123 256.527 191.368 256.25 191.526C255.982 191.684 255.662 191.763 255.291 191.763ZM262.872 191.763C262.793 191.763 262.726 191.739 262.67 191.692C262.623 191.636 262.599 191.569 262.599 191.49V185.878C262.599 185.799 262.623 185.736 262.67 185.689C262.726 185.633 262.793 185.606 262.872 185.606H263.44C263.519 185.606 263.582 185.633 263.629 185.689C263.685 185.736 263.712 185.799 263.712 185.878V187.619H265.038C265.843 187.619 266.432 187.808 266.803 188.187C267.174 188.566 267.359 189.079 267.359 189.726C267.359 190.421 267.154 190.934 266.743 191.265C266.333 191.597 265.717 191.763 264.896 191.763H262.872ZM263.7 190.875H264.944C265.417 190.875 265.765 190.792 265.986 190.626C266.207 190.452 266.317 190.152 266.317 189.726C266.317 189.316 266.211 189.012 265.997 188.814C265.784 188.609 265.433 188.507 264.944 188.507H263.7V190.875ZM268.947 191.763C268.868 191.763 268.801 191.739 268.746 191.692C268.698 191.636 268.675 191.569 268.675 191.49V185.878C268.675 185.799 268.698 185.736 268.746 185.689C268.801 185.633 268.868 185.606 268.947 185.606H269.492C269.571 185.606 269.634 185.633 269.681 185.689C269.736 185.736 269.764 185.799 269.764 185.878V190.815H271.931V185.878C271.931 185.799 271.954 185.736 272.002 185.689C272.057 185.633 272.124 185.606 272.203 185.606H272.7C272.787 185.606 272.854 185.633 272.902 185.689C272.949 185.736 272.973 185.799 272.973 185.878V190.815H275.139V185.878C275.139 185.799 275.163 185.736 275.21 185.689C275.266 185.633 275.333 185.606 275.412 185.606H275.956C276.035 185.606 276.098 185.633 276.146 185.689C276.201 185.736 276.229 185.799 276.229 185.878V191.49C276.229 191.569 276.201 191.636 276.146 191.692C276.098 191.739 276.035 191.763 275.956 191.763H268.947ZM280.589 191.881C279.776 191.881 279.128 191.632 278.647 191.135C278.165 190.63 277.901 189.943 277.854 189.075C277.846 188.972 277.842 188.842 277.842 188.684C277.842 188.518 277.846 188.384 277.854 188.282C277.885 187.721 278.015 187.232 278.244 186.813C278.473 186.387 278.785 186.06 279.18 185.831C279.582 185.602 280.052 185.487 280.589 185.487C281.189 185.487 281.69 185.614 282.092 185.866C282.503 186.119 282.815 186.478 283.028 186.944C283.241 187.409 283.347 187.954 283.347 188.578V188.779C283.347 188.866 283.32 188.933 283.265 188.98C283.217 189.028 283.154 189.051 283.075 189.051H278.978C278.978 189.059 278.978 189.075 278.978 189.099C278.978 189.122 278.978 189.142 278.978 189.158C278.994 189.481 279.065 189.785 279.192 190.069C279.318 190.346 279.499 190.571 279.736 190.744C279.973 190.918 280.257 191.005 280.589 191.005C280.873 191.005 281.11 190.961 281.299 190.875C281.489 190.788 281.642 190.693 281.761 190.59C281.879 190.48 281.958 190.397 281.998 190.342C282.069 190.239 282.124 190.18 282.163 190.164C282.203 190.14 282.266 190.129 282.353 190.129H282.921C283 190.129 283.063 190.152 283.111 190.2C283.166 190.239 283.19 190.298 283.182 190.377C283.174 190.496 283.111 190.642 282.992 190.815C282.874 190.981 282.704 191.147 282.483 191.313C282.262 191.478 281.994 191.617 281.678 191.727C281.362 191.83 280.999 191.881 280.589 191.881ZM278.978 188.234H282.223V188.199C282.223 187.844 282.156 187.528 282.021 187.252C281.895 186.975 281.71 186.758 281.465 186.6C281.22 186.435 280.928 186.352 280.589 186.352C280.249 186.352 279.957 186.435 279.713 186.6C279.476 186.758 279.294 186.975 279.168 187.252C279.042 187.528 278.978 187.844 278.978 188.199V188.234ZM290.345 191.763C290.266 191.763 290.199 191.739 290.143 191.692C290.096 191.636 290.072 191.569 290.072 191.49V184.86L288.107 186.375C288.044 186.423 287.977 186.442 287.905 186.435C287.834 186.427 287.775 186.391 287.728 186.328L287.42 185.937C287.373 185.866 287.353 185.795 287.361 185.724C287.377 185.653 287.416 185.594 287.479 185.547L290.06 183.557C290.116 183.518 290.167 183.494 290.214 183.486C290.262 183.479 290.313 183.475 290.368 183.475H290.972C291.051 183.475 291.114 183.502 291.161 183.557C291.209 183.605 291.233 183.668 291.233 183.747V191.49C291.233 191.569 291.209 191.636 291.161 191.692C291.114 191.739 291.051 191.763 290.972 191.763H290.345ZM296.038 191.881C295.493 191.881 295.032 191.798 294.653 191.632C294.282 191.459 293.978 191.222 293.741 190.922C293.504 190.622 293.331 190.279 293.22 189.892C293.118 189.505 293.058 189.095 293.043 188.66C293.035 188.447 293.027 188.222 293.019 187.986C293.019 187.749 293.019 187.512 293.019 187.275C293.027 187.031 293.035 186.798 293.043 186.577C293.05 186.143 293.11 185.732 293.22 185.345C293.339 184.951 293.512 184.607 293.741 184.315C293.978 184.015 294.286 183.782 294.665 183.617C295.044 183.443 295.501 183.356 296.038 183.356C296.583 183.356 297.041 183.443 297.412 183.617C297.79 183.782 298.098 184.015 298.335 184.315C298.572 184.607 298.746 184.951 298.856 185.345C298.974 185.732 299.038 186.143 299.045 186.577C299.053 186.798 299.057 187.031 299.057 187.275C299.065 187.512 299.065 187.749 299.057 187.986C299.057 188.222 299.053 188.447 299.045 188.66C299.038 189.095 298.974 189.505 298.856 189.892C298.746 190.279 298.572 190.622 298.335 190.922C298.106 191.222 297.802 191.459 297.423 191.632C297.052 191.798 296.591 191.881 296.038 191.881ZM296.038 190.875C296.654 190.875 297.108 190.673 297.4 190.271C297.7 189.86 297.854 189.304 297.861 188.601C297.877 188.372 297.885 188.151 297.885 187.938C297.885 187.717 297.885 187.5 297.885 187.287C297.885 187.066 297.877 186.849 297.861 186.636C297.854 185.949 297.7 185.401 297.4 184.99C297.108 184.572 296.654 184.363 296.038 184.363C295.43 184.363 294.976 184.572 294.677 184.99C294.384 185.401 294.231 185.949 294.215 186.636C294.215 186.849 294.211 187.066 294.203 187.287C294.203 187.5 294.203 187.717 294.203 187.938C294.211 188.151 294.215 188.372 294.215 188.601C294.231 189.304 294.388 189.86 294.688 190.271C294.988 190.673 295.438 190.875 296.038 190.875ZM304.293 191.763C304.214 191.763 304.147 191.739 304.091 191.692C304.044 191.636 304.02 191.569 304.02 191.49V183.759C304.02 183.672 304.044 183.605 304.091 183.557C304.147 183.502 304.214 183.475 304.293 183.475H304.885C304.979 183.475 305.05 183.498 305.098 183.546C305.145 183.593 305.173 183.632 305.181 183.664L307.691 188.447L310.213 183.664C310.228 183.632 310.256 183.593 310.295 183.546C310.343 183.498 310.414 183.475 310.509 183.475H311.089C311.176 183.475 311.243 183.502 311.29 183.557C311.345 183.605 311.373 183.672 311.373 183.759V191.49C311.373 191.569 311.345 191.636 311.29 191.692C311.243 191.739 311.176 191.763 311.089 191.763H310.509C310.43 191.763 310.363 191.739 310.307 191.692C310.26 191.636 310.236 191.569 310.236 191.49V185.665L308.259 189.525C308.227 189.604 308.18 189.667 308.117 189.714C308.054 189.754 307.975 189.773 307.88 189.773H307.513C307.41 189.773 307.328 189.754 307.264 189.714C307.209 189.667 307.162 189.604 307.122 189.525L305.145 185.665V191.49C305.145 191.569 305.117 191.636 305.062 191.692C305.015 191.739 304.952 191.763 304.873 191.763H304.293ZM313.837 191.763C313.75 191.763 313.683 191.739 313.635 191.692C313.588 191.636 313.564 191.569 313.564 191.49V183.759C313.564 183.672 313.588 183.605 313.635 183.557C313.683 183.502 313.75 183.475 313.837 183.475H317.081C317.673 183.475 318.154 183.573 318.525 183.771C318.904 183.96 319.18 184.22 319.354 184.552C319.536 184.884 319.626 185.255 319.626 185.665C319.626 185.989 319.571 186.269 319.461 186.506C319.358 186.735 319.228 186.924 319.07 187.074C318.912 187.216 318.758 187.327 318.608 187.405C318.916 187.555 319.188 187.8 319.425 188.14C319.67 188.479 319.792 188.889 319.792 189.371C319.792 189.805 319.694 190.204 319.496 190.567C319.299 190.93 319.003 191.222 318.608 191.443C318.221 191.656 317.74 191.763 317.164 191.763H313.837ZM314.725 190.804H317.01C317.523 190.804 317.918 190.665 318.194 190.389C318.47 190.113 318.608 189.773 318.608 189.371C318.608 188.953 318.47 188.609 318.194 188.341C317.918 188.065 317.523 187.926 317.01 187.926H314.725V190.804ZM314.725 186.979H316.903C317.408 186.979 317.791 186.865 318.052 186.636C318.312 186.399 318.442 186.079 318.442 185.677C318.442 185.274 318.312 184.966 318.052 184.753C317.791 184.54 317.408 184.434 316.903 184.434H314.725V186.979Z" fill="#668099"/>
<path d="M25.2446 31.9226V22.18H32.9913V31.9226H31.5773V23.5128H26.6586V31.9226H25.2446ZM38.0506 32.1256C37.3515 32.1256 36.7651 31.9564 36.2915 31.6182C35.8179 31.2754 35.4593 30.813 35.2157 30.2312C34.9722 29.6493 34.8504 28.9931 34.8504 28.2624C34.8504 27.5317 34.9699 26.8754 35.209 26.2935C35.4525 25.7117 35.8089 25.2539 36.278 24.9201C36.7516 24.5818 37.3334 24.4127 38.0235 24.4127C38.7091 24.4127 39.3 24.5818 39.7961 24.9201C40.2968 25.2539 40.6824 25.7117 40.9531 26.2935C41.2237 26.8709 41.359 27.5271 41.359 28.2624C41.359 28.9931 41.2237 29.6516 40.9531 30.2379C40.687 30.8198 40.3058 31.2799 39.8097 31.6182C39.318 31.9564 38.7317 32.1256 38.0506 32.1256ZM34.6136 35.1702V24.6156H35.872V29.8726H36.0344V35.1702H34.6136ZM37.8544 30.8469C38.3054 30.8469 38.6775 30.7318 38.9707 30.5018C39.2684 30.2718 39.4894 29.9628 39.6338 29.5749C39.7826 29.1825 39.857 28.745 39.857 28.2624C39.857 27.7842 39.7826 27.3512 39.6338 26.9633C39.4894 26.5754 39.2662 26.2665 38.964 26.0364C38.6617 25.8064 38.2761 25.6914 37.807 25.6914C37.365 25.6914 36.9996 25.7996 36.711 26.0161C36.4268 26.2326 36.2148 26.5348 36.075 26.9227C35.9397 27.3106 35.872 27.7572 35.872 28.2624C35.872 28.7675 35.9397 29.2141 36.075 29.602C36.2103 29.9899 36.4246 30.2943 36.7177 30.5153C37.0109 30.7364 37.3898 30.8469 37.8544 30.8469ZM48.739 24.6156V31.9226H47.3791V26.8416L43.7256 31.9226H42.5755V24.6156H43.9354V29.5952L47.5956 24.6156H48.739ZM50.3523 31.9226L50.3591 24.6156H51.7934V28.1338L54.6621 24.6156H56.4618L53.4307 28.2691L56.773 31.9226H54.8515L51.7934 28.4044V31.9226H50.3523ZM60.6148 32.1256C59.9156 32.1256 59.3293 31.9564 58.8557 31.6182C58.3821 31.2754 58.0235 30.813 57.7799 30.2312C57.5364 29.6493 57.4146 28.9931 57.4146 28.2624C57.4146 27.5317 57.5341 26.8754 57.7732 26.2935C58.0167 25.7117 58.3731 25.2539 58.8421 24.9201C59.3157 24.5818 59.8976 24.4127 60.5877 24.4127C61.2733 24.4127 61.8642 24.5818 62.3603 24.9201C62.861 25.2539 63.2466 25.7117 63.5173 26.2935C63.7879 26.8709 63.9232 27.5271 63.9232 28.2624C63.9232 28.9931 63.7879 29.6516 63.5173 30.2379C63.2511 30.8198 62.87 31.2799 62.3739 31.6182C61.8822 31.9564 61.2958 32.1256 60.6148 32.1256ZM57.1778 35.1702V24.6156H58.4362V29.8726H58.5986V35.1702H57.1778ZM60.4186 30.8469C60.8696 30.8469 61.2417 30.7318 61.5349 30.5018C61.8326 30.2718 62.0536 29.9628 62.1979 29.5749C62.3468 29.1825 62.4212 28.745 62.4212 28.2624C62.4212 27.7842 62.3468 27.3512 62.1979 26.9633C62.0536 26.5754 61.8303 26.2665 61.5281 26.0364C61.2259 25.8064 60.8403 25.6914 60.3712 25.6914C59.9292 25.6914 59.5638 25.7996 59.2752 26.0161C58.991 26.2326 58.779 26.5348 58.6392 26.9227C58.5039 27.3106 58.4362 27.7572 58.4362 28.2624C58.4362 28.7675 58.5039 29.2141 58.6392 29.602C58.7745 29.9899 58.9887 30.2943 59.2819 30.5153C59.5751 30.7364 59.954 30.8469 60.4186 30.8469ZM65.2817 23.4181V22.0447H66.6958V23.4181H65.2817ZM65.2817 31.9226V24.6156H66.6958V31.9226H65.2817ZM68.4501 31.9226V24.6156H74.6137V31.9226H73.1996V25.9485H69.8641V31.9226H68.4501ZM82.3905 24.6156V31.9226H81.0306V26.8416L77.3771 31.9226H76.227V24.6156H77.5869V29.5952L81.2471 24.6156H82.3905ZM85.8982 31.9226V25.8876H83.4017V24.6156H89.8088V25.8876H87.3123V31.9226H85.8982ZM96.9796 24.6156V31.9226H95.6197V26.8416L91.9662 31.9226H90.8161V24.6156H92.176V29.5952L95.8362 24.6156H96.9796ZM104.475 34.9672V32.0512C103.762 32.1639 103.115 32.0872 102.533 31.8211C101.951 31.555 101.489 31.122 101.146 30.5221C100.803 29.9222 100.632 29.1735 100.632 28.2759C100.632 27.3783 100.803 26.6273 101.146 26.0229C101.489 25.4185 101.951 24.9832 102.533 24.7171C103.115 24.451 103.762 24.3743 104.475 24.4871V22.2747H105.747V24.4871C106.46 24.3743 107.107 24.451 107.689 24.7171C108.271 24.9832 108.733 25.4185 109.076 26.0229C109.418 26.6273 109.59 27.3783 109.59 28.2759C109.59 29.1735 109.418 29.9222 109.076 30.5221C108.733 31.122 108.271 31.555 107.689 31.8211C107.107 32.0872 106.46 32.1639 105.747 32.0512V34.9672H104.475ZM104.475 30.7724V25.7726C104.11 25.7094 103.778 25.7207 103.48 25.8064C103.187 25.8921 102.937 26.0432 102.729 26.2597C102.522 26.4717 102.362 26.7491 102.249 27.0919C102.136 27.4302 102.08 27.8248 102.08 28.2759C102.08 28.7269 102.136 29.1216 102.249 29.4599C102.366 29.7982 102.531 30.0756 102.743 30.2921C102.959 30.5041 103.214 30.6529 103.507 30.7386C103.801 30.8198 104.123 30.8311 104.475 30.7724ZM105.747 30.7724C106.099 30.8311 106.421 30.8198 106.714 30.7386C107.008 30.6574 107.26 30.5108 107.472 30.2988C107.689 30.0868 107.853 29.8117 107.966 29.4734C108.083 29.1306 108.142 28.7314 108.142 28.2759C108.142 27.8158 108.086 27.4166 107.973 27.0784C107.86 26.7356 107.7 26.4582 107.492 26.2462C107.285 26.0297 107.032 25.8808 106.735 25.7996C106.442 25.7184 106.112 25.7094 105.747 25.7726V30.7724ZM112.874 32.1256C112.333 32.1256 111.879 32.0263 111.514 31.8279C111.149 31.6249 110.871 31.3588 110.682 31.0295C110.497 30.6958 110.404 30.3304 110.404 29.9335C110.404 29.5636 110.47 29.2389 110.6 28.9592C110.731 28.6796 110.925 28.4428 111.182 28.2488C111.439 28.0504 111.755 27.8902 112.13 27.7685C112.454 27.6737 112.822 27.5903 113.232 27.5181C113.643 27.446 114.074 27.3783 114.525 27.3152C114.98 27.252 115.431 27.1889 115.878 27.1257L115.364 27.4099C115.373 26.837 115.251 26.4131 114.998 26.1379C114.75 25.8583 114.322 25.7184 113.713 25.7184C113.329 25.7184 112.978 25.8087 112.657 25.9891C112.337 26.165 112.114 26.4582 111.987 26.8686L110.668 26.4627C110.849 25.8357 111.191 25.3373 111.697 24.9675C112.206 24.5976 112.883 24.4127 113.726 24.4127C114.38 24.4127 114.949 24.5254 115.431 24.7509C115.918 24.972 116.275 25.3238 116.5 25.8064C116.617 26.0455 116.69 26.298 116.717 26.5642C116.744 26.8303 116.757 27.1167 116.757 27.4234V31.9226H115.506V30.2515L115.749 30.468C115.447 31.0273 115.061 31.4445 114.592 31.7196C114.128 31.9903 113.555 32.1256 112.874 32.1256ZM113.124 30.9686C113.526 30.9686 113.871 30.8987 114.159 30.7589C114.448 30.6146 114.68 30.4319 114.856 30.2109C115.032 29.9899 115.147 29.7598 115.201 29.5208C115.278 29.3043 115.321 29.0607 115.33 28.7901C115.343 28.5195 115.35 28.303 115.35 28.1406L115.81 28.3097C115.364 28.3774 114.958 28.4383 114.592 28.4924C114.227 28.5465 113.895 28.6006 113.598 28.6548C113.305 28.7044 113.043 28.7653 112.813 28.8374C112.619 28.9051 112.445 28.9863 112.292 29.081C112.143 29.1757 112.024 29.2907 111.933 29.4261C111.848 29.5614 111.805 29.726 111.805 29.92C111.805 30.1094 111.852 30.2853 111.947 30.4477C112.042 30.6055 112.186 30.7318 112.38 30.8266C112.574 30.9213 112.822 30.9686 113.124 30.9686ZM121.505 23.7767C121.148 23.7767 120.821 23.6887 120.524 23.5128C120.23 23.3369 119.996 23.1024 119.82 22.8092C119.644 22.516 119.556 22.189 119.556 21.8282H120.679C120.679 22.0537 120.76 22.2476 120.923 22.41C121.085 22.5724 121.279 22.6536 121.505 22.6536C121.735 22.6536 121.929 22.5724 122.086 22.41C122.249 22.2476 122.33 22.0537 122.33 21.8282H123.453C123.453 22.189 123.365 22.516 123.189 22.8092C123.013 23.1024 122.777 23.3369 122.479 23.5128C122.186 23.6887 121.861 23.7767 121.505 23.7767ZM124.4 24.6156V31.9226H123.04V26.8416L119.387 31.9226H118.237V24.6156H119.597V29.5952L123.257 24.6156H124.4ZM125.344 31.9226V30.7251C125.614 30.7747 125.82 30.7679 125.96 30.7048C126.104 30.6371 126.21 30.5153 126.278 30.3394C126.35 30.1635 126.411 29.9357 126.46 29.6561C126.537 29.2456 126.602 28.7788 126.656 28.2556C126.715 27.7279 126.767 27.1573 126.812 26.5439C126.857 25.9304 126.898 25.2877 126.934 24.6156H132.184V31.9226H130.763V25.9485H128.206C128.179 26.3048 128.147 26.6837 128.111 27.0851C128.079 27.482 128.043 27.8767 128.003 28.2691C127.962 28.6615 127.919 29.0291 127.874 29.3719C127.829 29.7147 127.782 30.0079 127.732 30.2515C127.642 30.7386 127.509 31.1265 127.333 31.4152C127.162 31.6993 126.918 31.882 126.602 31.9632C126.287 32.0489 125.867 32.0354 125.344 31.9226Z" fill="#292424"/>
</g>
<defs>
<filter id="filter0_dddd_698_38982" x="0.617143" y="0.16282" width="757.76" height="355.2" filterUnits="userSpaceOnUse" color-interpolation-filters="sRGB">
<feFlood flood-opacity="0" result="BackgroundImageFix"/>
<feColorMatrix in="SourceAlpha" type="matrix" values="0 0 0 0 0 0 0 0 0 0 0 0 0 0 0 0 0 0 127 0" result="hardAlpha"/>
<feOffset dy="0.845714"/>
<feGaussianBlur stdDeviation="1.26857"/>
<feColorMatrix type="matrix" values="0 0 0 0 0.1375 0 0 0 0 0.145208 0 0 0 0 0.15 0 0 0 0.05 0"/>
<feBlend mode="normal" in2="BackgroundImageFix" result="effect1_dropShadow_698_38982"/>
<feColorMatrix in="SourceAlpha" type="matrix" values="0 0 0 0 0 0 0 0 0 0 0 0 0 0 0 0 0 0 127 0" result="hardAlpha"/>
<feOffset dx="1.69143" dy="4.22857"/>
<feGaussianBlur stdDeviation="2.53714"/>
<feColorMatrix type="matrix" values="0 0 0 0 0.137255 0 0 0 0 0.145098 0 0 0 0 0.14902 0 0 0 0.04 0"/>
<feBlend mode="normal" in2="effect1_dropShadow_698_38982" result="effect2_dropShadow_698_38982"/>
<feColorMatrix in="SourceAlpha" type="matrix" values="0 0 0 0 0 0 0 0 0 0 0 0 0 0 0 0 0 0 127 0" result="hardAlpha"/>
<feOffset dx="3.38286" dy="10.1486"/>
<feGaussianBlur stdDeviation="3.38286"/>
<feColorMatrix type="matrix" values="0 0 0 0 0.137255 0 0 0 0 0.145098 0 0 0 0 0.14902 0 0 0 0.03 0"/>
<feBlend mode="normal" in2="effect2_dropShadow_698_38982" result="effect3_dropShadow_698_38982"/>
<feColorMatrix in="SourceAlpha" type="matrix" values="0 0 0 0 0 0 0 0 0 0 0 0 0 0 0 0 0 0 127 0" result="hardAlpha"/>
<feOffset dx="6.76571" dy="18.6057"/>
<feGaussianBlur stdDeviation="3.80571"/>
<feColorMatrix type="matrix" values="0 0 0 0 0.137255 0 0 0 0 0.145098 0 0 0 0 0.14902 0 0 0 0.01 0"/>
<feBlend mode="normal" in2="effect3_dropShadow_698_38982" result="effect4_dropShadow_698_38982"/>
<feBlend mode="normal" in="SourceGraphic" in2="effect4_dropShadow_698_38982" result="shape"/>
</filter>
</defs>
</svg>
