<svg width="235" height="201" viewBox="0 0 235 201" fill="none" xmlns="http://www.w3.org/2000/svg">
<g filter="url(#filter0_dddd_698_37696)">
<g clip-path="url(#clip0_698_37696)">
<rect x="4" y="2.39551" width="215.216" height="169.23" rx="17.4748" fill="white"/>
<path d="M47.785 109.669C47.0345 109.669 46.3747 109.559 45.8057 109.338C45.2416 109.118 44.7658 108.836 44.3783 108.492C43.9908 108.144 43.6891 107.781 43.4733 107.403L45.1656 106.226C45.2833 106.471 45.4501 106.714 45.6659 106.954C45.8817 107.195 46.1687 107.393 46.5268 107.55C46.8848 107.707 47.3337 107.786 47.8732 107.786C48.3834 107.786 48.793 107.712 49.102 107.565C49.4159 107.418 49.6416 107.229 49.7789 106.999C49.9212 106.768 49.9923 106.525 49.9923 106.27C49.9923 105.932 49.8917 105.672 49.6906 105.49C49.4944 105.309 49.2393 105.184 48.9254 105.115C48.6115 105.041 48.2804 105 47.9321 104.99C47.5936 104.98 47.3484 104.973 47.1963 104.968C47.0492 104.963 46.9486 104.96 46.8947 104.96C46.8456 104.96 46.799 104.96 46.7549 104.96V103.077C46.8186 103.077 46.9118 103.077 47.0345 103.077C47.162 103.077 47.2895 103.077 47.4171 103.077C47.5495 103.072 47.6574 103.067 47.7408 103.062C48.2559 103.038 48.6851 102.925 49.0284 102.724C49.3767 102.523 49.5508 102.209 49.5508 101.782C49.5508 101.389 49.3963 101.078 49.0873 100.847C48.7832 100.617 48.3736 100.502 47.8585 100.502C47.3729 100.502 46.9388 100.607 46.5562 100.818C46.1785 101.024 45.9014 101.252 45.7248 101.502L44.3562 100.031C44.7241 99.6481 45.2171 99.3195 45.8351 99.0448C46.4532 98.7701 47.1473 98.6328 47.9174 98.6328C48.3834 98.6328 48.8396 98.6941 49.2859 98.8167C49.7323 98.9344 50.1345 99.1184 50.4926 99.3685C50.8507 99.6138 51.1352 99.9302 51.3461 100.318C51.562 100.705 51.6699 101.169 51.6699 101.708C51.6699 102.165 51.5889 102.596 51.4271 103.003C51.2652 103.406 51.0322 103.744 50.7281 104.019C51.1695 104.215 51.5105 104.499 51.7508 104.872C51.9912 105.245 52.1113 105.711 52.1113 106.27C52.1113 106.972 51.9151 107.577 51.5227 108.088C51.1352 108.593 50.6128 108.983 49.9555 109.257C49.3031 109.532 48.5796 109.669 47.785 109.669ZM55.643 109.669C55.074 109.669 54.5908 109.562 54.1935 109.346C53.8011 109.125 53.5019 108.833 53.2958 108.47C53.0947 108.102 52.9942 107.698 52.9942 107.256C52.9942 106.888 53.0506 106.552 53.1634 106.248C53.2762 105.944 53.4577 105.677 53.7079 105.446C53.9629 105.211 54.3039 105.014 54.7306 104.857C55.0249 104.75 55.3756 104.654 55.7828 104.571C56.1899 104.487 56.651 104.409 57.166 104.335C57.6811 104.257 58.2476 104.171 58.8657 104.078L58.1446 104.475C58.1446 104.004 58.0318 103.658 57.8062 103.437C57.5805 103.217 57.2028 103.106 56.6731 103.106C56.3788 103.106 56.0722 103.177 55.7533 103.32C55.4345 103.462 55.2113 103.715 55.0838 104.078L53.2738 103.504C53.4749 102.846 53.8526 102.312 54.4069 101.9C54.9612 101.488 55.7166 101.282 56.6731 101.282C57.3745 101.282 57.9975 101.389 58.542 101.605C59.0864 101.821 59.4985 102.194 59.7781 102.724C59.935 103.018 60.0282 103.312 60.0577 103.607C60.0871 103.901 60.1018 104.23 60.1018 104.593V109.449H58.3506V107.815L58.6008 108.154C58.2133 108.688 57.7939 109.076 57.3426 109.316C56.8963 109.552 56.3297 109.669 55.643 109.669ZM56.0697 108.095C56.4376 108.095 56.7466 108.031 56.9968 107.904C57.2519 107.771 57.453 107.622 57.6002 107.455C57.7522 107.288 57.8552 107.148 57.9092 107.035C58.0122 106.82 58.0711 106.569 58.0858 106.285C58.1054 105.995 58.1152 105.755 58.1152 105.564L58.7038 105.711C58.1103 105.809 57.6296 105.892 57.2617 105.961C56.8938 106.025 56.597 106.084 56.3714 106.138C56.1458 106.192 55.9471 106.251 55.7754 106.314C55.5792 106.393 55.4198 106.479 55.2972 106.572C55.1794 106.66 55.0911 106.758 55.0323 106.866C54.9783 106.974 54.9513 107.094 54.9513 107.227C54.9513 107.408 54.9955 107.565 55.0838 107.698C55.177 107.825 55.307 107.923 55.4737 107.992C55.6405 108.061 55.8392 108.095 56.0697 108.095ZM61.7059 109.449V101.502H68.7988V109.449H66.7975V103.371H63.7072V109.449H61.7059ZM69.8303 109.449V107.786C70.1197 107.84 70.3429 107.837 70.4999 107.779C70.6569 107.715 70.7746 107.592 70.8531 107.411C70.9364 107.224 71.0076 106.972 71.0664 106.653C71.1449 106.231 71.2136 105.738 71.2725 105.174C71.3362 104.61 71.3902 104.014 71.4343 103.386C71.4785 102.753 71.5177 102.125 71.5521 101.502H77.556V109.449H75.5547V103.371H73.3032C73.2836 103.626 73.2566 103.93 73.2223 104.284C73.1928 104.637 73.1585 105.005 73.1193 105.387C73.0849 105.765 73.0457 106.128 73.0015 106.476C72.9574 106.82 72.9108 107.114 72.8617 107.359C72.744 107.982 72.5699 108.473 72.3393 108.831C72.1088 109.189 71.7924 109.417 71.3902 109.515C70.988 109.618 70.468 109.596 69.8303 109.449ZM81.5327 109.669C80.9637 109.669 80.4805 109.562 80.0832 109.346C79.6908 109.125 79.3916 108.833 79.1855 108.47C78.9844 108.102 78.8839 107.698 78.8839 107.256C78.8839 106.888 78.9403 106.552 79.0531 106.248C79.1659 105.944 79.3474 105.677 79.5976 105.446C79.8527 105.211 80.1936 105.014 80.6203 104.857C80.9146 104.75 81.2654 104.654 81.6725 104.571C82.0796 104.487 82.5407 104.409 83.0558 104.335C83.5708 104.257 84.1373 104.171 84.7554 104.078L84.0343 104.475C84.0343 104.004 83.9215 103.658 83.6959 103.437C83.4702 103.217 83.0925 103.106 82.5628 103.106C82.2685 103.106 81.9619 103.177 81.6431 103.32C81.3242 103.462 81.101 103.715 80.9735 104.078L79.1635 103.504C79.3646 102.846 79.7423 102.312 80.2966 101.9C80.8509 101.488 81.6063 101.282 82.5628 101.282C83.2642 101.282 83.8872 101.389 84.4317 101.605C84.9761 101.821 85.3882 102.194 85.6678 102.724C85.8247 103.018 85.9179 103.312 85.9474 103.607C85.9768 103.901 85.9915 104.23 85.9915 104.593V109.449H84.2404V107.815L84.4905 108.154C84.103 108.688 83.6836 109.076 83.2323 109.316C82.786 109.552 82.2194 109.669 81.5327 109.669ZM81.9594 108.095C82.3273 108.095 82.6364 108.031 82.8865 107.904C83.1416 107.771 83.3427 107.622 83.4899 107.455C83.6419 107.288 83.7449 107.148 83.7989 107.035C83.9019 106.82 83.9608 106.569 83.9755 106.285C83.9951 105.995 84.0049 105.755 84.0049 105.564L84.5935 105.711C84 105.809 83.5193 105.892 83.1514 105.961C82.7835 106.025 82.4867 106.084 82.2611 106.138C82.0355 106.192 81.8368 106.251 81.6651 106.314C81.4689 106.393 81.3095 106.479 81.1869 106.572C81.0691 106.66 80.9808 106.758 80.922 106.866C80.868 106.974 80.8411 107.094 80.8411 107.227C80.8411 107.408 80.8852 107.565 80.9735 107.698C81.0667 107.825 81.1967 107.923 81.3635 107.992C81.5302 108.061 81.7289 108.095 81.9594 108.095ZM87.5956 109.449V101.502H89.597V104.534H92.8638V101.502H94.8652V109.449H92.8638V106.403H89.597V109.449H87.5956ZM97.6436 112.98L99.1741 108.772L99.2035 110.008L95.7453 101.502H97.8202L100.145 107.521H99.6744L101.985 101.502H103.986L99.4978 112.98H97.6436ZM104.712 109.449V101.502H108.435C108.729 101.502 108.987 101.519 109.207 101.554C109.428 101.583 109.612 101.62 109.759 101.664C110.122 101.772 110.453 101.983 110.752 102.297C111.052 102.611 111.201 103.067 111.201 103.665C111.201 104.019 111.145 104.306 111.032 104.526C110.919 104.742 110.77 104.921 110.583 105.063C110.495 105.127 110.407 105.181 110.318 105.225C110.23 105.269 110.142 105.304 110.054 105.328C110.26 105.358 110.446 105.412 110.613 105.49C110.878 105.608 111.108 105.794 111.304 106.049C111.501 106.3 111.599 106.672 111.599 107.168C111.599 107.698 111.469 108.149 111.209 108.522C110.954 108.894 110.569 109.154 110.054 109.302C109.877 109.351 109.668 109.387 109.428 109.412C109.193 109.436 108.945 109.449 108.685 109.449H104.712ZM106.742 107.933H108.538C108.641 107.933 108.746 107.923 108.854 107.904C108.967 107.879 109.068 107.85 109.156 107.815C109.298 107.756 109.399 107.656 109.458 107.514C109.521 107.371 109.553 107.227 109.553 107.08C109.553 106.873 109.507 106.712 109.413 106.594C109.325 106.476 109.225 106.393 109.112 106.344C109.019 106.3 108.915 106.275 108.803 106.27C108.695 106.26 108.606 106.255 108.538 106.255H106.742V107.933ZM106.742 104.71H107.964C108.121 104.71 108.268 104.703 108.405 104.688C108.548 104.669 108.665 104.637 108.759 104.593C108.886 104.534 108.982 104.441 109.045 104.313C109.109 104.181 109.141 104.033 109.141 103.872C109.141 103.7 109.104 103.545 109.031 103.408C108.962 103.266 108.847 103.17 108.685 103.121C108.577 103.082 108.44 103.06 108.273 103.055C108.111 103.05 108.008 103.047 107.964 103.047H106.742V104.71ZM114.989 109.669C114.42 109.669 113.937 109.562 113.539 109.346C113.147 109.125 112.848 108.833 112.642 108.47C112.441 108.102 112.34 107.698 112.34 107.256C112.34 106.888 112.396 106.552 112.509 106.248C112.622 105.944 112.804 105.677 113.054 105.446C113.309 105.211 113.65 105.014 114.077 104.857C114.371 104.75 114.722 104.654 115.129 104.571C115.536 104.487 115.997 104.409 116.512 104.335C117.027 104.257 117.594 104.171 118.212 104.078L117.491 104.475C117.491 104.004 117.378 103.658 117.152 103.437C116.926 103.217 116.549 103.106 116.019 103.106C115.725 103.106 115.418 103.177 115.099 103.32C114.78 103.462 114.557 103.715 114.43 104.078L112.62 103.504C112.821 102.846 113.198 102.312 113.753 101.9C114.307 101.488 115.062 101.282 116.019 101.282C116.72 101.282 117.343 101.389 117.888 101.605C118.432 101.821 118.844 102.194 119.124 102.724C119.281 103.018 119.374 103.312 119.404 103.607C119.433 103.901 119.448 104.23 119.448 104.593V109.449H117.697V107.815L117.947 108.154C117.559 108.688 117.14 109.076 116.689 109.316C116.242 109.552 115.676 109.669 114.989 109.669ZM115.416 108.095C115.784 108.095 116.093 108.031 116.343 107.904C116.598 107.771 116.799 107.622 116.946 107.455C117.098 107.288 117.201 107.148 117.255 107.035C117.358 106.82 117.417 106.569 117.432 106.285C117.451 105.995 117.461 105.755 117.461 105.564L118.05 105.711C117.456 105.809 116.975 105.892 116.608 105.961C116.24 106.025 115.943 106.084 115.717 106.138C115.492 106.192 115.293 106.251 115.121 106.314C114.925 106.393 114.766 106.479 114.643 106.572C114.525 106.66 114.437 106.758 114.378 106.866C114.324 106.974 114.297 107.094 114.297 107.227C114.297 107.408 114.341 107.565 114.43 107.698C114.523 107.825 114.653 107.923 114.82 107.992C114.986 108.061 115.185 108.095 115.416 108.095ZM123.009 109.449V103.268H120.404V101.502H127.615V103.268H125.01V109.449H123.009ZM135.797 101.502V109.449H133.884V104.593L130.294 109.449H128.705V101.502H130.618V106.197L134.223 101.502H135.797ZM140.364 100.399V98.6328H142.365V100.399H140.364ZM140.364 109.449V101.502H142.365V109.449H140.364ZM144.262 109.449V101.502H145.88L148.647 106.653L151.413 101.502H153.032V109.449H151.119V105.49L149 109.449H148.294L146.175 105.49V109.449H144.262ZM158.497 109.669C157.683 109.669 156.964 109.495 156.341 109.147C155.723 108.794 155.237 108.311 154.884 107.698C154.536 107.08 154.362 106.373 154.362 105.579C154.362 104.71 154.533 103.955 154.877 103.312C155.22 102.67 155.694 102.172 156.297 101.819C156.9 101.461 157.594 101.282 158.379 101.282C159.213 101.282 159.922 101.478 160.506 101.87C161.089 102.263 161.521 102.814 161.801 103.526C162.08 104.237 162.178 105.073 162.095 106.035H160.116V105.299C160.116 104.49 159.986 103.908 159.726 103.555C159.471 103.197 159.051 103.018 158.467 103.018C157.786 103.018 157.283 103.226 156.959 103.643C156.64 104.055 156.481 104.666 156.481 105.476C156.481 106.216 156.64 106.79 156.959 107.197C157.283 107.599 157.756 107.801 158.379 107.801C158.772 107.801 159.108 107.715 159.387 107.543C159.667 107.371 159.88 107.124 160.027 106.8L162.029 107.374C161.729 108.1 161.256 108.664 160.609 109.066C159.966 109.468 159.262 109.669 158.497 109.669ZM155.863 106.035V104.548H161.131V106.035H155.863ZM167.258 100.619C166.827 100.619 166.434 100.514 166.081 100.303C165.728 100.092 165.446 99.81 165.235 99.4568C165.024 99.1037 164.919 98.7112 164.919 98.2796H166.464C166.464 98.5003 166.54 98.6892 166.692 98.8461C166.849 98.9982 167.038 99.0742 167.258 99.0742C167.479 99.0742 167.666 98.9982 167.818 98.8461C167.975 98.6892 168.053 98.5003 168.053 98.2796H169.598C169.598 98.7112 169.493 99.1037 169.282 99.4568C169.071 99.81 168.789 100.092 168.436 100.303C168.083 100.514 167.69 100.619 167.258 100.619ZM170.54 101.502V109.449H168.627V104.593L165.036 109.449H163.447V101.502H165.36V106.197L168.966 101.502H170.54ZM171.572 109.449V107.786C171.861 107.84 172.084 107.837 172.241 107.779C172.398 107.715 172.516 107.592 172.594 107.411C172.678 107.224 172.749 106.972 172.808 106.653C172.886 106.231 172.955 105.738 173.014 105.174C173.077 104.61 173.131 104.014 173.176 103.386C173.22 102.753 173.259 102.125 173.293 101.502H179.297V109.449H177.296V103.371H175.044C175.025 103.626 174.998 103.93 174.964 104.284C174.934 104.637 174.9 105.005 174.861 105.387C174.826 105.765 174.787 106.128 174.743 106.476C174.699 106.82 174.652 107.114 174.603 107.359C174.485 107.982 174.311 108.473 174.081 108.831C173.85 109.189 173.534 109.417 173.131 109.515C172.729 109.618 172.209 109.596 171.572 109.449Z" fill="#292424"/>
<path d="M54.3041 128.127V120.843H54.987L57.8501 126.969L60.698 120.843H61.391V128.122H60.6829V122.502L58.0878 128.127H57.6073L55.0173 122.502V128.127H54.3041ZM66.9485 122.664V128.127H66.2251V123.873L63.2305 128.127H62.6033V122.664H63.3266V126.883L66.3263 122.664H66.9485ZM69.9839 128.127V122.664H72.235C72.3496 122.664 72.4879 122.671 72.6497 122.685C72.815 122.698 72.9684 122.723 73.1101 122.76C73.417 122.841 73.6631 123.007 73.8486 123.256C74.0375 123.506 74.1319 123.806 74.1319 124.157C74.1319 124.352 74.1015 124.527 74.0408 124.683C73.9835 124.834 73.9009 124.966 73.793 125.077C73.7424 125.134 73.6867 125.185 73.626 125.229C73.5653 125.269 73.5063 125.303 73.449 125.33C73.5569 125.35 73.6733 125.398 73.798 125.472C73.9936 125.586 74.142 125.742 74.2432 125.937C74.3443 126.129 74.3949 126.364 74.3949 126.64C74.3949 127.015 74.3056 127.32 74.1268 127.556C73.9481 127.792 73.7087 127.954 73.4085 128.041C73.2736 128.079 73.1269 128.102 72.9684 128.112C72.8133 128.122 72.6666 128.127 72.5283 128.127H69.9839ZM70.7326 127.495H72.4929C72.5638 127.495 72.6531 127.49 72.761 127.48C72.8689 127.466 72.9651 127.45 73.0494 127.429C73.2483 127.379 73.3933 127.278 73.4844 127.126C73.5788 126.971 73.626 126.802 73.626 126.62C73.626 126.381 73.5552 126.185 73.4136 126.033C73.2753 125.878 73.0898 125.784 72.8571 125.75C72.7796 125.733 72.6986 125.723 72.6143 125.72C72.53 125.716 72.4542 125.715 72.3867 125.715H70.7326V127.495ZM70.7326 125.077H72.2602C72.3479 125.077 72.4457 125.072 72.5536 125.062C72.6649 125.049 72.761 125.027 72.842 124.996C73.0173 124.936 73.1455 124.831 73.2264 124.683C73.3107 124.534 73.3529 124.372 73.3529 124.197C73.3529 124.005 73.3074 123.836 73.2163 123.691C73.1286 123.546 72.9954 123.445 72.8167 123.388C72.6953 123.344 72.5638 123.319 72.4221 123.312C72.2839 123.305 72.1962 123.302 72.1591 123.302H70.7326V125.077ZM75.302 121.627V120.793H76.0456V121.627H75.302ZM75.302 128.127V122.664H76.0456V128.127H75.302ZM76.9551 129.341V127.49C77.2653 127.49 77.4879 127.391 77.6228 127.192C77.7577 126.989 77.8673 126.667 77.9516 126.225C78.0089 125.939 78.0561 125.63 78.0932 125.3C78.1303 124.969 78.1624 124.592 78.1893 124.167C78.2163 123.738 78.2416 123.238 78.2652 122.664H81.877V127.49H82.4031V129.341H81.6848V128.127H77.6683V129.341H76.9551ZM78.2146 127.49H81.1384V123.302H78.9532C78.9431 123.558 78.9279 123.829 78.9077 124.116C78.8908 124.403 78.8689 124.689 78.8419 124.976C78.8183 125.263 78.7896 125.532 78.7559 125.785C78.7255 126.035 78.6885 126.254 78.6446 126.443C78.594 126.686 78.5384 126.893 78.4777 127.065C78.4204 127.237 78.3327 127.379 78.2146 127.49ZM83.2087 128.127V122.664H87.554V128.127H86.8104V123.378H83.9523V128.127H83.2087ZM91.2248 128.279C90.7223 128.279 90.2974 128.153 89.95 127.9C89.6027 127.644 89.3396 127.298 89.1609 126.863C88.9822 126.424 88.8928 125.934 88.8928 125.391C88.8928 124.838 88.9822 124.345 89.1609 123.914C89.343 123.479 89.6094 123.136 89.9601 122.887C90.3109 122.637 90.7425 122.513 91.2551 122.513C91.7542 122.513 92.1825 122.639 92.54 122.892C92.8974 123.145 93.1706 123.489 93.3595 123.924C93.5517 124.359 93.6478 124.848 93.6478 125.391C93.6478 125.937 93.5517 126.428 93.3595 126.863C93.1672 127.298 92.8907 127.644 92.5299 127.9C92.169 128.153 91.734 128.279 91.2248 128.279ZM88.7663 130.556V122.664H89.4341V126.777H89.515V130.556H88.7663ZM91.1489 127.586C91.53 127.586 91.847 127.49 92.0999 127.298C92.3528 127.106 92.5417 126.844 92.6664 126.514C92.7946 126.18 92.8587 125.806 92.8587 125.391C92.8587 124.979 92.7963 124.608 92.6715 124.278C92.5467 123.947 92.3562 123.686 92.0999 123.494C91.847 123.302 91.5249 123.206 91.1337 123.206C90.7526 123.206 90.4356 123.298 90.1827 123.484C89.9332 123.669 89.746 123.927 89.6212 124.258C89.4964 124.585 89.4341 124.963 89.4341 125.391C89.4341 125.812 89.4964 126.19 89.6212 126.524C89.746 126.854 89.9349 127.114 90.1878 127.303C90.4407 127.492 90.7611 127.586 91.1489 127.586ZM96.1193 128.279C95.7079 128.279 95.3622 128.205 95.0823 128.057C94.8058 127.908 94.5984 127.711 94.4601 127.465C94.3219 127.219 94.2527 126.95 94.2527 126.66C94.2527 126.364 94.3118 126.111 94.4298 125.902C94.5512 125.689 94.7148 125.516 94.9205 125.381C95.1296 125.246 95.3707 125.143 95.6438 125.072C95.9204 125.005 96.2256 124.946 96.5594 124.895C96.8967 124.841 97.2255 124.796 97.5458 124.758C97.8696 124.718 98.1528 124.679 98.3957 124.642L98.1326 124.804C98.1427 124.264 98.0382 123.865 97.819 123.605C97.5998 123.345 97.2187 123.216 96.6758 123.216C96.3014 123.216 95.9844 123.3 95.7248 123.469C95.4685 123.637 95.2881 123.904 95.1835 124.268L94.4601 124.055C94.5849 123.566 94.8362 123.187 95.2139 122.917C95.5916 122.647 96.0822 122.513 96.6859 122.513C97.185 122.513 97.6082 122.607 97.9556 122.796C98.3063 122.981 98.5542 123.251 98.6992 123.605C98.7666 123.764 98.8104 123.941 98.8307 124.136C98.8509 124.332 98.861 124.531 98.861 124.733V128.127H98.1984V126.757L98.3906 126.838C98.2051 127.306 97.9168 127.664 97.5256 127.91C97.1344 128.156 96.6656 128.279 96.1193 128.279ZM96.2053 127.637C96.5527 127.637 96.8562 127.574 97.1159 127.45C97.3755 127.325 97.5846 127.155 97.7431 126.939C97.9016 126.719 98.0045 126.473 98.0517 126.2C98.0921 126.025 98.1141 125.833 98.1174 125.623C98.1208 125.411 98.1225 125.253 98.1225 125.148L98.4058 125.295C98.1528 125.328 97.878 125.362 97.5812 125.396C97.2878 125.43 96.9978 125.468 96.7112 125.512C96.4279 125.556 96.1716 125.608 95.9423 125.669C95.7872 125.713 95.6371 125.775 95.4921 125.856C95.3471 125.934 95.2274 126.038 95.1329 126.17C95.0419 126.301 94.9963 126.465 94.9963 126.66C94.9963 126.819 95.0351 126.972 95.1127 127.121C95.1936 127.269 95.3218 127.392 95.4971 127.49C95.6759 127.588 95.9119 127.637 96.2053 127.637ZM99.9705 128.127V122.664H102.222C102.336 122.664 102.474 122.671 102.636 122.685C102.802 122.698 102.955 122.723 103.097 122.76C103.404 122.841 103.65 123.007 103.835 123.256C104.024 123.506 104.118 123.806 104.118 124.157C104.118 124.352 104.088 124.527 104.027 124.683C103.97 124.834 103.887 124.966 103.78 125.077C103.729 125.134 103.673 125.185 103.613 125.229C103.552 125.269 103.493 125.303 103.436 125.33C103.543 125.35 103.66 125.398 103.785 125.472C103.98 125.586 104.129 125.742 104.23 125.937C104.331 126.129 104.382 126.364 104.382 126.64C104.382 127.015 104.292 127.32 104.113 127.556C103.935 127.792 103.695 127.954 103.395 128.041C103.26 128.079 103.114 128.102 102.955 128.112C102.8 128.122 102.653 128.127 102.515 128.127H99.9705ZM100.719 127.495H102.48C102.55 127.495 102.64 127.49 102.748 127.48C102.856 127.466 102.952 127.45 103.036 127.429C103.235 127.379 103.38 127.278 103.471 127.126C103.565 126.971 103.613 126.802 103.613 126.62C103.613 126.381 103.542 126.185 103.4 126.033C103.262 125.878 103.076 125.784 102.844 125.75C102.766 125.733 102.685 125.723 102.601 125.72C102.517 125.716 102.441 125.715 102.373 125.715H100.719V127.495ZM100.719 125.077H102.247C102.335 125.077 102.432 125.072 102.54 125.062C102.652 125.049 102.748 125.027 102.829 124.996C103.004 124.936 103.132 124.831 103.213 124.683C103.297 124.534 103.339 124.372 103.339 124.197C103.339 124.005 103.294 123.836 103.203 123.691C103.115 123.546 102.982 123.445 102.803 123.388C102.682 123.344 102.55 123.319 102.409 123.312C102.27 123.305 102.183 123.302 102.146 123.302H100.719V125.077ZM109.528 122.664V128.127H108.804V123.873L105.81 128.127H105.182V122.664H105.906V126.883L108.905 122.664H109.528ZM110.74 128.127V122.664H111.403L113.532 127.136L115.667 122.664H116.325V128.127H115.606V124.253L113.77 128.127H113.3L111.463 124.253V128.127H110.74ZM119.819 128.279C119.276 128.279 118.812 128.156 118.428 127.91C118.043 127.664 117.748 127.323 117.543 126.888C117.337 126.453 117.234 125.954 117.234 125.391C117.234 124.818 117.339 124.315 117.548 123.883C117.757 123.452 118.054 123.116 118.438 122.877C118.826 122.634 119.286 122.513 119.819 122.513C120.365 122.513 120.831 122.636 121.215 122.882C121.603 123.125 121.898 123.464 122.1 123.899C122.306 124.33 122.409 124.828 122.409 125.391C122.409 125.964 122.306 126.468 122.1 126.903C121.895 127.335 121.598 127.672 121.21 127.915C120.822 128.158 120.359 128.279 119.819 128.279ZM119.819 127.566C120.426 127.566 120.878 127.365 121.175 126.964C121.471 126.559 121.62 126.035 121.62 125.391C121.62 124.73 121.47 124.204 121.17 123.813C120.873 123.421 120.423 123.226 119.819 123.226C119.411 123.226 119.074 123.319 118.807 123.504C118.544 123.686 118.347 123.941 118.215 124.268C118.087 124.592 118.023 124.966 118.023 125.391C118.023 126.048 118.175 126.576 118.479 126.974C118.782 127.369 119.229 127.566 119.819 127.566ZM129.84 129.073V128.127H125.14V122.664H125.884V127.414H128.742V122.664H129.486V127.439H130.583V129.073H129.84ZM133.499 128.279C132.966 128.279 132.504 128.161 132.113 127.925C131.725 127.689 131.423 127.357 131.207 126.929C130.992 126.5 130.884 125.998 130.884 125.421C130.884 124.824 130.99 124.308 131.202 123.873C131.415 123.438 131.713 123.103 132.098 122.867C132.486 122.631 132.943 122.513 133.469 122.513C134.008 122.513 134.469 122.637 134.85 122.887C135.231 123.133 135.519 123.487 135.715 123.949C135.91 124.411 136 124.963 135.983 125.603H135.224V125.34C135.21 124.632 135.057 124.098 134.764 123.737C134.474 123.376 134.049 123.195 133.489 123.195C132.902 123.195 132.452 123.386 132.138 123.767C131.828 124.148 131.673 124.691 131.673 125.396C131.673 126.084 131.828 126.618 132.138 126.999C132.452 127.377 132.895 127.566 133.469 127.566C133.86 127.566 134.2 127.477 134.49 127.298C134.784 127.116 135.015 126.854 135.183 126.514L135.876 126.782C135.661 127.257 135.342 127.627 134.92 127.89C134.502 128.149 134.028 128.279 133.499 128.279ZM131.41 125.603V124.981H135.583V125.603H131.41ZM139.169 122.017C138.93 122.017 138.711 121.958 138.512 121.84C138.313 121.722 138.154 121.565 138.036 121.369C137.921 121.17 137.864 120.951 137.864 120.712H138.481C138.481 120.901 138.549 121.062 138.684 121.197C138.818 121.332 138.98 121.4 139.169 121.4C139.361 121.4 139.523 121.332 139.655 121.197C139.79 121.062 139.857 120.901 139.857 120.712H140.474C140.474 120.951 140.415 121.17 140.297 121.369C140.183 121.565 140.026 121.722 139.827 121.84C139.628 121.958 139.409 122.017 139.169 122.017ZM141.243 122.664V128.127H140.52V123.873L137.525 128.127H136.898V122.664H137.621V126.883L140.621 122.664H141.243ZM144.385 121.627V120.793H145.128V121.627H144.385ZM144.385 128.127V122.664H145.128V128.127H144.385ZM146.438 128.127V122.664H147.1L149.23 127.136L151.364 122.664H152.022V128.127H151.304V124.253L149.468 128.127H148.997L147.161 124.253V128.127H146.438ZM155.547 128.279C155.014 128.279 154.552 128.161 154.161 127.925C153.773 127.689 153.471 127.357 153.255 126.929C153.04 126.5 152.932 125.998 152.932 125.421C152.932 124.824 153.038 124.308 153.25 123.873C153.463 123.438 153.761 123.103 154.146 122.867C154.534 122.631 154.99 122.513 155.517 122.513C156.056 122.513 156.516 122.637 156.898 122.887C157.279 123.133 157.567 123.487 157.763 123.949C157.958 124.411 158.047 124.963 158.031 125.603H157.272V125.34C157.258 124.632 157.105 124.098 156.812 123.737C156.522 123.376 156.097 123.195 155.537 123.195C154.95 123.195 154.5 123.386 154.186 123.767C153.876 124.148 153.721 124.691 153.721 125.396C153.721 126.084 153.876 126.618 154.186 126.999C154.5 127.377 154.943 127.566 155.517 127.566C155.908 127.566 156.248 127.477 156.538 127.298C156.832 127.116 157.063 126.854 157.231 126.514L157.924 126.782C157.709 127.257 157.39 127.627 156.968 127.89C156.55 128.149 156.076 128.279 155.547 128.279ZM153.458 125.603V124.981H157.631V125.603H153.458ZM161.217 122.017C160.978 122.017 160.758 121.958 160.559 121.84C160.36 121.722 160.202 121.565 160.084 121.369C159.969 121.17 159.912 120.951 159.912 120.712H160.529C160.529 120.901 160.597 121.062 160.731 121.197C160.866 121.332 161.028 121.4 161.217 121.4C161.409 121.4 161.571 121.332 161.703 121.197C161.838 121.062 161.905 120.901 161.905 120.712H162.522C162.522 120.951 162.463 121.17 162.345 121.369C162.23 121.565 162.074 121.722 161.875 121.84C161.676 121.958 161.457 122.017 161.217 122.017ZM163.291 122.664V128.127H162.568V123.873L159.573 128.127H158.946V122.664H159.669V126.883L162.669 122.664H163.291ZM164.003 128.127V127.475C164.205 127.512 164.358 127.504 164.463 127.45C164.571 127.392 164.65 127.298 164.701 127.166C164.751 127.031 164.793 126.865 164.827 126.666C164.881 126.335 164.93 125.971 164.974 125.573C165.018 125.175 165.057 124.737 165.09 124.258C165.127 123.775 165.164 123.244 165.202 122.664H168.914V128.127H168.176V123.378H165.889C165.866 123.735 165.839 124.091 165.809 124.445C165.778 124.799 165.746 125.14 165.712 125.467C165.682 125.79 165.648 126.089 165.611 126.362C165.574 126.635 165.535 126.871 165.495 127.07C165.434 127.37 165.353 127.61 165.252 127.789C165.154 127.967 165.008 128.085 164.812 128.143C164.616 128.2 164.347 128.195 164.003 128.127Z" fill="#668099"/>
<rect x="91.3735" y="35.5054" width="40.4679" height="40.4679" rx="7.35781" fill="#D3D3D3"/>
<rect x="91.3735" y="35.5054" width="40.4679" height="40.4679" rx="7.35781" fill="url(#paint0_linear_698_37696)"/>
<path d="M119.701 51.6002L111.608 56.7737L103.514 51.6002V49.5308L111.608 54.7043L119.701 49.5308M119.701 47.4614H103.514C102.391 47.4614 101.491 48.3823 101.491 49.5308V61.9471C101.491 62.4959 101.704 63.0223 102.083 63.4104C102.463 63.7985 102.977 64.0165 103.514 64.0165H119.701C120.238 64.0165 120.753 63.7985 121.132 63.4104C121.512 63.0223 121.725 62.4959 121.725 61.9471V49.5308C121.725 48.982 121.512 48.4556 121.132 48.0675C120.753 47.6794 120.238 47.4614 119.701 47.4614Z" fill="white"/>
</g>
<rect x="4.45986" y="2.85537" width="214.296" height="168.31" rx="17.0149" stroke="#E7E8EC" stroke-width="0.919726"/>
</g>
<defs>
<filter id="filter0_dddd_698_37696" x="0.321096" y="0.556056" width="234.53" height="199.58" filterUnits="userSpaceOnUse" color-interpolation-filters="sRGB">
<feFlood flood-opacity="0" result="BackgroundImageFix"/>
<feColorMatrix in="SourceAlpha" type="matrix" values="0 0 0 0 0 0 0 0 0 0 0 0 0 0 0 0 0 0 127 0" result="hardAlpha"/>
<feOffset dy="0.919726"/>
<feGaussianBlur stdDeviation="1.37959"/>
<feColorMatrix type="matrix" values="0 0 0 0 0.1375 0 0 0 0 0.145208 0 0 0 0 0.15 0 0 0 0.05 0"/>
<feBlend mode="normal" in2="BackgroundImageFix" result="effect1_dropShadow_698_37696"/>
<feColorMatrix in="SourceAlpha" type="matrix" values="0 0 0 0 0 0 0 0 0 0 0 0 0 0 0 0 0 0 127 0" result="hardAlpha"/>
<feOffset dx="1.83945" dy="4.59863"/>
<feGaussianBlur stdDeviation="2.75918"/>
<feColorMatrix type="matrix" values="0 0 0 0 0.137255 0 0 0 0 0.145098 0 0 0 0 0.14902 0 0 0 0.04 0"/>
<feBlend mode="normal" in2="effect1_dropShadow_698_37696" result="effect2_dropShadow_698_37696"/>
<feColorMatrix in="SourceAlpha" type="matrix" values="0 0 0 0 0 0 0 0 0 0 0 0 0 0 0 0 0 0 127 0" result="hardAlpha"/>
<feOffset dx="3.6789" dy="11.0367"/>
<feGaussianBlur stdDeviation="3.6789"/>
<feColorMatrix type="matrix" values="0 0 0 0 0.137255 0 0 0 0 0.145098 0 0 0 0 0.14902 0 0 0 0.03 0"/>
<feBlend mode="normal" in2="effect2_dropShadow_698_37696" result="effect3_dropShadow_698_37696"/>
<feColorMatrix in="SourceAlpha" type="matrix" values="0 0 0 0 0 0 0 0 0 0 0 0 0 0 0 0 0 0 127 0" result="hardAlpha"/>
<feOffset dx="7.35781" dy="20.234"/>
<feGaussianBlur stdDeviation="4.13877"/>
<feColorMatrix type="matrix" values="0 0 0 0 0.137255 0 0 0 0 0.145098 0 0 0 0 0.14902 0 0 0 0.01 0"/>
<feBlend mode="normal" in2="effect3_dropShadow_698_37696" result="effect4_dropShadow_698_37696"/>
<feBlend mode="normal" in="SourceGraphic" in2="effect4_dropShadow_698_37696" result="shape"/>
</filter>
<linearGradient id="paint0_linear_698_37696" x1="131.841" y1="37.8047" x2="10.8909" y2="69.8503" gradientUnits="userSpaceOnUse">
<stop stop-color="#F04259"/>
<stop offset="1" stop-color="#8B2735"/>
</linearGradient>
<clipPath id="clip0_698_37696">
<rect x="4" y="2.39551" width="215.216" height="169.23" rx="17.4748" fill="white"/>
</clipPath>
</defs>
</svg>
