<svg width="32" height="32" viewBox="0 0 32 32" fill="none" xmlns="http://www.w3.org/2000/svg">
<g clip-path="url(#clip0_698_38582)">
<path opacity="0.3" d="M17.56 5.33325L24 11.7733V26.6666H8V5.33325H17.56ZM16 18.6666C17.4667 18.6666 18.6667 17.4666 18.6667 15.9999C18.6667 14.5333 17.4667 13.3333 16 13.3333C14.5333 13.3333 13.3333 14.5333 13.3333 15.9999C13.3333 17.4666 14.5333 18.6666 16 18.6666ZM21.3333 23.2399C21.3333 22.1599 20.6933 21.1999 19.7067 20.7733C18.5733 20.2799 17.32 19.9999 16 19.9999C14.68 19.9999 13.4267 20.2799 12.2933 20.7733C11.3067 21.1999 10.6667 22.1599 10.6667 23.2399V23.9999H21.3333V23.2399Z" fill="#F04259"/>
<path d="M17.5602 5.33341L24.0002 11.7734V26.6667H8.00016V5.33341H17.5602ZM18.6668 2.66675H8.00016C6.5335 2.66675 5.3335 3.86675 5.3335 5.33341V26.6667C5.3335 28.1334 6.5335 29.3334 8.00016 29.3334H24.0002C25.4668 29.3334 26.6668 28.1334 26.6668 26.6667V10.6667L18.6668 2.66675ZM16.0002 18.6667C17.4668 18.6667 18.6668 17.4667 18.6668 16.0001C18.6668 14.5334 17.4668 13.3334 16.0002 13.3334C14.5335 13.3334 13.3335 14.5334 13.3335 16.0001C13.3335 17.4667 14.5335 18.6667 16.0002 18.6667ZM21.3335 23.2401C21.3335 22.1601 20.6935 21.2001 19.7068 20.7734C18.5735 20.2801 17.3202 20.0001 16.0002 20.0001C14.6802 20.0001 13.4268 20.2801 12.2935 20.7734C11.3068 21.2001 10.6668 22.1601 10.6668 23.2401V24.0001H21.3335V23.2401Z" fill="#F04259"/>
</g>
<defs>
<clipPath id="clip0_698_38582">
<rect width="32" height="32" fill="white"/>
</clipPath>
</defs>
</svg>
