<svg width="313" height="341" viewBox="0 0 313 341" fill="none" xmlns="http://www.w3.org/2000/svg">
<g clip-path="url(#clip0_698_38819)">
<rect width="313" height="376" rx="13.8339" fill="white"/>
<path d="M78 77.4984C78 75.4449 79.6647 73.7803 81.7181 73.7803H291.906C296.013 73.7803 299.342 77.1096 299.342 81.2166V129.498C299.342 133.605 296.013 136.935 291.906 136.935H81.7182C79.6647 136.935 78 135.27 78 133.217V77.4984Z" fill="#DCE1F8"/>
<path d="M86.7639 91.4983C86.6771 91.4983 86.6034 91.4679 86.5427 91.4072C86.4819 91.3465 86.4516 91.2727 86.4516 91.186V82.7142C86.4516 82.6187 86.4819 82.5407 86.5427 82.4799C86.6034 82.4192 86.6771 82.3888 86.7639 82.3888H90.5378C91.2406 82.3888 91.8131 82.4973 92.2556 82.7142C92.6981 82.9224 93.0234 83.213 93.2316 83.5861C93.4485 83.9591 93.557 84.3929 93.557 84.8874C93.557 85.2171 93.4962 85.5077 93.3748 85.7593C93.262 86.0022 93.1188 86.2018 92.9453 86.358C92.7805 86.5141 92.6156 86.6356 92.4508 86.7223C92.7892 86.8785 93.0885 87.1388 93.3487 87.5031C93.609 87.8675 93.7391 88.3013 93.7391 88.8045C93.7391 89.325 93.622 89.7892 93.3878 90.1969C93.1535 90.6047 92.8065 90.9257 92.3467 91.1599C91.8869 91.3855 91.3186 91.4983 90.6419 91.4983H86.7639ZM88.2605 90.1189H90.4337C90.9022 90.1189 91.2579 89.9931 91.5008 89.7415C91.7437 89.4812 91.8652 89.1689 91.8652 88.8045C91.8652 88.4228 91.7394 88.1061 91.4878 87.8545C91.2449 87.6029 90.8935 87.4771 90.4337 87.4771H88.2605V90.1189ZM88.2605 86.1237H90.3036C90.7634 86.1237 91.1061 86.0153 91.3316 85.7984C91.5659 85.5728 91.683 85.2822 91.683 84.9265C91.683 84.5621 91.5659 84.2801 91.3316 84.0806C91.1061 83.8724 90.7634 83.7683 90.3036 83.7683H88.2605V86.1237ZM95.6091 91.4983C95.531 91.4983 95.4616 91.4679 95.4008 91.4072C95.3401 91.3465 95.3097 91.2771 95.3097 91.199V85.0436C95.3097 84.9568 95.3401 84.8831 95.4008 84.8224C95.4616 84.7616 95.5353 84.7313 95.6221 84.7313H96.7022C96.7976 84.7313 96.8714 84.7616 96.9234 84.8224C96.9842 84.8831 97.0145 84.9568 97.0145 85.0436V90.1839L96.559 89.8586L100.138 84.9395C100.181 84.8787 100.229 84.831 100.281 84.7963C100.333 84.753 100.402 84.7313 100.489 84.7313H101.478C101.556 84.7313 101.626 84.7616 101.686 84.8224C101.747 84.8744 101.777 84.9395 101.777 85.0176V91.186C101.777 91.2727 101.747 91.3465 101.686 91.4072C101.626 91.4679 101.552 91.4983 101.465 91.4983H100.385C100.29 91.4983 100.212 91.4679 100.151 91.4072C100.099 91.3465 100.073 91.2727 100.073 91.186V86.2799L100.554 86.3449L96.9494 91.2901C96.9147 91.3421 96.867 91.3898 96.8063 91.4332C96.7542 91.4766 96.6848 91.4983 96.5981 91.4983H95.6091Z" fill="#0288D1"/>
<path d="M86.0351 111.307C85.9484 111.307 85.8746 111.281 85.8139 111.229C85.7619 111.177 85.7358 111.104 85.7358 111.008V108.627C85.7358 108.54 85.7619 108.47 85.8139 108.418C85.8746 108.358 85.9484 108.327 86.0351 108.327H86.3084C86.5166 108.327 86.6988 108.232 86.855 108.041C87.0112 107.85 87.1413 107.56 87.2454 107.169C87.3582 106.77 87.4406 106.267 87.4927 105.66C87.5447 105.052 87.5707 104.332 87.5707 103.499V100.688C87.5707 100.602 87.5968 100.532 87.6488 100.48C87.7096 100.419 87.7833 100.389 87.8701 100.389H92.9453C93.0408 100.389 93.1145 100.419 93.1666 100.48C93.2273 100.532 93.2576 100.606 93.2576 100.701V108.327H93.8953C93.9907 108.327 94.0645 108.358 94.1165 108.418C94.1773 108.47 94.2076 108.54 94.2076 108.627V111.008C94.2076 111.095 94.1773 111.164 94.1165 111.216C94.0645 111.277 93.9907 111.307 93.8953 111.307H93.2316C93.1362 111.307 93.0624 111.277 93.0104 111.216C92.9583 111.164 92.9323 111.095 92.9323 111.008V109.499H87.0112V111.008C87.0112 111.095 86.9808 111.164 86.9201 111.216C86.868 111.277 86.7943 111.307 86.6988 111.307H86.0351ZM87.9742 108.327H91.9823V101.56H88.82V103.655C88.82 104.887 88.7463 105.881 88.5988 106.636C88.46 107.39 88.2518 107.954 87.9742 108.327ZM98.5431 109.629C97.8837 109.629 97.3328 109.503 96.8904 109.251C96.4479 109 96.1096 108.653 95.8753 108.21C95.6411 107.759 95.5109 107.247 95.4849 106.675C95.4762 106.527 95.4719 106.341 95.4719 106.115C95.4719 105.881 95.4762 105.694 95.4849 105.555C95.5109 104.974 95.6411 104.462 95.8753 104.02C96.1182 103.577 96.4609 103.23 96.9034 102.979C97.3459 102.727 97.8924 102.601 98.5431 102.601C99.1938 102.601 99.7403 102.727 100.183 102.979C100.625 103.23 100.964 103.577 101.198 104.02C101.441 104.462 101.575 104.974 101.601 105.555C101.61 105.694 101.614 105.881 101.614 106.115C101.614 106.341 101.61 106.527 101.601 106.675C101.575 107.247 101.445 107.759 101.211 108.21C100.977 108.653 100.638 109 100.196 109.251C99.7534 109.503 99.2024 109.629 98.5431 109.629ZM98.5431 108.627C99.081 108.627 99.5104 108.457 99.8314 108.119C100.152 107.772 100.326 107.269 100.352 106.61C100.361 106.479 100.365 106.315 100.365 106.115C100.365 105.915 100.361 105.751 100.352 105.621C100.326 104.961 100.152 104.462 99.8314 104.124C99.5104 103.777 99.081 103.603 98.5431 103.603C98.0052 103.603 97.5714 103.777 97.2417 104.124C96.9207 104.462 96.7516 104.961 96.7342 105.621C96.7255 105.751 96.7212 105.915 96.7212 106.115C96.7212 106.315 96.7255 106.479 96.7342 106.61C96.7516 107.269 96.9207 107.772 97.2417 108.119C97.5714 108.457 98.0052 108.627 98.5431 108.627ZM106.265 109.629C105.597 109.629 105.037 109.503 104.586 109.251C104.144 108.991 103.805 108.627 103.571 108.158C103.345 107.681 103.224 107.13 103.207 106.505C103.198 106.245 103.194 105.985 103.194 105.725C103.194 105.464 103.198 105.204 103.207 104.944C103.207 104.154 103.272 103.499 103.402 102.979C103.532 102.458 103.727 102.033 103.987 101.703C104.256 101.365 104.595 101.087 105.003 100.871C105.41 100.654 105.892 100.467 106.447 100.311C107.002 100.146 107.636 99.9726 108.347 99.7905C108.425 99.7731 108.499 99.7861 108.568 99.8295C108.646 99.8729 108.69 99.9336 108.698 100.012L108.802 100.545C108.82 100.623 108.807 100.693 108.763 100.753C108.729 100.814 108.672 100.853 108.594 100.871C107.944 101.035 107.375 101.179 106.889 101.3C106.404 101.421 105.996 101.565 105.666 101.729C105.337 101.886 105.072 102.09 104.872 102.341C104.673 102.593 104.534 102.927 104.456 103.343C104.387 103.76 104.365 104.293 104.391 104.944L104.105 104.827C104.148 104.506 104.282 104.215 104.508 103.955C104.742 103.686 105.033 103.469 105.38 103.304C105.727 103.139 106.096 103.057 106.486 103.057C107.085 103.057 107.588 103.183 107.996 103.434C108.412 103.686 108.729 104.029 108.946 104.462C109.171 104.896 109.297 105.395 109.323 105.959C109.34 106.254 109.34 106.51 109.323 106.727C109.297 107.291 109.167 107.794 108.933 108.236C108.698 108.67 108.36 109.013 107.918 109.264C107.475 109.507 106.924 109.629 106.265 109.629ZM106.265 108.666C106.811 108.666 107.245 108.496 107.566 108.158C107.887 107.82 108.056 107.325 108.074 106.675C108.082 106.588 108.087 106.488 108.087 106.375C108.087 106.263 108.082 106.145 108.074 106.024C108.056 105.365 107.887 104.866 107.566 104.527C107.254 104.189 106.859 104.02 106.382 104.02C105.835 104.02 105.384 104.189 105.029 104.527C104.673 104.866 104.482 105.365 104.456 106.024C104.447 106.145 104.443 106.263 104.443 106.375C104.443 106.488 104.447 106.588 104.456 106.675C104.482 107.325 104.655 107.82 104.976 108.158C105.297 108.496 105.727 108.666 106.265 108.666ZM111.434 111.971C111.347 111.971 111.273 111.941 111.213 111.88C111.16 111.828 111.134 111.759 111.134 111.672V103.031C111.134 102.944 111.16 102.875 111.213 102.823C111.273 102.762 111.347 102.732 111.434 102.732H112.032C112.119 102.732 112.189 102.762 112.241 102.823C112.301 102.875 112.332 102.944 112.332 103.031V103.603C112.54 103.317 112.818 103.079 113.165 102.888C113.512 102.697 113.945 102.601 114.466 102.601C114.952 102.601 115.364 102.684 115.702 102.849C116.049 103.013 116.331 103.239 116.548 103.525C116.774 103.812 116.943 104.137 117.056 104.501C117.168 104.866 117.229 105.256 117.238 105.673C117.246 105.811 117.251 105.959 117.251 106.115C117.251 106.271 117.246 106.419 117.238 106.557C117.229 106.965 117.168 107.356 117.056 107.729C116.943 108.093 116.774 108.418 116.548 108.705C116.331 108.982 116.049 109.208 115.702 109.381C115.364 109.546 114.952 109.629 114.466 109.629C113.963 109.629 113.538 109.538 113.191 109.355C112.852 109.165 112.575 108.93 112.358 108.653V111.672C112.358 111.759 112.332 111.828 112.28 111.88C112.228 111.941 112.154 111.971 112.058 111.971H111.434ZM114.193 108.575C114.644 108.575 114.995 108.479 115.247 108.288C115.507 108.089 115.694 107.833 115.806 107.52C115.919 107.199 115.984 106.857 116.001 106.492C116.01 106.241 116.01 105.989 116.001 105.738C115.984 105.373 115.919 105.035 115.806 104.723C115.694 104.402 115.507 104.146 115.247 103.955C114.995 103.755 114.644 103.655 114.193 103.655C113.768 103.655 113.42 103.755 113.152 103.955C112.891 104.154 112.696 104.41 112.566 104.723C112.444 105.026 112.375 105.339 112.358 105.66C112.349 105.798 112.345 105.963 112.345 106.154C112.345 106.345 112.349 106.514 112.358 106.662C112.366 106.965 112.436 107.265 112.566 107.56C112.705 107.854 112.909 108.097 113.178 108.288C113.447 108.479 113.785 108.575 114.193 108.575ZM121.804 109.629C121.144 109.629 120.593 109.503 120.151 109.251C119.708 109 119.37 108.653 119.136 108.21C118.902 107.759 118.771 107.247 118.745 106.675C118.737 106.527 118.732 106.341 118.732 106.115C118.732 105.881 118.737 105.694 118.745 105.555C118.771 104.974 118.902 104.462 119.136 104.02C119.379 103.577 119.721 103.23 120.164 102.979C120.606 102.727 121.153 102.601 121.804 102.601C122.454 102.601 123.001 102.727 123.443 102.979C123.886 103.23 124.224 103.577 124.458 104.02C124.701 104.462 124.836 104.974 124.862 105.555C124.87 105.694 124.875 105.881 124.875 106.115C124.875 106.341 124.87 106.527 124.862 106.675C124.836 107.247 124.706 107.759 124.471 108.21C124.237 108.653 123.899 109 123.456 109.251C123.014 109.503 122.463 109.629 121.804 109.629ZM121.804 108.627C122.341 108.627 122.771 108.457 123.092 108.119C123.413 107.772 123.586 107.269 123.612 106.61C123.621 106.479 123.625 106.315 123.625 106.115C123.625 105.915 123.621 105.751 123.612 105.621C123.586 104.961 123.413 104.462 123.092 104.124C122.771 103.777 122.341 103.603 121.804 103.603C121.266 103.603 120.832 103.777 120.502 104.124C120.181 104.462 120.012 104.961 119.995 105.621C119.986 105.751 119.982 105.915 119.982 106.115C119.982 106.315 119.986 106.479 119.995 106.61C120.012 107.269 120.181 107.772 120.502 108.119C120.832 108.457 121.266 108.627 121.804 108.627ZM126.962 109.499C126.875 109.499 126.801 109.473 126.74 109.42C126.688 109.36 126.662 109.286 126.662 109.199V103.031C126.662 102.944 126.688 102.875 126.74 102.823C126.801 102.762 126.875 102.732 126.962 102.732H130.853C130.939 102.732 131.009 102.762 131.061 102.823C131.113 102.875 131.139 102.944 131.139 103.031V103.473C131.139 103.56 131.113 103.634 131.061 103.695C131.009 103.747 130.939 103.773 130.853 103.773H127.873V109.199C127.873 109.286 127.847 109.36 127.794 109.42C127.742 109.473 127.673 109.499 127.586 109.499H126.962ZM135.044 109.629C134.385 109.629 133.834 109.503 133.391 109.251C132.949 109 132.611 108.653 132.376 108.21C132.142 107.759 132.012 107.247 131.986 106.675C131.977 106.527 131.973 106.341 131.973 106.115C131.973 105.881 131.977 105.694 131.986 105.555C132.012 104.974 132.142 104.462 132.376 104.02C132.619 103.577 132.962 103.23 133.404 102.979C133.847 102.727 134.393 102.601 135.044 102.601C135.695 102.601 136.241 102.727 136.684 102.979C137.126 103.23 137.465 103.577 137.699 104.02C137.942 104.462 138.076 104.974 138.102 105.555C138.111 105.694 138.115 105.881 138.115 106.115C138.115 106.341 138.111 106.527 138.102 106.675C138.076 107.247 137.946 107.759 137.712 108.21C137.478 108.653 137.139 109 136.697 109.251C136.254 109.503 135.703 109.629 135.044 109.629ZM135.044 108.627C135.582 108.627 136.011 108.457 136.332 108.119C136.653 107.772 136.827 107.269 136.853 106.61C136.862 106.479 136.866 106.315 136.866 106.115C136.866 105.915 136.862 105.751 136.853 105.621C136.827 104.961 136.653 104.462 136.332 104.124C136.011 103.777 135.582 103.603 135.044 103.603C134.506 103.603 134.072 103.777 133.743 104.124C133.422 104.462 133.253 104.961 133.235 105.621C133.227 105.751 133.222 105.915 133.222 106.115C133.222 106.315 133.227 106.479 133.235 106.61C133.253 107.269 133.422 107.772 133.743 108.119C134.072 108.457 134.506 108.627 135.044 108.627ZM142.86 110.93C142.774 110.93 142.7 110.9 142.639 110.839C142.587 110.787 142.561 110.717 142.561 110.631V108.757C142.561 108.67 142.587 108.601 142.639 108.549C142.7 108.488 142.774 108.457 142.86 108.457H142.925C143.16 108.449 143.359 108.319 143.524 108.067C143.689 107.807 143.815 107.403 143.901 106.857C143.988 106.302 144.032 105.581 144.032 104.697V103.031C144.032 102.944 144.058 102.875 144.11 102.823C144.17 102.762 144.244 102.732 144.331 102.732H148.482C148.569 102.732 148.638 102.762 148.69 102.823C148.751 102.875 148.781 102.944 148.781 103.031V108.431H149.393C149.489 108.431 149.562 108.462 149.614 108.523C149.666 108.575 149.692 108.644 149.692 108.731V110.631C149.692 110.717 149.666 110.787 149.614 110.839C149.562 110.9 149.489 110.93 149.393 110.93H148.781C148.695 110.93 148.621 110.9 148.56 110.839C148.508 110.787 148.482 110.717 148.482 110.631V109.499H143.771V110.631C143.771 110.717 143.741 110.787 143.68 110.839C143.628 110.9 143.559 110.93 143.472 110.93H142.86ZM144.474 108.457L147.571 108.431V103.773H145.216V104.84C145.216 105.759 145.151 106.514 145.021 107.104C144.89 107.685 144.708 108.136 144.474 108.457ZM151.511 109.499C151.424 109.499 151.351 109.473 151.29 109.42C151.238 109.36 151.212 109.286 151.212 109.199V103.031C151.212 102.944 151.238 102.875 151.29 102.823C151.351 102.762 151.424 102.732 151.511 102.732H152.136C152.222 102.732 152.292 102.762 152.344 102.823C152.396 102.875 152.422 102.944 152.422 103.031V105.529H155.975V103.031C155.975 102.944 156.001 102.875 156.053 102.823C156.114 102.762 156.187 102.732 156.274 102.732H156.886C156.972 102.732 157.042 102.762 157.094 102.823C157.155 102.875 157.185 102.944 157.185 103.031V109.199C157.185 109.286 157.155 109.36 157.094 109.42C157.042 109.473 156.972 109.499 156.886 109.499H156.274C156.187 109.499 156.114 109.473 156.053 109.42C156.001 109.36 155.975 109.286 155.975 109.199V106.57H152.422V109.199C152.422 109.286 152.396 109.36 152.344 109.42C152.292 109.473 152.222 109.499 152.136 109.499H151.511ZM163.516 109.499C163.421 109.499 163.347 109.473 163.295 109.42C163.243 109.36 163.217 109.286 163.217 109.199V107.078H161.72V107.013C160.905 107.013 160.298 106.813 159.899 106.414C159.508 106.007 159.313 105.49 159.313 104.866C159.313 104.137 159.525 103.599 159.951 103.252C160.384 102.905 161.035 102.732 161.903 102.732H164.141C164.228 102.732 164.297 102.762 164.349 102.823C164.41 102.875 164.44 102.944 164.44 103.031V109.199C164.44 109.286 164.41 109.36 164.349 109.42C164.297 109.473 164.228 109.499 164.141 109.499H163.516ZM159.391 109.499C159.313 109.499 159.248 109.473 159.196 109.42C159.144 109.368 159.118 109.308 159.118 109.238C159.118 109.204 159.122 109.169 159.131 109.134C159.148 109.091 159.174 109.047 159.209 109.004L160.757 106.714L162.007 106.805L160.354 109.303C160.319 109.347 160.272 109.39 160.211 109.433C160.15 109.477 160.085 109.499 160.016 109.499H159.391ZM161.759 106.102H163.23V103.708H161.864C161.378 103.708 161.018 103.794 160.783 103.968C160.558 104.133 160.445 104.432 160.445 104.866C160.445 105.221 160.549 105.516 160.757 105.751C160.974 105.985 161.308 106.102 161.759 106.102ZM166.862 107.338C166.775 107.338 166.701 107.312 166.641 107.26C166.589 107.199 166.563 107.126 166.563 107.039V100.688C166.563 100.602 166.589 100.532 166.641 100.48C166.701 100.419 166.775 100.389 166.862 100.389H167.474C167.56 100.389 167.63 100.419 167.682 100.48C167.734 100.532 167.76 100.602 167.76 100.688V107.039C167.76 107.126 167.734 107.199 167.682 107.26C167.63 107.312 167.56 107.338 167.474 107.338H166.862ZM166.745 109.499C166.658 109.499 166.584 109.473 166.524 109.42C166.472 109.36 166.445 109.286 166.445 109.199V108.379C166.445 108.284 166.472 108.21 166.524 108.158C166.584 108.097 166.658 108.067 166.745 108.067H167.578C167.664 108.067 167.734 108.097 167.786 108.158C167.847 108.21 167.877 108.284 167.877 108.379V109.199C167.877 109.286 167.847 109.36 167.786 109.42C167.734 109.473 167.664 109.499 167.578 109.499H166.745ZM178.659 109.499C178.563 109.499 178.49 109.473 178.438 109.42C178.386 109.36 178.36 109.286 178.36 109.199V105.855C178.229 106.002 178.034 106.128 177.774 106.232C177.514 106.328 177.232 106.397 176.928 106.44C176.633 106.484 176.347 106.505 176.069 106.505C175.019 106.505 174.243 106.267 173.74 105.79C173.245 105.304 172.998 104.601 172.998 103.681V100.688C172.998 100.602 173.024 100.532 173.076 100.48C173.137 100.419 173.211 100.389 173.297 100.389H173.961C174.056 100.389 174.13 100.419 174.182 100.48C174.243 100.532 174.273 100.602 174.273 100.688V103.603C174.273 104.185 174.425 104.618 174.729 104.905C175.032 105.182 175.553 105.321 176.29 105.321C176.49 105.321 176.707 105.304 176.941 105.269C177.175 105.234 177.401 105.169 177.618 105.074C177.835 104.97 178.013 104.831 178.151 104.658C178.29 104.484 178.36 104.263 178.36 103.994V100.688C178.36 100.602 178.386 100.532 178.438 100.48C178.49 100.419 178.563 100.389 178.659 100.389H179.323C179.418 100.389 179.492 100.419 179.544 100.48C179.605 100.532 179.635 100.602 179.635 100.688V109.199C179.635 109.286 179.605 109.36 179.544 109.42C179.492 109.473 179.418 109.499 179.323 109.499H178.659ZM182.191 109.499C182.113 109.499 182.044 109.473 181.983 109.42C181.931 109.36 181.905 109.295 181.905 109.225V103.031C181.905 102.944 181.931 102.875 181.983 102.823C182.044 102.762 182.118 102.732 182.204 102.732H182.829C182.916 102.732 182.985 102.762 183.037 102.823C183.089 102.875 183.115 102.944 183.115 103.031V108.549L182.777 108.197L186.72 102.927C186.763 102.875 186.811 102.831 186.863 102.797C186.915 102.753 186.98 102.732 187.058 102.732H187.657C187.726 102.732 187.787 102.758 187.839 102.81C187.9 102.862 187.93 102.922 187.93 102.992V109.199C187.93 109.286 187.9 109.36 187.839 109.42C187.787 109.473 187.718 109.499 187.631 109.499H187.019C186.924 109.499 186.85 109.473 186.798 109.42C186.746 109.36 186.72 109.286 186.72 109.199V104.007L187.084 103.994L183.115 109.303C183.081 109.347 183.037 109.39 182.985 109.433C182.933 109.477 182.864 109.499 182.777 109.499H182.191ZM190.279 109.499C190.193 109.499 190.123 109.473 190.071 109.42C190.019 109.368 189.993 109.299 189.993 109.212V102.979C189.993 102.909 190.019 102.853 190.071 102.81C190.132 102.758 190.193 102.732 190.253 102.732H190.917C191.056 102.732 191.164 102.801 191.242 102.94L193.455 107.078L195.68 102.94C195.758 102.801 195.867 102.732 196.005 102.732H196.656C196.725 102.732 196.786 102.758 196.838 102.81C196.89 102.853 196.916 102.909 196.916 102.979V109.212C196.916 109.299 196.89 109.368 196.838 109.42C196.786 109.473 196.721 109.499 196.643 109.499H196.005C195.919 109.499 195.849 109.473 195.797 109.42C195.745 109.368 195.719 109.299 195.719 109.212V104.02L196.175 104.072L194.053 108.08C194.01 108.167 193.958 108.245 193.897 108.314C193.836 108.384 193.745 108.418 193.624 108.418H193.286C193.173 108.418 193.086 108.384 193.025 108.314C192.965 108.245 192.908 108.167 192.856 108.08L190.8 104.267L191.203 104.228V109.212C191.203 109.299 191.177 109.368 191.125 109.42C191.073 109.473 191.004 109.499 190.917 109.499H190.279ZM206.586 109.499C206.491 109.499 206.417 109.473 206.365 109.42C206.313 109.36 206.287 109.286 206.287 109.199V107.078H204.79V107.013C203.975 107.013 203.367 106.813 202.968 106.414C202.578 106.007 202.383 105.49 202.383 104.866C202.383 104.137 202.595 103.599 203.02 103.252C203.454 102.905 204.105 102.732 204.972 102.732H207.211C207.297 102.732 207.367 102.762 207.419 102.823C207.48 102.875 207.51 102.944 207.51 103.031V109.199C207.51 109.286 207.48 109.36 207.419 109.42C207.367 109.473 207.297 109.499 207.211 109.499H206.586ZM202.461 109.499C202.383 109.499 202.318 109.473 202.265 109.42C202.213 109.368 202.187 109.308 202.187 109.238C202.187 109.204 202.192 109.169 202.2 109.134C202.218 109.091 202.244 109.047 202.278 109.004L203.827 106.714L205.076 106.805L203.424 109.303C203.389 109.347 203.341 109.39 203.281 109.433C203.22 109.477 203.155 109.499 203.085 109.499H202.461ZM204.829 106.102H206.3V103.708H204.933C204.447 103.708 204.087 103.794 203.853 103.968C203.628 104.133 203.515 104.432 203.515 104.866C203.515 105.221 203.619 105.516 203.827 105.751C204.044 105.985 204.378 106.102 204.829 106.102ZM213.24 109.499C213.154 109.499 213.084 109.473 213.032 109.42C212.98 109.368 212.954 109.299 212.954 109.212V102.979C212.954 102.909 212.98 102.853 213.032 102.81C213.093 102.758 213.154 102.732 213.214 102.732H213.878C214.017 102.732 214.125 102.801 214.203 102.94L216.416 107.078L218.641 102.94C218.719 102.801 218.828 102.732 218.966 102.732H219.617C219.686 102.732 219.747 102.758 219.799 102.81C219.851 102.853 219.877 102.909 219.877 102.979V109.212C219.877 109.299 219.851 109.368 219.799 109.42C219.747 109.473 219.682 109.499 219.604 109.499H218.966C218.88 109.499 218.81 109.473 218.758 109.42C218.706 109.368 218.68 109.299 218.68 109.212V104.02L219.136 104.072L217.014 108.08C216.971 108.167 216.919 108.245 216.858 108.314C216.797 108.384 216.706 108.418 216.585 108.418H216.247C216.134 108.418 216.047 108.384 215.986 108.314C215.926 108.245 215.869 108.167 215.817 108.08L213.761 104.267L214.164 104.228V109.212C214.164 109.299 214.138 109.368 214.086 109.42C214.034 109.473 213.965 109.499 213.878 109.499H213.24ZM224.755 109.629C224.095 109.629 223.544 109.503 223.102 109.251C222.659 109 222.321 108.653 222.087 108.21C221.853 107.759 221.722 107.247 221.696 106.675C221.688 106.527 221.683 106.341 221.683 106.115C221.683 105.881 221.688 105.694 221.696 105.555C221.722 104.974 221.853 104.462 222.087 104.02C222.33 103.577 222.672 103.23 223.115 102.979C223.557 102.727 224.104 102.601 224.755 102.601C225.405 102.601 225.952 102.727 226.394 102.979C226.837 103.23 227.175 103.577 227.409 104.02C227.652 104.462 227.787 104.974 227.813 105.555C227.821 105.694 227.826 105.881 227.826 106.115C227.826 106.341 227.821 106.527 227.813 106.675C227.787 107.247 227.657 107.759 227.422 108.21C227.188 108.653 226.85 109 226.407 109.251C225.965 109.503 225.414 109.629 224.755 109.629ZM224.755 108.627C225.292 108.627 225.722 108.457 226.043 108.119C226.364 107.772 226.537 107.269 226.563 106.61C226.572 106.479 226.576 106.315 226.576 106.115C226.576 105.915 226.572 105.751 226.563 105.621C226.537 104.961 226.364 104.462 226.043 104.124C225.722 103.777 225.292 103.603 224.755 103.603C224.217 103.603 223.783 103.777 223.453 104.124C223.132 104.462 222.963 104.961 222.946 105.621C222.937 105.751 222.933 105.915 222.933 106.115C222.933 106.315 222.937 106.479 222.946 106.61C222.963 107.269 223.132 107.772 223.453 108.119C223.783 108.457 224.217 108.627 224.755 108.627ZM229.21 109.499C229.132 109.499 229.067 109.481 229.015 109.446C228.971 109.412 228.95 109.36 228.95 109.29C228.95 109.247 228.971 109.191 229.015 109.121L231.24 105.959L229.275 103.096C229.258 103.07 229.245 103.044 229.236 103.018C229.227 102.983 229.223 102.957 229.223 102.94C229.223 102.87 229.245 102.818 229.288 102.784C229.34 102.749 229.405 102.732 229.483 102.732H230.16C230.247 102.732 230.316 102.749 230.368 102.784C230.42 102.818 230.468 102.866 230.511 102.927L232.268 105.529H233.257V103.031C233.257 102.944 233.283 102.875 233.335 102.823C233.396 102.762 233.47 102.732 233.556 102.732H234.155C234.25 102.732 234.324 102.762 234.376 102.823C234.428 102.875 234.454 102.944 234.454 103.031V105.529H235.404L237.187 102.927C237.222 102.866 237.265 102.818 237.317 102.784C237.378 102.749 237.447 102.732 237.526 102.732H238.215C238.293 102.732 238.354 102.749 238.397 102.784C238.449 102.818 238.475 102.87 238.475 102.94C238.475 102.957 238.467 102.983 238.449 103.018C238.441 103.044 238.428 103.07 238.41 103.096L236.458 105.959L238.684 109.121C238.718 109.173 238.736 109.23 238.736 109.29C238.736 109.36 238.714 109.412 238.671 109.446C238.627 109.481 238.562 109.499 238.475 109.499H237.695C237.608 109.499 237.534 109.481 237.473 109.446C237.421 109.412 237.378 109.364 237.343 109.303L235.443 106.57H234.454V109.199C234.454 109.286 234.428 109.36 234.376 109.42C234.324 109.473 234.25 109.499 234.155 109.499H233.556C233.47 109.499 233.396 109.473 233.335 109.42C233.283 109.36 233.257 109.286 233.257 109.199V106.57H232.268L230.342 109.303C230.316 109.364 230.273 109.412 230.212 109.446C230.16 109.481 230.09 109.499 230.004 109.499H229.21ZM240.466 111.971C240.371 111.971 240.297 111.941 240.245 111.88C240.193 111.828 240.167 111.759 240.167 111.672V111.229C240.167 111.143 240.193 111.069 240.245 111.008C240.297 110.956 240.371 110.93 240.466 110.93H240.805C241.004 110.93 241.165 110.891 241.286 110.813C241.408 110.735 241.516 110.6 241.612 110.409C241.716 110.227 241.837 109.976 241.976 109.655L244.8 102.953C244.826 102.883 244.861 102.831 244.904 102.797C244.956 102.753 245.03 102.732 245.125 102.732H245.698C245.776 102.732 245.841 102.758 245.893 102.81C245.945 102.862 245.971 102.922 245.971 102.992C245.971 103.026 245.967 103.061 245.958 103.096C245.95 103.122 245.932 103.165 245.906 103.226L243.434 109.082C243.303 109.394 243.16 109.72 243.004 110.058C242.857 110.396 242.687 110.709 242.497 110.995C242.314 111.29 242.098 111.524 241.846 111.698C241.594 111.88 241.299 111.971 240.961 111.971H240.466ZM242.275 109.303L239.647 103.226C239.603 103.122 239.582 103.048 239.582 103.005C239.59 102.927 239.621 102.862 239.673 102.81C239.725 102.758 239.785 102.732 239.855 102.732H240.466C240.562 102.732 240.631 102.753 240.675 102.797C240.727 102.84 240.766 102.892 240.792 102.953L242.952 108.119L242.275 109.303ZM86.6988 125.499C86.6121 125.499 86.5383 125.473 86.4776 125.42C86.4256 125.36 86.3995 125.286 86.3995 125.199V119.031C86.3995 118.944 86.4256 118.875 86.4776 118.823C86.5383 118.762 86.6121 118.732 86.6988 118.732H89.4056C90.2212 118.732 90.8328 118.896 91.2406 119.226C91.657 119.556 91.8652 119.998 91.8652 120.553C91.8652 120.944 91.7915 121.239 91.644 121.438C91.4965 121.638 91.2883 121.807 91.0193 121.946C91.349 122.085 91.5963 122.31 91.7611 122.623C91.9346 122.926 92.0214 123.243 92.0214 123.573C92.0214 124.197 91.8001 124.674 91.3577 125.004C90.9152 125.334 90.2992 125.499 89.5098 125.499H86.6988ZM87.5968 124.549H89.4056C89.8221 124.549 90.1561 124.47 90.4077 124.314C90.668 124.149 90.7981 123.902 90.7981 123.573C90.7981 123.226 90.681 122.974 90.4467 122.818C90.2125 122.653 89.8655 122.57 89.4056 122.57H87.5968V124.549ZM87.5968 121.607H89.3276C89.744 121.607 90.0737 121.516 90.3166 121.334C90.5682 121.152 90.694 120.896 90.694 120.566C90.694 120.228 90.5682 119.998 90.3166 119.877C90.0737 119.747 89.744 119.681 89.3276 119.681H87.5968V121.607ZM95.7392 125.629C95.3054 125.629 94.9107 125.542 94.555 125.368C94.1993 125.195 93.913 124.961 93.6961 124.666C93.4792 124.371 93.3707 124.037 93.3707 123.664C93.3707 123.065 93.6137 122.588 94.0995 122.232C94.5853 121.876 95.2187 121.642 95.9995 121.529L97.9385 121.256V120.879C97.9385 120.462 97.817 120.137 97.5741 119.903C97.3399 119.668 96.9538 119.551 96.4159 119.551C96.0255 119.551 95.7088 119.629 95.4659 119.786C95.2317 119.942 95.0668 120.141 94.9714 120.384C94.9193 120.514 94.8282 120.579 94.6981 120.579H94.1125C94.0171 120.579 93.9433 120.553 93.8913 120.501C93.8479 120.441 93.8262 120.371 93.8262 120.293C93.8262 120.163 93.8739 120.002 93.9694 119.812C94.0735 119.621 94.2296 119.434 94.4378 119.252C94.6461 119.07 94.9107 118.918 95.2317 118.797C95.5613 118.666 95.9604 118.601 96.4289 118.601C96.9494 118.601 97.3876 118.671 97.7433 118.81C98.099 118.94 98.3766 119.118 98.5761 119.343C98.7844 119.569 98.9318 119.825 99.0186 120.111C99.114 120.397 99.1617 120.688 99.1617 120.983V125.199C99.1617 125.286 99.1314 125.36 99.0707 125.42C99.0186 125.473 98.9492 125.499 98.8624 125.499H98.2638C98.1684 125.499 98.0946 125.473 98.0426 125.42C97.9905 125.36 97.9645 125.286 97.9645 125.199V124.64C97.8517 124.796 97.6999 124.952 97.509 125.108C97.3182 125.256 97.0796 125.381 96.7933 125.486C96.507 125.581 96.1556 125.629 95.7392 125.629ZM96.0125 124.653C96.3682 124.653 96.6935 124.579 96.9885 124.431C97.2835 124.275 97.5134 124.037 97.6782 123.716C97.8517 123.395 97.9385 122.991 97.9385 122.505V122.141L96.4289 122.362C95.8129 122.449 95.3488 122.597 95.0365 122.805C94.7241 123.004 94.568 123.26 94.568 123.573C94.568 123.815 94.6374 124.019 94.7762 124.184C94.9237 124.34 95.1059 124.457 95.3228 124.536C95.5483 124.614 95.7782 124.653 96.0125 124.653ZM101.477 125.499C101.39 125.499 101.321 125.473 101.269 125.42C101.217 125.368 101.191 125.299 101.191 125.212V118.979C101.191 118.909 101.217 118.853 101.269 118.81C101.329 118.758 101.39 118.732 101.451 118.732H102.115C102.253 118.732 102.362 118.801 102.44 118.94L104.652 123.078L106.877 118.94C106.956 118.801 107.064 118.732 107.203 118.732H107.853C107.923 118.732 107.984 118.758 108.036 118.81C108.088 118.853 108.114 118.909 108.114 118.979V125.212C108.114 125.299 108.088 125.368 108.036 125.42C107.984 125.473 107.919 125.499 107.84 125.499H107.203C107.116 125.499 107.047 125.473 106.995 125.42C106.943 125.368 106.917 125.299 106.917 125.212V120.02L107.372 120.072L105.251 124.08C105.207 124.167 105.155 124.245 105.095 124.314C105.034 124.384 104.943 124.418 104.821 124.418H104.483C104.37 124.418 104.283 124.384 104.223 124.314C104.162 124.245 104.106 124.167 104.054 124.08L101.997 120.267L102.401 120.228V125.212C102.401 125.299 102.375 125.368 102.323 125.42C102.271 125.473 102.201 125.499 102.115 125.499H101.477ZM113.177 126.93C113.09 126.93 113.016 126.9 112.955 126.839C112.903 126.787 112.877 126.717 112.877 126.631V124.757C112.877 124.67 112.903 124.601 112.955 124.549C113.016 124.488 113.09 124.457 113.177 124.457H113.242C113.476 124.449 113.675 124.319 113.84 124.067C114.005 123.807 114.131 123.403 114.218 122.857C114.304 122.302 114.348 121.581 114.348 120.697V119.031C114.348 118.944 114.374 118.875 114.426 118.823C114.487 118.762 114.56 118.732 114.647 118.732H118.798C118.885 118.732 118.955 118.762 119.007 118.823C119.067 118.875 119.098 118.944 119.098 119.031V124.431H119.709C119.805 124.431 119.879 124.462 119.931 124.523C119.983 124.575 120.009 124.644 120.009 124.731V126.631C120.009 126.717 119.983 126.787 119.931 126.839C119.879 126.9 119.805 126.93 119.709 126.93H119.098C119.011 126.93 118.937 126.9 118.877 126.839C118.824 126.787 118.798 126.717 118.798 126.631V125.499H114.088V126.631C114.088 126.717 114.057 126.787 113.996 126.839C113.944 126.9 113.875 126.93 113.788 126.93H113.177ZM114.79 124.457L117.887 124.431V119.773H115.532V120.84C115.532 121.759 115.467 122.514 115.337 123.104C115.207 123.685 115.024 124.136 114.79 124.457ZM124.3 125.629C123.641 125.629 123.09 125.503 122.647 125.251C122.205 125 121.866 124.653 121.632 124.21C121.398 123.759 121.268 123.247 121.242 122.675C121.233 122.527 121.229 122.341 121.229 122.115C121.229 121.881 121.233 121.694 121.242 121.555C121.268 120.974 121.398 120.462 121.632 120.02C121.875 119.577 122.218 119.23 122.66 118.979C123.103 118.727 123.649 118.601 124.3 118.601C124.951 118.601 125.497 118.727 125.94 118.979C126.382 119.23 126.72 119.577 126.955 120.02C127.198 120.462 127.332 120.974 127.358 121.555C127.367 121.694 127.371 121.881 127.371 122.115C127.371 122.341 127.367 122.527 127.358 122.675C127.332 123.247 127.202 123.759 126.968 124.21C126.733 124.653 126.395 125 125.953 125.251C125.51 125.503 124.959 125.629 124.3 125.629ZM124.3 124.627C124.838 124.627 125.267 124.457 125.588 124.119C125.909 123.772 126.083 123.269 126.109 122.61C126.117 122.479 126.122 122.315 126.122 122.115C126.122 121.915 126.117 121.751 126.109 121.621C126.083 120.961 125.909 120.462 125.588 120.124C125.267 119.777 124.838 119.603 124.3 119.603C123.762 119.603 123.328 119.777 122.999 120.124C122.678 120.462 122.508 120.961 122.491 121.621C122.482 121.751 122.478 121.915 122.478 122.115C122.478 122.315 122.482 122.479 122.491 122.61C122.508 123.269 122.678 123.772 122.999 124.119C123.328 124.457 123.762 124.627 124.3 124.627ZM129.458 125.499C129.371 125.499 129.297 125.473 129.237 125.42C129.185 125.36 129.159 125.286 129.159 125.199V119.031C129.159 118.944 129.185 118.875 129.237 118.823C129.297 118.762 129.371 118.732 129.458 118.732H134.624C134.711 118.732 134.78 118.762 134.833 118.823C134.893 118.875 134.924 118.944 134.924 119.031V125.199C134.924 125.286 134.893 125.36 134.833 125.42C134.78 125.473 134.711 125.499 134.624 125.499H134C133.913 125.499 133.844 125.473 133.791 125.42C133.739 125.36 133.713 125.286 133.713 125.199V119.773H130.369V125.199C130.369 125.286 130.343 125.36 130.291 125.42C130.239 125.473 130.169 125.499 130.083 125.499H129.458ZM139.79 125.629C139.131 125.629 138.58 125.503 138.137 125.251C137.695 125 137.356 124.653 137.122 124.21C136.888 123.759 136.758 123.247 136.732 122.675C136.723 122.527 136.719 122.341 136.719 122.115C136.719 121.881 136.723 121.694 136.732 121.555C136.758 120.974 136.888 120.462 137.122 120.02C137.365 119.577 137.708 119.23 138.15 118.979C138.593 118.727 139.139 118.601 139.79 118.601C140.441 118.601 140.987 118.727 141.43 118.979C141.872 119.23 142.21 119.577 142.445 120.02C142.688 120.462 142.822 120.974 142.848 121.555C142.857 121.694 142.861 121.881 142.861 122.115C142.861 122.341 142.857 122.527 142.848 122.675C142.822 123.247 142.692 123.759 142.458 124.21C142.223 124.653 141.885 125 141.443 125.251C141 125.503 140.449 125.629 139.79 125.629ZM139.79 124.627C140.328 124.627 140.757 124.457 141.078 124.119C141.399 123.772 141.573 123.269 141.599 122.61C141.607 122.479 141.612 122.315 141.612 122.115C141.612 121.915 141.607 121.751 141.599 121.621C141.573 120.961 141.399 120.462 141.078 120.124C140.757 119.777 140.328 119.603 139.79 119.603C139.252 119.603 138.818 119.777 138.489 120.124C138.168 120.462 137.998 120.961 137.981 121.621C137.972 121.751 137.968 121.915 137.968 122.115C137.968 122.315 137.972 122.479 137.981 122.61C137.998 123.269 138.168 123.772 138.489 124.119C138.818 124.457 139.252 124.627 139.79 124.627ZM144.935 125.499C144.848 125.499 144.779 125.473 144.727 125.42C144.675 125.368 144.649 125.299 144.649 125.212V118.979C144.649 118.909 144.675 118.853 144.727 118.81C144.787 118.758 144.848 118.732 144.909 118.732H145.573C145.711 118.732 145.82 118.801 145.898 118.94L148.11 123.078L150.336 118.94C150.414 118.801 150.522 118.732 150.661 118.732H151.312C151.381 118.732 151.442 118.758 151.494 118.81C151.546 118.853 151.572 118.909 151.572 118.979V125.212C151.572 125.299 151.546 125.368 151.494 125.42C151.442 125.473 151.377 125.499 151.299 125.499H150.661C150.574 125.499 150.505 125.473 150.453 125.42C150.401 125.368 150.375 125.299 150.375 125.212V120.02L150.83 120.072L148.709 124.08C148.666 124.167 148.613 124.245 148.553 124.314C148.492 124.384 148.401 124.418 148.279 124.418H147.941C147.828 124.418 147.742 124.384 147.681 124.314C147.62 124.245 147.564 124.167 147.512 124.08L145.456 120.267L145.859 120.228V125.212C145.859 125.299 145.833 125.368 145.781 125.42C145.729 125.473 145.659 125.499 145.573 125.499H144.935ZM156.449 125.629C155.79 125.629 155.239 125.503 154.796 125.251C154.354 125 154.016 124.653 153.781 124.21C153.547 123.759 153.417 123.247 153.391 122.675C153.382 122.527 153.378 122.341 153.378 122.115C153.378 121.881 153.382 121.694 153.391 121.555C153.417 120.974 153.547 120.462 153.781 120.02C154.024 119.577 154.367 119.23 154.809 118.979C155.252 118.727 155.798 118.601 156.449 118.601C157.1 118.601 157.646 118.727 158.089 118.979C158.531 119.23 158.87 119.577 159.104 120.02C159.347 120.462 159.481 120.974 159.507 121.555C159.516 121.694 159.52 121.881 159.52 122.115C159.52 122.341 159.516 122.527 159.507 122.675C159.481 123.247 159.351 123.759 159.117 124.21C158.883 124.653 158.544 125 158.102 125.251C157.659 125.503 157.108 125.629 156.449 125.629ZM156.449 124.627C156.987 124.627 157.416 124.457 157.737 124.119C158.058 123.772 158.232 123.269 158.258 122.61C158.267 122.479 158.271 122.315 158.271 122.115C158.271 121.915 158.267 121.751 158.258 121.621C158.232 120.961 158.058 120.462 157.737 120.124C157.416 119.777 156.987 119.603 156.449 119.603C155.911 119.603 155.477 119.777 155.148 120.124C154.827 120.462 154.658 120.961 154.64 121.621C154.632 121.751 154.627 121.915 154.627 122.115C154.627 122.315 154.632 122.479 154.64 122.61C154.658 123.269 154.827 123.772 155.148 124.119C155.477 124.457 155.911 124.627 156.449 124.627ZM161.607 125.499C161.52 125.499 161.447 125.473 161.386 125.42C161.334 125.36 161.308 125.286 161.308 125.199V119.031C161.308 118.944 161.334 118.875 161.386 118.823C161.447 118.762 161.52 118.732 161.607 118.732H165.498C165.585 118.732 165.654 118.762 165.706 118.823C165.758 118.875 165.785 118.944 165.785 119.031V119.473C165.785 119.56 165.758 119.634 165.706 119.695C165.654 119.747 165.585 119.773 165.498 119.773H162.518V125.199C162.518 125.286 162.492 125.36 162.44 125.42C162.388 125.473 162.319 125.499 162.232 125.499H161.607ZM169.127 125.499C169.04 125.499 168.966 125.473 168.906 125.42C168.853 125.36 168.827 125.286 168.827 125.199V119.773H166.563C166.476 119.773 166.403 119.747 166.342 119.695C166.29 119.634 166.264 119.56 166.264 119.473V119.031C166.264 118.944 166.29 118.875 166.342 118.823C166.403 118.762 166.476 118.732 166.563 118.732H172.289C172.376 118.732 172.445 118.762 172.497 118.823C172.558 118.875 172.588 118.944 172.588 119.031V119.473C172.588 119.56 172.558 119.634 172.497 119.695C172.445 119.747 172.376 119.773 172.289 119.773H170.025V125.199C170.025 125.286 169.999 125.36 169.947 125.42C169.895 125.473 169.821 125.499 169.725 125.499H169.127ZM174.161 125.499C174.083 125.499 174.014 125.473 173.953 125.42C173.901 125.36 173.875 125.295 173.875 125.225V119.031C173.875 118.944 173.901 118.875 173.953 118.823C174.014 118.762 174.087 118.732 174.174 118.732H174.799C174.886 118.732 174.955 118.762 175.007 118.823C175.059 118.875 175.085 118.944 175.085 119.031V124.549L174.747 124.197L178.69 118.927C178.733 118.875 178.781 118.831 178.833 118.797C178.885 118.753 178.95 118.732 179.028 118.732H179.627C179.696 118.732 179.757 118.758 179.809 118.81C179.87 118.862 179.9 118.922 179.9 118.992V125.199C179.9 125.286 179.87 125.36 179.809 125.42C179.757 125.473 179.688 125.499 179.601 125.499H178.989C178.894 125.499 178.82 125.473 178.768 125.42C178.716 125.36 178.69 125.286 178.69 125.199V120.007L179.054 119.994L175.085 125.303C175.05 125.347 175.007 125.39 174.955 125.433C174.903 125.477 174.834 125.499 174.747 125.499H174.161ZM184.162 123.364C184.084 123.364 184.019 123.343 183.967 123.299C183.915 123.247 183.889 123.178 183.889 123.091C183.889 123.004 183.889 122.918 183.889 122.831C183.889 122.744 183.889 122.657 183.889 122.57C183.906 122.197 183.989 121.868 184.136 121.581C184.284 121.295 184.462 121.035 184.67 120.801C184.887 120.566 185.104 120.345 185.321 120.137C185.537 119.92 185.72 119.703 185.867 119.486C186.023 119.269 186.119 119.039 186.153 118.797C186.188 118.484 186.127 118.224 185.971 118.016C185.815 117.799 185.602 117.634 185.334 117.521C185.065 117.408 184.787 117.352 184.501 117.352C184.041 117.352 183.646 117.474 183.316 117.716C182.995 117.951 182.783 118.35 182.679 118.914C182.653 119.018 182.609 119.092 182.549 119.135C182.488 119.178 182.419 119.2 182.34 119.2H181.716C181.638 119.2 181.568 119.174 181.508 119.122C181.456 119.07 181.429 119 181.429 118.914C181.438 118.558 181.516 118.22 181.664 117.899C181.811 117.578 182.019 117.296 182.288 117.053C182.566 116.81 182.891 116.619 183.264 116.48C183.646 116.333 184.071 116.259 184.54 116.259C185.069 116.259 185.52 116.333 185.893 116.48C186.275 116.619 186.578 116.81 186.804 117.053C187.038 117.287 187.207 117.547 187.312 117.834C187.416 118.12 187.459 118.406 187.442 118.692C187.416 119.039 187.329 119.352 187.181 119.629C187.034 119.898 186.856 120.15 186.648 120.384C186.44 120.61 186.227 120.835 186.01 121.061C185.802 121.278 185.62 121.508 185.464 121.751C185.316 121.985 185.234 122.241 185.216 122.518C185.208 122.614 185.199 122.709 185.19 122.805C185.19 122.891 185.19 122.978 185.19 123.065C185.173 123.16 185.138 123.234 185.086 123.286C185.034 123.338 184.96 123.364 184.865 123.364H184.162ZM184.058 125.499C183.971 125.499 183.898 125.473 183.837 125.42C183.785 125.36 183.759 125.286 183.759 125.199V124.405C183.759 124.319 183.785 124.249 183.837 124.197C183.898 124.136 183.971 124.106 184.058 124.106H184.904C185 124.106 185.073 124.136 185.125 124.197C185.186 124.249 185.216 124.319 185.216 124.405V125.199C185.216 125.286 185.186 125.36 185.125 125.42C185.073 125.473 185 125.499 184.904 125.499H184.058Z" fill="#292424"/>
<path opacity="0.5" d="M264.647 129.276V128.601L267.414 125.714C268.476 124.608 268.721 124.183 268.721 123.53V123.519C268.716 122.718 268.111 122.141 267.256 122.141C266.276 122.141 265.546 122.816 265.546 123.661V123.688H264.598V123.655C264.598 122.293 265.775 121.286 267.24 121.286C268.662 121.286 269.702 122.239 269.702 123.47V123.481C269.702 124.341 269.304 124.989 267.861 126.465L265.993 128.383V128.404H269.833V129.276H264.647ZM273.612 129.407C271.989 129.407 270.938 128.502 270.835 127.261L270.829 127.195H271.772L271.777 127.25C271.859 128.023 272.567 128.557 273.612 128.557C274.642 128.557 275.344 127.98 275.344 127.146V127.135C275.344 126.171 274.653 125.632 273.553 125.632H272.567V124.804H273.509C274.446 124.804 275.099 124.227 275.099 123.443V123.432C275.099 122.609 274.56 122.136 273.602 122.136C272.676 122.136 272.017 122.626 271.935 123.421L271.929 123.475H270.987L270.993 123.421C271.118 122.141 272.131 121.286 273.602 121.286C275.099 121.286 276.085 122.119 276.085 123.312V123.323C276.085 124.292 275.399 124.957 274.419 125.164V125.186C275.562 125.284 276.341 125.997 276.341 127.114V127.125C276.341 128.437 275.186 129.407 273.612 129.407ZM278.128 123.857C277.779 123.857 277.507 123.584 277.507 123.236C277.507 122.887 277.779 122.615 278.128 122.615C278.476 122.615 278.748 122.887 278.748 123.236C278.748 123.584 278.476 123.857 278.128 123.857ZM278.128 128.072C277.779 128.072 277.507 127.8 277.507 127.451C277.507 127.103 277.779 126.83 278.128 126.83C278.476 126.83 278.748 127.103 278.748 127.451C278.748 127.8 278.476 128.072 278.128 128.072ZM282.665 129.407C281.161 129.407 280.088 128.47 279.974 127.19L279.969 127.13H280.933L280.938 127.174C281.036 127.952 281.733 128.546 282.675 128.546C283.743 128.546 284.484 127.805 284.484 126.749V126.738C284.478 125.703 283.732 124.962 282.692 124.962C282.158 124.962 281.701 125.12 281.352 125.436C281.21 125.567 281.085 125.719 280.982 125.899H280.116L280.519 121.417H285.017V122.288H281.325L281.058 124.93H281.08C281.45 124.401 282.104 124.118 282.866 124.118C284.375 124.118 285.464 125.213 285.464 126.721V126.732C285.459 128.306 284.298 129.407 282.665 129.407ZM289.228 129.407C287.419 129.407 286.346 127.843 286.346 125.349V125.338C286.346 122.844 287.419 121.286 289.228 121.286C291.036 121.286 292.12 122.844 292.12 125.338V125.349C292.12 127.843 291.036 129.407 289.228 129.407ZM289.228 128.551C290.426 128.551 291.134 127.321 291.134 125.349V125.338C291.134 123.366 290.426 122.146 289.228 122.146C288.029 122.146 287.332 123.366 287.332 125.338V125.349C287.332 127.321 288.029 128.551 289.228 128.551Z" fill="#292424"/>
<mask id="path-7-inside-1_698_38819" fill="white">
<path d="M0 0H313V53H0V0Z"/>
</mask>
<path d="M0 0H313V53H0V0Z" fill="white"/>
<path d="M313 51.8472H0V54.1528H313V51.8472Z" fill="#E7E8EC" mask="url(#path-7-inside-1_698_38819)"/>
<path d="M14.1107 32.1394L17.4446 22.179H19.16L22.494 32.1394H21.2144L18.0948 22.8984H18.4822L15.3903 32.1394H14.1107ZM15.7154 29.8084V28.6533H20.8893V29.8084H15.7154ZM23.8183 32.1394L23.8252 24.6691H25.0702V28.2659L28.2036 24.6691H29.8014L26.502 28.4043L30.1888 32.1394H28.4665L25.0702 28.5426V32.1394H23.8183ZM32.9484 32.1394V25.7896H30.3477V24.6691H36.7804V25.7896H34.1796V32.1394H32.9484ZM44.2973 24.6691V32.1394H43.1076V26.6335L39.1926 32.1394H38.1758V24.6691H39.3655V30.0989L43.2874 24.6691H44.2973ZM46.3205 32.1394V24.6691H49.5023C49.6914 24.6691 49.8943 24.6806 50.111 24.7037C50.3323 24.7221 50.5329 24.7567 50.7128 24.8074C51.114 24.9135 51.4437 25.1325 51.7019 25.4646C51.9647 25.792 52.0962 26.207 52.0962 26.7096C52.0962 26.9909 52.0524 27.2353 51.9647 27.4428C51.8817 27.6503 51.7618 27.8301 51.6051 27.9823C51.5359 28.0515 51.4598 28.1137 51.3768 28.1691C51.2938 28.2244 51.2108 28.2682 51.1278 28.3005C51.2892 28.3282 51.4529 28.3904 51.6189 28.4873C51.8817 28.6302 52.0869 28.8308 52.2345 29.089C52.3867 29.3473 52.4628 29.677 52.4628 30.0782C52.4628 30.5854 52.3406 31.005 52.0962 31.337C51.8518 31.6644 51.5151 31.8904 51.0863 32.0149C50.9065 32.0656 50.7082 32.1002 50.4914 32.1187C50.2747 32.1325 50.0649 32.1394 49.862 32.1394H46.3205ZM47.5656 31.1364H49.7928C49.8897 31.1364 50.0049 31.1272 50.1387 31.1088C50.277 31.0903 50.3992 31.0673 50.5053 31.0396C50.7451 30.9704 50.918 30.8413 51.024 30.6523C51.1347 30.4632 51.19 30.258 51.19 30.0367C51.19 29.7415 51.107 29.5017 50.941 29.3173C50.7796 29.1328 50.5652 29.0176 50.2978 28.9714C50.2009 28.9438 50.0949 28.9276 49.9796 28.923C49.8689 28.9184 49.7698 28.9161 49.6822 28.9161H47.5656V31.1364ZM47.5656 27.8993H49.4193C49.5484 27.8993 49.6845 27.8924 49.8274 27.8786C49.9704 27.8601 50.0949 27.8301 50.2009 27.7886C50.413 27.7103 50.5675 27.5811 50.6644 27.4013C50.7658 27.2168 50.8165 27.0163 50.8165 26.7995C50.8165 26.5597 50.7612 26.3499 50.6505 26.1701C50.5445 25.9856 50.3808 25.8588 50.1594 25.7896C50.0119 25.7343 49.8459 25.7043 49.6614 25.6997C49.4816 25.6905 49.3663 25.6859 49.3156 25.6859H47.5656V27.8993ZM53.9384 32.1394V24.6691H55.1696V27.8163H59.0984V24.6691H60.3296V32.1394H59.0984V28.9853H55.1696V32.1394H53.9384ZM68.4748 24.6691V32.1394H67.285V26.6335L63.37 32.1394H62.3533V24.6691H63.543V30.0989L67.4649 24.6691H68.4748ZM73.7213 23.7976C73.3754 23.7976 73.0595 23.7123 72.7736 23.5416C72.4877 23.371 72.2595 23.1451 72.0889 22.8638C71.9182 22.5779 71.8329 22.2597 71.8329 21.9092H72.829C72.829 22.1536 72.9166 22.3635 73.0918 22.5387C73.267 22.7139 73.4769 22.8015 73.7213 22.8015C73.9703 22.8015 74.1801 22.7139 74.3507 22.5387C74.5259 22.3635 74.6135 22.1536 74.6135 21.9092H75.6096C75.6096 22.2597 75.5243 22.5779 75.3537 22.8638C75.1876 23.1451 74.9594 23.371 74.6689 23.5416C74.383 23.7123 74.0671 23.7976 73.7213 23.7976ZM76.6195 24.6691V32.1394H75.4297V26.6335L71.5148 32.1394H70.498V24.6691H71.6877V30.0989L75.6096 24.6691H76.6195ZM80.9587 33.7995V31.1226C81.3783 31.1226 81.678 30.9866 81.8579 30.7145C82.0377 30.4378 82.183 29.9836 82.2936 29.3519C82.3674 28.9553 82.4274 28.5311 82.4735 28.0792C82.5196 27.6273 82.5588 27.1246 82.5911 26.5713C82.628 26.0133 82.6625 25.3792 82.6948 24.6691H87.841V31.1226H88.5673V33.7995H87.3914V32.1394H82.1345V33.7995H80.9587ZM82.8539 31.1226H86.6098V25.6859H83.8084C83.7946 26.0133 83.7762 26.3568 83.7531 26.7165C83.7301 27.0716 83.7024 27.4267 83.6701 27.7817C83.6424 28.1368 83.6079 28.4734 83.5664 28.7916C83.5295 29.1052 83.4857 29.3865 83.4349 29.6355C83.375 29.9813 83.3058 30.2741 83.2274 30.5139C83.149 30.7537 83.0245 30.9566 82.8539 31.1226ZM90.1869 23.348V22.0753H91.4181V23.348H90.1869ZM90.1869 32.1394V24.6691H91.4181V32.1394H90.1869ZM95.7099 32.3469C95.152 32.3469 94.6839 32.2455 94.3058 32.0426C93.9323 31.8351 93.6487 31.563 93.455 31.2264C93.2659 30.8897 93.1714 30.5208 93.1714 30.1197C93.1714 29.7277 93.2452 29.3888 93.3927 29.1029C93.5449 28.8124 93.757 28.5726 94.0291 28.3835C94.3012 28.1898 94.6263 28.0377 95.0044 27.927C95.3595 27.8301 95.756 27.7471 96.1941 27.678C96.6368 27.6042 97.0841 27.5373 97.536 27.4774C97.9879 27.4174 98.4098 27.3598 98.8018 27.3045L98.3591 27.5604C98.3729 26.8964 98.2392 26.4053 97.9579 26.0871C97.6813 25.7689 97.2017 25.6098 96.5192 25.6098C96.0673 25.6098 95.6707 25.7136 95.3295 25.9211C94.9929 26.124 94.7554 26.456 94.617 26.9171L93.4481 26.5643C93.6279 25.9095 93.9761 25.3954 94.4925 25.0219C95.009 24.6484 95.6892 24.4616 96.533 24.4616C97.2109 24.4616 97.7919 24.5838 98.2761 24.8282C98.7649 25.068 99.1154 25.4323 99.3275 25.9211C99.4335 26.1516 99.5004 26.403 99.5281 26.675C99.5557 26.9425 99.5696 27.2238 99.5696 27.5189V32.1394H98.4767V30.3479L98.7326 30.5139C98.4513 31.118 98.0571 31.5745 97.5498 31.8835C97.0472 32.1924 96.4339 32.3469 95.7099 32.3469ZM95.8967 31.3163C96.3394 31.3163 96.7221 31.2379 97.0449 31.0811C97.3723 30.9197 97.6351 30.7099 97.8334 30.4517C98.0317 30.1888 98.1608 29.9029 98.2208 29.594C98.2899 29.3634 98.3268 29.1075 98.3314 28.8262C98.3407 28.5403 98.3453 28.3213 98.3453 28.1691L98.7741 28.3558C98.3729 28.4112 97.9787 28.4642 97.5913 28.5149C97.204 28.5656 96.8374 28.621 96.4915 28.6809C96.1457 28.7363 95.8344 28.8031 95.5578 28.8815C95.3549 28.9461 95.1635 29.0291 94.9836 29.1305C94.8084 29.232 94.6655 29.3634 94.5548 29.5248C94.4487 29.6816 94.3957 29.8776 94.3957 30.1127C94.3957 30.3156 94.4464 30.5093 94.5479 30.6938C94.6539 30.8782 94.8153 31.0281 95.0321 31.1434C95.2534 31.2586 95.5416 31.3163 95.8967 31.3163ZM100.769 32.1394V31.0811C101.046 31.1318 101.256 31.1226 101.399 31.0534C101.546 30.9797 101.655 30.8529 101.724 30.673C101.798 30.4886 101.858 30.258 101.904 29.9813C101.982 29.5432 102.049 29.0544 102.104 28.5149C102.164 27.9754 102.217 27.3852 102.263 26.7442C102.314 26.0986 102.36 25.4069 102.402 24.6691H107.624V32.1394H106.393V25.8381H103.522C103.495 26.2623 103.46 26.6981 103.418 27.1454C103.382 27.5927 103.342 28.0284 103.301 28.4527C103.259 28.8723 103.213 29.2643 103.163 29.6286C103.116 29.9882 103.066 30.2995 103.01 30.5623C102.923 31.0142 102.801 31.3762 102.644 31.6483C102.487 31.9158 102.261 32.0887 101.966 32.1671C101.671 32.2501 101.272 32.2409 100.769 32.1394ZM112.841 32.3469C112.099 32.3469 111.458 32.1786 110.919 31.842C110.384 31.5054 109.971 31.0396 109.68 30.4448C109.39 29.8499 109.245 29.1674 109.245 28.3973C109.245 27.6134 109.392 26.9263 109.687 26.3361C109.982 25.7458 110.4 25.287 110.939 24.9596C111.479 24.6276 112.113 24.4616 112.841 24.4616C113.589 24.4616 114.232 24.6299 114.771 24.9665C115.311 25.2985 115.724 25.762 116.009 26.3568C116.3 26.9471 116.445 27.6273 116.445 28.3973C116.445 29.1766 116.3 29.8637 116.009 30.4586C115.719 31.0488 115.304 31.5123 114.764 31.8489C114.225 32.1809 113.584 32.3469 112.841 32.3469ZM112.841 31.1779C113.616 31.1779 114.193 30.9197 114.571 30.4033C114.949 29.8868 115.138 29.2181 115.138 28.3973C115.138 27.5535 114.947 26.8825 114.564 26.3845C114.181 25.8819 113.607 25.6306 112.841 25.6306C112.32 25.6306 111.892 25.7481 111.555 25.9833C111.218 26.2185 110.967 26.5436 110.801 26.9586C110.635 27.3736 110.552 27.8532 110.552 28.3973C110.552 29.2366 110.746 29.9098 111.133 30.4171C111.52 30.9243 112.09 31.1779 112.841 31.1779ZM118.061 32.1394V24.6691H123.249V25.8381H119.292V32.1394H118.061Z" fill="black"/>
<path d="M211.087 24.6581L206.252 24.2411L204.362 19.7893L202.472 24.2479L197.637 24.6581L201.309 27.8389L200.206 32.5664L204.362 30.0581L208.518 32.5664L207.422 27.8389L211.087 24.6581ZM204.362 28.8005L201.833 30.3271L202.506 27.4489L200.273 25.5121L203.219 25.2566L204.362 22.5465L205.512 25.2633L208.457 25.5188L206.225 27.4556L206.897 30.3338L204.362 28.8005Z" fill="#676C74"/>
<rect x="220.502" y="14.9863" width="23.0565" height="23.0565" rx="4.94067" fill="#F2F2F2"/>
<path d="M236.737 27.1867H232.703V31.2216H231.358V27.1867H227.323V25.8418H231.358V21.8069H232.703V25.8418H236.737V27.1867Z" fill="#676C74"/>
<rect x="248.169" y="14.9863" width="23.0565" height="23.0565" rx="4.94067" fill="#F2F2F2"/>
<path d="M265.084 28.787C264.257 28.787 263.457 28.6525 262.711 28.4104C262.475 28.3297 262.213 28.3902 262.031 28.5718L260.976 29.8966C259.072 28.9887 257.29 27.2739 256.342 25.3035L257.653 24.1872C257.835 23.9989 257.889 23.7367 257.815 23.5013C257.566 22.7548 257.438 21.9546 257.438 21.1274C257.438 20.7643 257.136 20.4617 256.773 20.4617H254.446C254.083 20.4617 253.646 20.6231 253.646 21.1274C253.646 27.3748 258.844 32.5663 265.084 32.5663C265.562 32.5663 265.75 32.1427 265.75 31.7728V29.4527C265.75 29.0896 265.448 28.787 265.084 28.787Z" fill="#676C74"/>
<rect x="275.837" y="14.9863" width="23.0565" height="23.0565" rx="4.94067" fill="#F2F2F2"/>
<path d="M283.331 25.1689C282.591 25.1689 281.986 25.7742 281.986 26.5139C281.986 27.2536 282.591 27.8589 283.331 27.8589C284.071 27.8589 284.676 27.2536 284.676 26.5139C284.676 25.7742 284.071 25.1689 283.331 25.1689ZM291.401 25.1689C290.661 25.1689 290.056 25.7742 290.056 26.5139C290.056 27.2536 290.661 27.8589 291.401 27.8589C292.14 27.8589 292.746 27.2536 292.746 26.5139C292.746 25.7742 292.14 25.1689 291.401 25.1689ZM287.366 25.1689C286.626 25.1689 286.021 25.7742 286.021 26.5139C286.021 27.2536 286.626 27.8589 287.366 27.8589C288.105 27.8589 288.711 27.2536 288.711 26.5139C288.711 25.7742 288.105 25.1689 287.366 25.1689Z" fill="#676C74"/>
<circle cx="24" cy="193" r="12" fill="#FC4F66"/>
<path d="M19.4135 198C19.2882 198 19.188 197.962 19.1128 197.885C19.0376 197.808 19 197.705 19 197.577V188.365C19 188.263 19.0376 188.179 19.1128 188.115C19.2005 188.038 19.2882 188 19.3759 188H20.3346C20.5351 188 20.6917 188.103 20.8045 188.308L24 194.423L27.2143 188.308C27.3271 188.103 27.4837 188 27.6842 188H28.6241C28.7243 188 28.812 188.038 28.8872 188.115C28.9624 188.179 29 188.263 29 188.365V197.577C29 197.705 28.9624 197.808 28.8872 197.885C28.812 197.962 28.718 198 28.6053 198H27.6842C27.5589 198 27.4586 197.962 27.3835 197.885C27.3083 197.808 27.2707 197.705 27.2707 197.577V189.904L27.9286 189.981L24.8647 195.904C24.802 196.032 24.7268 196.147 24.6391 196.25C24.5514 196.353 24.4198 196.404 24.2444 196.404H23.7556C23.5927 196.404 23.4674 196.353 23.3797 196.25C23.292 196.147 23.2105 196.032 23.1353 195.904L20.1654 190.269L20.7481 190.212V197.577C20.7481 197.705 20.7105 197.808 20.6353 197.885C20.5602 197.962 20.4599 198 20.3346 198H19.4135Z" fill="white"/>
<path d="M38.4795 168.814C38.4795 166.708 40.187 165 42.2933 165H84.8518C89.0645 165 92.4795 168.415 92.4795 172.628V197.372C92.4795 201.585 89.0645 205 84.8518 205H42.2933C40.187 205 38.4795 203.292 38.4795 201.186V168.814Z" fill="#F6F6F8"/>
<g clip-path="url(#clip1_698_38819)">
<circle cx="51.4795" cy="185" r="5" fill="#929292"/>
<circle opacity="0.4" cx="65.4795" cy="185" r="5" fill="#929292"/>
<circle opacity="0.2" cx="79.4795" cy="185" r="5" fill="#929292"/>
</g>
</g>
<rect x="0.576412" y="0.576412" width="311.847" height="374.847" rx="13.2575" stroke="#E7E8EC" stroke-width="1.15282"/>
<defs>
<clipPath id="clip0_698_38819">
<rect width="313" height="376" rx="13.8339" fill="white"/>
</clipPath>
<clipPath id="clip1_698_38819">
<rect width="38" height="32" fill="white" transform="translate(46.4795 169)"/>
</clipPath>
</defs>
</svg>
