<svg width="32" height="32" viewBox="0 0 32 32" fill="none" xmlns="http://www.w3.org/2000/svg">
<g clip-path="url(#clip0_698_37709)">
<path opacity="0.3" d="M26.6668 10.6667L16.0002 17.3333L5.3335 10.6667V24H26.6668V10.6667ZM26.6668 8H5.3335L16.0002 14.6533L26.6668 8Z" fill="#F04259"/>
<path d="M5.33317 26.6668H26.6665C28.1332 26.6668 29.3332 25.4668 29.3332 24.0002V8.00016C29.3332 6.5335 28.1332 5.3335 26.6665 5.3335H5.33317C3.8665 5.3335 2.6665 6.5335 2.6665 8.00016V24.0002C2.6665 25.4668 3.8665 26.6668 5.33317 26.6668ZM26.6665 8.00016L15.9998 14.6535L5.33317 8.00016H26.6665ZM5.33317 10.6668L15.9998 17.3335L26.6665 10.6668V24.0002H5.33317V10.6668Z" fill="#F04259"/>
</g>
<defs>
<clipPath id="clip0_698_37709">
<rect width="32" height="32" fill="white"/>
</clipPath>
</defs>
</svg>
