<svg width="32" height="32" viewBox="0 0 32 32" fill="none" xmlns="http://www.w3.org/2000/svg">
<g clip-path="url(#clip0_698_38849)">
<path d="M16.0002 8.00008C17.4729 8.00008 18.6668 6.80617 18.6668 5.33341C18.6668 3.86066 17.4729 2.66675 16.0002 2.66675C14.5274 2.66675 13.3335 3.86066 13.3335 5.33341C13.3335 6.80617 14.5274 8.00008 16.0002 8.00008Z" fill="#F04259"/>
<path d="M21.1868 10.8134C20.6668 10.2934 19.7735 9.33342 18.0402 9.33342C17.7602 9.33342 16.1468 9.33342 14.6535 9.33342C10.9868 9.32008 8.00016 6.33341 8.00016 2.66675H5.3335C5.3335 6.88008 8.14683 10.4534 12.0002 11.6134V29.3334H14.6668V21.3334H17.3335V29.3334H20.0002V13.4001L25.2668 18.6667L27.1468 16.7867L21.1868 10.8134Z" fill="#F04259"/>
</g>
<defs>
<clipPath id="clip0_698_38849">
<rect width="32" height="32" fill="white"/>
</clipPath>
</defs>
</svg>
