<svg width="331" height="334" viewBox="0 0 331 334" fill="none" xmlns="http://www.w3.org/2000/svg">
<g filter="url(#filter0_dddd_698_38564)">
<rect x="4" y="2" width="313" height="343" rx="15.4748" fill="white"/>
<rect x="4.38687" y="2.38687" width="312.226" height="342.226" rx="15.088" stroke="#E7E8EC" stroke-width="0.773741"/>
<path d="M82.1102 46.24C81.2942 46.24 80.5769 46.12 79.9582 45.88C79.3449 45.64 78.8275 45.3333 78.4062 44.96C77.9849 44.5813 77.6569 44.1867 77.4222 43.776L79.2622 42.496C79.3902 42.7627 79.5715 43.0267 79.8062 43.288C80.0409 43.5493 80.3529 43.7653 80.7422 43.936C81.1315 44.1067 81.6195 44.192 82.2062 44.192C82.7609 44.192 83.2062 44.112 83.5422 43.952C83.8835 43.792 84.1289 43.5867 84.2782 43.336C84.4329 43.0853 84.5102 42.8213 84.5102 42.544C84.5102 42.176 84.4009 41.8933 84.1822 41.696C83.9689 41.4987 83.6915 41.3627 83.3502 41.288C83.0089 41.208 82.6489 41.1627 82.2702 41.152C81.9022 41.1413 81.6355 41.1333 81.4702 41.128C81.3102 41.1227 81.2009 41.12 81.1422 41.12C81.0889 41.12 81.0382 41.12 80.9902 41.12V39.072C81.0595 39.072 81.1609 39.072 81.2942 39.072C81.4329 39.072 81.5715 39.072 81.7102 39.072C81.8542 39.0667 81.9715 39.0613 82.0622 39.056C82.6222 39.0293 83.0889 38.9067 83.4622 38.688C83.8409 38.4693 84.0302 38.128 84.0302 37.664C84.0302 37.2373 83.8622 36.8987 83.5262 36.648C83.1955 36.3973 82.7502 36.272 82.1902 36.272C81.6622 36.272 81.1902 36.3867 80.7742 36.616C80.3635 36.84 80.0622 37.088 79.8702 37.36L78.3822 35.76C78.7822 35.344 79.3182 34.9867 79.9902 34.688C80.6622 34.3893 81.4169 34.24 82.2542 34.24C82.7609 34.24 83.2569 34.3067 83.7422 34.44C84.2275 34.568 84.6649 34.768 85.0542 35.04C85.4435 35.3067 85.7529 35.6507 85.9822 36.072C86.2169 36.4933 86.3342 36.9973 86.3342 37.584C86.3342 38.08 86.2462 38.5493 86.0702 38.992C85.8942 39.4293 85.6409 39.7973 85.3102 40.096C85.7902 40.3093 86.1609 40.6187 86.4222 41.024C86.6835 41.4293 86.8142 41.936 86.8142 42.544C86.8142 43.3067 86.6009 43.9653 86.1742 44.52C85.7529 45.0693 85.1849 45.4933 84.4702 45.792C83.7609 46.0907 82.9742 46.24 82.1102 46.24ZM90.6541 46.24C90.0354 46.24 89.5101 46.1227 89.0781 45.888C88.6514 45.648 88.3261 45.3307 88.1021 44.936C87.8834 44.536 87.7741 44.096 87.7741 43.616C87.7741 43.216 87.8354 42.8507 87.9581 42.52C88.0807 42.1893 88.2781 41.8987 88.5501 41.648C88.8274 41.392 89.1981 41.1787 89.6621 41.008C89.9821 40.8907 90.3634 40.7867 90.8061 40.696C91.2487 40.6053 91.7501 40.52 92.3101 40.44C92.8701 40.3547 93.4861 40.2613 94.1581 40.16L93.3741 40.592C93.3741 40.08 93.2514 39.704 93.0061 39.464C92.7607 39.224 92.3501 39.104 91.7741 39.104C91.4541 39.104 91.1207 39.1813 90.7741 39.336C90.4274 39.4907 90.1847 39.7653 90.0461 40.16L88.0781 39.536C88.2967 38.8213 88.7074 38.24 89.3101 37.792C89.9127 37.344 90.7341 37.12 91.7741 37.12C92.5367 37.12 93.2141 37.2373 93.8061 37.472C94.3981 37.7067 94.8461 38.112 95.1501 38.688C95.3207 39.008 95.4221 39.328 95.4541 39.648C95.4861 39.968 95.5021 40.3253 95.5021 40.72V46H93.5981V44.224L93.8701 44.592C93.4487 45.1733 92.9927 45.5947 92.5021 45.856C92.0167 46.112 91.4007 46.24 90.6541 46.24ZM91.1181 44.528C91.5181 44.528 91.8541 44.4587 92.1261 44.32C92.4034 44.176 92.6221 44.0133 92.7821 43.832C92.9474 43.6507 93.0594 43.4987 93.1181 43.376C93.2301 43.1413 93.2941 42.8693 93.3101 42.56C93.3314 42.2453 93.3421 41.984 93.3421 41.776L93.9821 41.936C93.3367 42.0427 92.8141 42.1333 92.4141 42.208C92.0141 42.2773 91.6914 42.3413 91.4461 42.4C91.2007 42.4587 90.9847 42.5227 90.7981 42.592C90.5847 42.6773 90.4114 42.7707 90.2781 42.872C90.1501 42.968 90.0541 43.0747 89.9901 43.192C89.9314 43.3093 89.9021 43.44 89.9021 43.584C89.9021 43.7813 89.9501 43.952 90.0461 44.096C90.1474 44.2347 90.2887 44.3413 90.4701 44.416C90.6514 44.4907 90.8674 44.528 91.1181 44.528ZM97.2462 46V37.36H104.958V46H102.782V39.392H99.4222V46H97.2462ZM110.768 46.24C109.898 46.24 109.136 46.0453 108.48 45.656C107.824 45.2667 107.312 44.7307 106.944 44.048C106.581 43.36 106.4 42.5707 106.4 41.68C106.4 40.7787 106.586 39.9867 106.96 39.304C107.333 38.616 107.848 38.08 108.504 37.696C109.16 37.312 109.914 37.12 110.768 37.12C111.637 37.12 112.4 37.3147 113.056 37.704C113.717 38.0933 114.232 38.632 114.6 39.32C114.968 40.0027 115.152 40.7893 115.152 41.68C115.152 42.576 114.965 43.368 114.592 44.056C114.224 44.7387 113.709 45.2747 113.048 45.664C112.392 46.048 111.632 46.24 110.768 46.24ZM110.768 44.208C111.466 44.208 111.986 43.9733 112.328 43.504C112.674 43.0293 112.848 42.4213 112.848 41.68C112.848 40.912 112.672 40.2987 112.32 39.84C111.973 39.3813 111.456 39.152 110.768 39.152C110.293 39.152 109.904 39.2587 109.6 39.472C109.296 39.6853 109.069 39.9813 108.92 40.36C108.776 40.7387 108.704 41.1787 108.704 41.68C108.704 42.4533 108.877 43.0693 109.224 43.528C109.576 43.9813 110.09 44.208 110.768 44.208ZM116.575 46V37.36H120.623C120.943 37.36 121.223 37.3787 121.463 37.416C121.703 37.448 121.903 37.488 122.063 37.536C122.458 37.6533 122.818 37.8827 123.143 38.224C123.468 38.5653 123.631 39.0613 123.631 39.712C123.631 40.096 123.57 40.408 123.447 40.648C123.324 40.8827 123.162 41.0773 122.959 41.232C122.863 41.3013 122.767 41.36 122.671 41.408C122.575 41.456 122.479 41.4933 122.383 41.52C122.607 41.552 122.81 41.6107 122.991 41.696C123.279 41.824 123.53 42.0267 123.743 42.304C123.956 42.576 124.063 42.9813 124.063 43.52C124.063 44.096 123.922 44.5867 123.639 44.992C123.362 45.3973 122.943 45.68 122.383 45.84C122.191 45.8933 121.964 45.9333 121.703 45.96C121.447 45.9867 121.178 46 120.895 46H116.575ZM118.783 44.352H120.735C120.847 44.352 120.962 44.3413 121.079 44.32C121.202 44.2933 121.311 44.2613 121.407 44.224C121.562 44.16 121.671 44.0507 121.735 43.896C121.804 43.7413 121.839 43.584 121.839 43.424C121.839 43.2 121.788 43.024 121.687 42.896C121.591 42.768 121.482 42.6773 121.359 42.624C121.258 42.576 121.146 42.5493 121.023 42.544C120.906 42.5333 120.81 42.528 120.735 42.528H118.783V44.352ZM118.783 40.848H120.111C120.282 40.848 120.442 40.84 120.591 40.824C120.746 40.8027 120.874 40.768 120.975 40.72C121.114 40.656 121.218 40.5547 121.287 40.416C121.356 40.272 121.391 40.112 121.391 39.936C121.391 39.7493 121.351 39.5813 121.271 39.432C121.196 39.2773 121.071 39.1733 120.895 39.12C120.778 39.0773 120.628 39.0533 120.447 39.048C120.271 39.0427 120.159 39.04 120.111 39.04H118.783V40.848ZM125.333 46V37.36H127.509V40.656H131.061V37.36H133.237V46H131.061V42.688H127.509V46H125.333ZM135.314 36.16V34.24H137.49V36.16H135.314ZM135.314 46V37.36H137.49V46H135.314ZM141.68 46V39.28H138.848V37.36H146.688V39.28H143.856V46H141.68ZM147.873 46V37.36H150.049V40.112H151.441C151.681 40.112 151.961 40.1173 152.281 40.128C152.601 40.1387 152.865 40.1653 153.073 40.208C153.58 40.32 154.006 40.4987 154.353 40.744C154.7 40.9893 154.961 41.3067 155.137 41.696C155.318 42.08 155.409 42.5387 155.409 43.072C155.409 43.84 155.209 44.4587 154.809 44.928C154.414 45.392 153.841 45.712 153.089 45.888C152.881 45.936 152.614 45.968 152.289 45.984C151.964 45.9947 151.681 46 151.441 46H147.873ZM150.049 44.32H151.681C151.777 44.32 151.884 44.3147 152.001 44.304C152.118 44.2933 152.236 44.272 152.353 44.24C152.577 44.176 152.774 44.0347 152.945 43.816C153.116 43.5973 153.201 43.3493 153.201 43.072C153.201 42.768 153.113 42.5093 152.937 42.296C152.761 42.0773 152.556 41.936 152.321 41.872C152.209 41.84 152.097 41.8187 151.985 41.808C151.873 41.7973 151.772 41.792 151.681 41.792H150.049V44.32ZM159.093 47.92V44.32C159.552 44.32 159.877 44.16 160.069 43.84C160.267 43.52 160.421 42.9493 160.533 42.128C160.597 41.6533 160.651 41.1547 160.693 40.632C160.741 40.1093 160.781 39.5733 160.813 39.024C160.845 38.4747 160.875 37.92 160.901 37.36H167.573V44.32H168.453V47.92H166.405V46H161.141V47.92H159.093ZM161.877 44.32H165.397V39.04H162.789C162.773 39.3333 162.755 39.6267 162.733 39.92C162.717 40.2133 162.696 40.504 162.669 40.792C162.648 41.08 162.627 41.36 162.605 41.632C162.584 41.8987 162.56 42.1547 162.533 42.4C162.485 42.8693 162.419 43.2507 162.333 43.544C162.248 43.8373 162.096 44.096 161.877 44.32ZM172.126 46.24C171.507 46.24 170.982 46.1227 170.55 45.888C170.123 45.648 169.798 45.3307 169.574 44.936C169.355 44.536 169.246 44.096 169.246 43.616C169.246 43.216 169.307 42.8507 169.43 42.52C169.553 42.1893 169.75 41.8987 170.022 41.648C170.299 41.392 170.67 41.1787 171.134 41.008C171.454 40.8907 171.835 40.7867 172.278 40.696C172.721 40.6053 173.222 40.52 173.782 40.44C174.342 40.3547 174.958 40.2613 175.63 40.16L174.846 40.592C174.846 40.08 174.723 39.704 174.478 39.464C174.233 39.224 173.822 39.104 173.246 39.104C172.926 39.104 172.593 39.1813 172.246 39.336C171.899 39.4907 171.657 39.7653 171.518 40.16L169.55 39.536C169.769 38.8213 170.179 38.24 170.782 37.792C171.385 37.344 172.206 37.12 173.246 37.12C174.009 37.12 174.686 37.2373 175.278 37.472C175.87 37.7067 176.318 38.112 176.622 38.688C176.793 39.008 176.894 39.328 176.926 39.648C176.958 39.968 176.974 40.3253 176.974 40.72V46H175.07V44.224L175.342 44.592C174.921 45.1733 174.465 45.5947 173.974 45.856C173.489 46.112 172.873 46.24 172.126 46.24ZM172.59 44.528C172.99 44.528 173.326 44.4587 173.598 44.32C173.875 44.176 174.094 44.0133 174.254 43.832C174.419 43.6507 174.531 43.4987 174.59 43.376C174.702 43.1413 174.766 42.8693 174.782 42.56C174.803 42.2453 174.814 41.984 174.814 41.776L175.454 41.936C174.809 42.0427 174.286 42.1333 173.886 42.208C173.486 42.2773 173.163 42.3413 172.918 42.4C172.673 42.4587 172.457 42.5227 172.27 42.592C172.057 42.6773 171.883 42.7707 171.75 42.872C171.622 42.968 171.526 43.0747 171.462 43.192C171.403 43.3093 171.374 43.44 171.374 43.584C171.374 43.7813 171.422 43.952 171.518 44.096C171.619 44.2347 171.761 44.3413 171.942 44.416C172.123 44.4907 172.339 44.528 172.59 44.528ZM178.718 46V37.36H180.894V40.656H184.446V37.36H186.622V46H184.446V42.688H180.894V46H178.718ZM188.699 36.16V34.24H190.875V36.16H188.699ZM188.699 46V37.36H190.875V46H188.699ZM195.821 46V37.36H197.997V40.656H201.549V37.36H203.725V46H201.549V42.688H197.997V46H195.821ZM213.338 37.36V46H211.258V40.72L207.354 46H205.626V37.36H207.706V42.464L211.626 37.36H213.338ZM214.299 46L217.307 41.68L214.507 37.36H216.875L219.483 41.52V37.36H221.403V41.52L224.011 37.36H226.379L223.579 41.68L226.587 46H224.075L221.403 41.84V46H219.483V41.84L216.811 46H214.299ZM232.492 46V43.2C232.188 43.3493 231.852 43.464 231.484 43.544C231.122 43.624 230.743 43.664 230.348 43.664C229.452 43.664 228.74 43.4613 228.212 43.056C227.69 42.6507 227.351 42.064 227.196 41.296C227.154 41.0773 227.122 40.8507 227.1 40.616C227.084 40.3813 227.074 40.168 227.068 39.976C227.068 39.7787 227.068 39.6267 227.068 39.52V37.36H229.276V39.52C229.276 39.6213 229.282 39.7867 229.292 40.016C229.303 40.24 229.335 40.464 229.388 40.688C229.484 41.0613 229.647 41.3307 229.876 41.496C230.111 41.6613 230.444 41.744 230.876 41.744C231.244 41.744 231.559 41.696 231.82 41.6C232.087 41.4987 232.311 41.376 232.492 41.232V37.36H234.684V46H232.492ZM240.619 46.24C239.734 46.24 238.953 46.0507 238.275 45.672C237.603 45.288 237.075 44.7627 236.691 44.096C236.313 43.424 236.123 42.656 236.123 41.792C236.123 40.848 236.31 40.0267 236.683 39.328C237.057 38.6293 237.571 38.088 238.227 37.704C238.883 37.3147 239.638 37.12 240.491 37.12C241.398 37.12 242.169 37.3333 242.803 37.76C243.438 38.1867 243.907 38.7867 244.211 39.56C244.515 40.3333 244.622 41.2427 244.531 42.288H242.379V41.488C242.379 40.608 242.238 39.976 241.955 39.592C241.678 39.2027 241.222 39.008 240.587 39.008C239.846 39.008 239.299 39.2347 238.947 39.688C238.601 40.136 238.427 40.8 238.427 41.68C238.427 42.4853 238.601 43.1093 238.947 43.552C239.299 43.9893 239.814 44.208 240.491 44.208C240.918 44.208 241.283 44.1147 241.587 43.928C241.891 43.7413 242.123 43.472 242.283 43.12L244.459 43.744C244.134 44.5333 243.619 45.1467 242.915 45.584C242.217 46.0213 241.451 46.24 240.619 46.24ZM237.755 42.288V40.672H243.483V42.288H237.755Z" fill="#292424"/>
<path d="M51.3441 68.0285V67H45.1511V59.08H45.9596V66.252H50.5026V59.1515H51.3111V66.252H52.1526V68.0285H51.3441ZM55.3294 67.165C54.75 67.165 54.2477 67.0367 53.8224 66.78C53.4007 66.5233 53.0725 66.1622 52.8379 65.6965C52.6032 65.2308 52.4859 64.6845 52.4859 64.0575C52.4859 63.4085 52.6014 62.8475 52.8324 62.3745C53.0634 61.9015 53.3879 61.5367 53.8059 61.28C54.2275 61.0233 54.7244 60.895 55.2964 60.895C55.883 60.895 56.3835 61.0307 56.7979 61.302C57.2122 61.5697 57.5257 61.9547 57.7384 62.457C57.951 62.9593 58.0482 63.5588 58.0299 64.2555H57.2049V63.9695C57.1902 63.1995 57.0234 62.6183 56.7044 62.226C56.389 61.8337 55.927 61.6375 55.3184 61.6375C54.6804 61.6375 54.1909 61.8447 53.8499 62.259C53.5125 62.6733 53.3439 63.2637 53.3439 64.03C53.3439 64.778 53.5125 65.3592 53.8499 65.7735C54.1909 66.1842 54.673 66.3895 55.2964 66.3895C55.7217 66.3895 56.092 66.2923 56.4074 66.098C56.7264 65.9 56.9775 65.6158 57.1609 65.2455L57.9144 65.537C57.6797 66.054 57.3332 66.4555 56.8749 66.7415C56.4202 67.0238 55.905 67.165 55.3294 67.165ZM53.0579 64.2555V63.579H57.5954V64.2555H53.0579ZM60.5726 68.32V66.307C60.9099 66.307 61.1519 66.1988 61.2986 65.9825C61.4452 65.7625 61.5644 65.4123 61.6561 64.932C61.7184 64.6203 61.7697 64.2848 61.8101 63.9255C61.8504 63.5662 61.8852 63.1555 61.9146 62.6935C61.9439 62.2278 61.9714 61.6833 61.9971 61.06H65.9241V66.307H66.4961V68.32H65.7151V67H61.3481V68.32H60.5726ZM61.9421 66.307H65.1211V61.753H62.7451C62.7341 62.0317 62.7176 62.3268 62.6956 62.6385C62.6772 62.9502 62.6534 63.2618 62.6241 63.5735C62.5984 63.8852 62.5672 64.1785 62.5306 64.4535C62.4976 64.7248 62.4572 64.9632 62.4096 65.1685C62.3546 65.4325 62.2941 65.658 62.2281 65.845C62.1657 66.032 62.0704 66.186 61.9421 66.307ZM69.858 67.165C69.2677 67.165 68.7635 67.0312 68.3455 66.7635C67.9275 66.4958 67.6067 66.1255 67.383 65.6525C67.1594 65.1795 67.0475 64.6368 67.0475 64.0245C67.0475 63.4012 67.1612 62.8548 67.3885 62.3855C67.6159 61.9162 67.9385 61.5513 68.3565 61.291C68.7782 61.027 69.2787 60.895 69.858 60.895C70.452 60.895 70.958 61.0288 71.376 61.2965C71.7977 61.5605 72.1185 61.929 72.3385 62.402C72.5622 62.8713 72.674 63.4122 72.674 64.0245C72.674 64.6478 72.5622 65.196 72.3385 65.669C72.1149 66.1383 71.7922 66.505 71.3705 66.769C70.9489 67.033 70.4447 67.165 69.858 67.165ZM69.858 66.3895C70.518 66.3895 71.0094 66.1713 71.332 65.735C71.6547 65.295 71.816 64.7248 71.816 64.0245C71.816 63.3058 71.6529 62.7338 71.3265 62.3085C71.0039 61.8832 70.5144 61.6705 69.858 61.6705C69.4144 61.6705 69.0477 61.7713 68.758 61.973C68.472 62.171 68.2575 62.4478 68.1145 62.8035C67.9752 63.1555 67.9055 63.5625 67.9055 64.0245C67.9055 64.7395 68.0705 65.3133 68.4005 65.746C68.7305 66.175 69.2164 66.3895 69.858 66.3895ZM73.6618 67V61.06H78.3863V67H77.5778V61.8355H74.4703V67H73.6618ZM82.1905 67.165C81.6002 67.165 81.096 67.0312 80.678 66.7635C80.26 66.4958 79.9392 66.1255 79.7155 65.6525C79.4918 65.1795 79.38 64.6368 79.38 64.0245C79.38 63.4012 79.4937 62.8548 79.721 62.3855C79.9483 61.9162 80.271 61.5513 80.689 61.291C81.1107 61.027 81.6112 60.895 82.1905 60.895C82.7845 60.895 83.2905 61.0288 83.7085 61.2965C84.1302 61.5605 84.451 61.929 84.671 62.402C84.8947 62.8713 85.0065 63.4122 85.0065 64.0245C85.0065 64.6478 84.8947 65.196 84.671 65.669C84.4473 66.1383 84.1247 66.505 83.703 66.769C83.2813 67.033 82.7772 67.165 82.1905 67.165ZM82.1905 66.3895C82.8505 66.3895 83.3418 66.1713 83.6645 65.735C83.9872 65.295 84.1485 64.7248 84.1485 64.0245C84.1485 63.3058 83.9853 62.7338 83.659 62.3085C83.3363 61.8832 82.8468 61.6705 82.1905 61.6705C81.7468 61.6705 81.3802 61.7713 81.0905 61.973C80.8045 62.171 80.59 62.4478 80.447 62.8035C80.3077 63.1555 80.238 63.5625 80.238 64.0245C80.238 64.7395 80.403 65.3133 80.733 65.746C81.063 66.175 81.5488 66.3895 82.1905 66.3895ZM85.9943 67V61.06H86.7148L89.0303 65.922L91.3513 61.06H92.0663V67H91.2853V62.787L89.2888 67H88.7773L86.7808 62.787V67H85.9943ZM95.8657 67.165C95.2754 67.165 94.7712 67.0312 94.3532 66.7635C93.9352 66.4958 93.6144 66.1255 93.3907 65.6525C93.1671 65.1795 93.0552 64.6368 93.0552 64.0245C93.0552 63.4012 93.1689 62.8548 93.3962 62.3855C93.6236 61.9162 93.9462 61.5513 94.3642 61.291C94.7859 61.027 95.2864 60.895 95.8657 60.895C96.4597 60.895 96.9657 61.0288 97.3837 61.2965C97.8054 61.5605 98.1262 61.929 98.3462 62.402C98.5699 62.8713 98.6817 63.4122 98.6817 64.0245C98.6817 64.6478 98.5699 65.196 98.3462 65.669C98.1226 66.1383 97.7999 66.505 97.3782 66.769C96.9566 67.033 96.4524 67.165 95.8657 67.165ZM95.8657 66.3895C96.5257 66.3895 97.0171 66.1713 97.3397 65.735C97.6624 65.295 97.8237 64.7248 97.8237 64.0245C97.8237 63.3058 97.6606 62.7338 97.3342 62.3085C97.0116 61.8832 96.5221 61.6705 95.8657 61.6705C95.4221 61.6705 95.0554 61.7713 94.7657 61.973C94.4797 62.171 94.2652 62.4478 94.1222 62.8035C93.9829 63.1555 93.9132 63.5625 93.9132 64.0245C93.9132 64.7395 94.0782 65.3133 94.4082 65.746C94.7382 66.175 95.2241 66.3895 95.8657 66.3895ZM98.9076 67L101.416 64.03L99.0121 61.06H99.9251L102.268 63.9915V61.06H103.016V63.9915L105.359 61.06H106.267L103.863 64.03L106.371 67H105.431L103.016 64.0685V67H102.268V64.0685L99.8481 67H98.9076ZM109.327 67.165C108.748 67.165 108.245 67.0367 107.82 66.78C107.398 66.5233 107.07 66.1622 106.835 65.6965C106.601 65.2308 106.483 64.6845 106.483 64.0575C106.483 63.4085 106.599 62.8475 106.83 62.3745C107.061 61.9015 107.385 61.5367 107.803 61.28C108.225 61.0233 108.722 60.895 109.294 60.895C109.881 60.895 110.381 61.0307 110.795 61.302C111.21 61.5697 111.523 61.9547 111.736 62.457C111.949 62.9593 112.046 63.5588 112.027 64.2555H111.202V63.9695C111.188 63.1995 111.021 62.6183 110.702 62.226C110.387 61.8337 109.925 61.6375 109.316 61.6375C108.678 61.6375 108.188 61.8447 107.847 62.259C107.51 62.6733 107.341 63.2637 107.341 64.03C107.341 64.778 107.51 65.3592 107.847 65.7735C108.188 66.1842 108.671 66.3895 109.294 66.3895C109.719 66.3895 110.09 66.2923 110.405 66.098C110.724 65.9 110.975 65.6158 111.158 65.2455L111.912 65.537C111.677 66.054 111.331 66.4555 110.872 66.7415C110.418 67.0238 109.903 67.165 109.327 67.165ZM107.055 64.2555V63.579H111.593V64.2555H107.055ZM115.005 67V61.06H115.813V63.6395H119.163V61.06H119.971V67H119.163V64.415H115.813V67H115.005ZM122.989 67.165C122.541 67.165 122.165 67.0843 121.861 66.923C121.56 66.7617 121.335 66.5472 121.185 66.2795C121.034 66.0118 120.959 65.7203 120.959 65.405C120.959 65.0823 121.023 64.8073 121.152 64.58C121.284 64.349 121.461 64.1602 121.685 64.0135C121.912 63.8668 122.175 63.755 122.472 63.678C122.772 63.6047 123.104 63.5405 123.467 63.4855C123.834 63.4268 124.191 63.3773 124.54 63.337C124.892 63.293 125.2 63.2508 125.464 63.2105L125.178 63.3865C125.189 62.7998 125.075 62.3653 124.837 62.083C124.598 61.8007 124.184 61.6595 123.594 61.6595C123.187 61.6595 122.842 61.7512 122.56 61.9345C122.281 62.1178 122.085 62.4075 121.971 62.8035L121.185 62.5725C121.32 62.0408 121.593 61.6283 122.004 61.335C122.415 61.0417 122.948 60.895 123.605 60.895C124.147 60.895 124.607 60.9977 124.985 61.203C125.366 61.4047 125.636 61.698 125.794 62.083C125.867 62.2553 125.915 62.4478 125.937 62.6605C125.959 62.8732 125.97 63.0895 125.97 63.3095V67H125.249V65.5095L125.458 65.5975C125.256 66.1072 124.943 66.4958 124.518 66.7635C124.092 67.0312 123.583 67.165 122.989 67.165ZM123.082 66.4665C123.46 66.4665 123.79 66.3987 124.072 66.263C124.354 66.1273 124.582 65.9422 124.754 65.7075C124.926 65.4692 125.038 65.2015 125.09 64.9045C125.134 64.7138 125.157 64.5048 125.161 64.2775C125.165 64.0465 125.167 63.8742 125.167 63.7605L125.475 63.92C125.2 63.9567 124.901 63.9933 124.578 64.03C124.259 64.0667 123.944 64.1088 123.632 64.1565C123.324 64.2042 123.045 64.261 122.796 64.327C122.627 64.3747 122.464 64.4425 122.307 64.5305C122.149 64.6148 122.019 64.7285 121.916 64.8715C121.817 65.0145 121.768 65.1923 121.768 65.405C121.768 65.5773 121.81 65.7442 121.894 65.9055C121.982 66.0668 122.121 66.2007 122.312 66.307C122.506 66.4133 122.763 66.4665 123.082 66.4665ZM127.176 67V61.06H127.896L130.212 65.922L132.533 61.06H133.248V67H132.467V62.787L130.47 67H129.959L127.962 62.787V67H127.176ZM136.544 67V61.06H141.268V67H140.46V61.8355H137.352V67H136.544ZM145.105 67.165C144.526 67.165 144.024 67.0367 143.598 66.78C143.177 66.5233 142.848 66.1622 142.614 65.6965C142.379 65.2308 142.262 64.6845 142.262 64.0575C142.262 63.4085 142.377 62.8475 142.608 62.3745C142.839 61.9015 143.164 61.5367 143.582 61.28C144.003 61.0233 144.5 60.895 145.072 60.895C145.659 60.895 146.159 61.0307 146.574 61.302C146.988 61.5697 147.302 61.9547 147.514 62.457C147.727 62.9593 147.824 63.5588 147.806 64.2555H146.981V63.9695C146.966 63.1995 146.799 62.6183 146.48 62.226C146.165 61.8337 145.703 61.6375 145.094 61.6375C144.456 61.6375 143.967 61.8447 143.626 62.259C143.288 62.6733 143.12 63.2637 143.12 64.03C143.12 64.778 143.288 65.3592 143.626 65.7735C143.967 66.1842 144.449 66.3895 145.072 66.3895C145.498 66.3895 145.868 66.2923 146.183 66.098C146.502 65.9 146.753 65.6158 146.937 65.2455L147.69 65.537C147.456 66.054 147.109 66.4555 146.651 66.7415C146.196 67.0238 145.681 67.165 145.105 67.165ZM142.834 64.2555V63.579H147.371V64.2555H142.834ZM151.474 67.165C150.927 67.165 150.465 67.0275 150.088 66.7525C149.71 66.4738 149.424 66.098 149.23 65.625C149.035 65.1483 148.938 64.6148 148.938 64.0245C148.938 63.4232 149.035 62.8878 149.23 62.4185C149.428 61.9455 149.717 61.5733 150.099 61.302C150.48 61.0307 150.949 60.895 151.507 60.895C152.049 60.895 152.515 61.0325 152.904 61.3075C153.292 61.5825 153.589 61.9565 153.795 62.4295C154.004 62.9025 154.108 63.4342 154.108 64.0245C154.108 64.6185 154.004 65.152 153.795 65.625C153.586 66.098 153.285 66.4738 152.893 66.7525C152.5 67.0275 152.027 67.165 151.474 67.165ZM148.801 69.64V61.06H149.527V65.5315H149.615V69.64H148.801ZM151.391 66.4115C151.806 66.4115 152.15 66.307 152.425 66.098C152.7 65.889 152.906 65.6048 153.041 65.2455C153.181 64.8825 153.25 64.4755 153.25 64.0245C153.25 63.5772 153.182 63.1738 153.047 62.8145C152.911 62.4552 152.704 62.171 152.425 61.962C152.15 61.753 151.8 61.6485 151.375 61.6485C150.96 61.6485 150.616 61.7493 150.341 61.951C150.069 62.1527 149.866 62.4332 149.73 62.7925C149.595 63.1482 149.527 63.5588 149.527 64.0245C149.527 64.4828 149.595 64.8935 149.73 65.2565C149.866 65.6158 150.071 65.8982 150.346 66.1035C150.621 66.3088 150.97 66.4115 151.391 66.4115ZM157.56 67.165C156.962 67.165 156.456 67.0312 156.042 66.7635C155.628 66.4958 155.312 66.1273 155.096 65.658C154.883 65.185 154.773 64.6423 154.766 64.03C154.773 63.4067 154.887 62.8603 155.107 62.391C155.327 61.918 155.644 61.5513 156.059 61.291C156.473 61.027 156.975 60.895 157.566 60.895C158.167 60.895 158.689 61.0417 159.133 61.335C159.58 61.6283 159.887 62.0298 160.052 62.5395L159.26 62.7925C159.12 62.4368 158.898 62.1618 158.594 61.9675C158.293 61.7695 157.949 61.6705 157.56 61.6705C157.124 61.6705 156.763 61.7713 156.477 61.973C156.191 62.171 155.978 62.4478 155.839 62.8035C155.699 63.1592 155.628 63.568 155.624 64.03C155.631 64.7413 155.796 65.3133 156.119 65.746C156.442 66.175 156.922 66.3895 157.56 66.3895C157.963 66.3895 158.306 66.2978 158.589 66.1145C158.875 65.9275 159.091 65.6562 159.238 65.3005L160.052 65.5425C159.832 66.0705 159.509 66.4738 159.084 66.7525C158.658 67.0275 158.15 67.165 157.56 67.165ZM163.286 67.165C162.696 67.165 162.192 67.0312 161.774 66.7635C161.356 66.4958 161.035 66.1255 160.811 65.6525C160.588 65.1795 160.476 64.6368 160.476 64.0245C160.476 63.4012 160.589 62.8548 160.817 62.3855C161.044 61.9162 161.367 61.5513 161.785 61.291C162.206 61.027 162.707 60.895 163.286 60.895C163.88 60.895 164.386 61.0288 164.804 61.2965C165.226 61.5605 165.547 61.929 165.767 62.402C165.99 62.8713 166.102 63.4122 166.102 64.0245C166.102 64.6478 165.99 65.196 165.767 65.669C165.543 66.1383 165.22 66.505 164.799 66.769C164.377 67.033 163.873 67.165 163.286 67.165ZM163.286 66.3895C163.946 66.3895 164.438 66.1713 164.76 65.735C165.083 65.295 165.244 64.7248 165.244 64.0245C165.244 63.3058 165.081 62.7338 164.755 62.3085C164.432 61.8832 163.943 61.6705 163.286 61.6705C162.843 61.6705 162.476 61.7713 162.186 61.973C161.9 62.171 161.686 62.4478 161.543 62.8035C161.403 63.1555 161.334 63.5625 161.334 64.0245C161.334 64.7395 161.499 65.3133 161.829 65.746C162.159 66.175 162.645 66.3895 163.286 66.3895ZM167.09 67V61.06H167.899V63.6395H171.248V61.06H172.057V67H171.248V64.415H167.899V67H167.09ZM175.074 67.165C174.627 67.165 174.251 67.0843 173.947 66.923C173.646 66.7617 173.42 66.5472 173.27 66.2795C173.12 66.0118 173.045 65.7203 173.045 65.405C173.045 65.0823 173.109 64.8073 173.237 64.58C173.369 64.349 173.547 64.1602 173.771 64.0135C173.998 63.8668 174.26 63.755 174.557 63.678C174.858 63.6047 175.19 63.5405 175.553 63.4855C175.919 63.4268 176.277 63.3773 176.625 63.337C176.977 63.293 177.285 63.2508 177.549 63.2105L177.263 63.3865C177.274 62.7998 177.16 62.3653 176.922 62.083C176.684 61.8007 176.269 61.6595 175.679 61.6595C175.272 61.6595 174.927 61.7512 174.645 61.9345C174.366 62.1178 174.17 62.4075 174.057 62.8035L173.27 62.5725C173.406 62.0408 173.679 61.6283 174.09 61.335C174.5 61.0417 175.034 60.895 175.69 60.895C176.233 60.895 176.693 60.9977 177.071 61.203C177.452 61.4047 177.721 61.698 177.879 62.083C177.952 62.2553 178 62.4478 178.022 62.6605C178.044 62.8732 178.055 63.0895 178.055 63.3095V67H177.335V65.5095L177.544 65.5975C177.342 66.1072 177.028 66.4958 176.603 66.7635C176.178 67.0312 175.668 67.165 175.074 67.165ZM175.168 66.4665C175.545 66.4665 175.875 66.3987 176.158 66.263C176.44 66.1273 176.667 65.9422 176.84 65.7075C177.012 65.4692 177.124 65.2015 177.175 64.9045C177.219 64.7138 177.243 64.5048 177.247 64.2775C177.25 64.0465 177.252 63.8742 177.252 63.7605L177.56 63.92C177.285 63.9567 176.986 63.9933 176.664 64.03C176.345 64.0667 176.029 64.1088 175.718 64.1565C175.41 64.2042 175.131 64.261 174.882 64.327C174.713 64.3747 174.55 64.4425 174.392 64.5305C174.234 64.6148 174.104 64.7285 174.002 64.8715C173.903 65.0145 173.853 65.1923 173.853 65.405C173.853 65.5773 173.895 65.7442 173.98 65.9055C174.068 66.0668 174.207 66.2007 174.398 66.307C174.592 66.4133 174.849 66.4665 175.168 66.4665ZM178.717 67V66.2905C178.937 66.3308 179.104 66.3217 179.217 66.263C179.335 66.2007 179.421 66.098 179.476 65.955C179.531 65.8083 179.577 65.6268 179.613 65.4105C179.672 65.0512 179.725 64.6552 179.773 64.2225C179.821 63.7898 179.863 63.3132 179.899 62.7925C179.94 62.2682 179.98 61.6907 180.02 61.06H184.057V67H183.254V61.8355H180.768C180.743 62.2242 180.713 62.611 180.68 62.996C180.647 63.381 180.613 63.7513 180.576 64.107C180.543 64.459 180.506 64.7835 180.466 65.0805C180.426 65.3775 180.383 65.6342 180.339 65.8505C180.273 66.1768 180.185 66.4372 180.075 66.6315C179.969 66.8258 179.81 66.9542 179.597 67.0165C179.384 67.0788 179.091 67.0733 178.717 67ZM185.484 59.9325V59.025H186.293V59.9325H185.484ZM185.484 67V61.06H186.293V67H185.484ZM189.861 67.165C189.263 67.165 188.741 67.0348 188.293 66.7745C187.85 66.5105 187.5 66.1457 187.243 65.68L187.892 65.2675C188.108 65.6342 188.378 65.9128 188.7 66.1035C189.023 66.2942 189.393 66.3895 189.811 66.3895C190.248 66.3895 190.598 66.2887 190.862 66.087C191.126 65.8853 191.258 65.6085 191.258 65.2565C191.258 65.0145 191.201 64.822 191.087 64.679C190.977 64.536 190.809 64.4333 190.581 64.371C190.358 64.3087 190.077 64.2775 189.74 64.2775H189.036V63.5845H189.729C190.14 63.5845 190.47 63.5112 190.719 63.3645C190.972 63.2142 191.098 62.9795 191.098 62.6605C191.098 62.3232 190.972 62.0738 190.719 61.9125C190.47 61.7475 190.171 61.665 189.822 61.665C189.47 61.665 189.137 61.7383 188.821 61.885C188.51 62.028 188.248 62.2132 188.035 62.4405L187.518 61.896C187.815 61.5697 188.161 61.3222 188.557 61.1535C188.957 60.9812 189.399 60.895 189.883 60.895C190.264 60.895 190.609 60.9628 190.917 61.0985C191.229 61.2305 191.474 61.4248 191.654 61.6815C191.837 61.9382 191.929 62.2462 191.929 62.6055C191.929 62.9428 191.846 63.2343 191.681 63.48C191.52 63.7257 191.291 63.9292 190.994 64.0905L190.95 63.788C191.207 63.8357 191.419 63.9383 191.588 64.096C191.757 64.2537 191.881 64.4425 191.962 64.6625C192.043 64.8825 192.083 65.1062 192.083 65.3335C192.083 65.7112 191.984 66.0375 191.786 66.3125C191.592 66.5838 191.326 66.7947 190.988 66.945C190.655 67.0917 190.279 67.165 189.861 67.165ZM193.924 69.64L195.073 66.5215L195.09 67.4455L192.488 61.06H193.346L195.48 66.4005H195.128L197.097 61.06H197.922L194.732 69.64H193.924ZM198.652 67V61.06H201.099C201.224 61.06 201.374 61.0673 201.55 61.082C201.73 61.0967 201.897 61.1242 202.051 61.1645C202.385 61.2525 202.652 61.4322 202.854 61.7035C203.059 61.9748 203.162 62.3012 203.162 62.6825C203.162 62.8952 203.129 63.0858 203.063 63.2545C203.001 63.4195 202.911 63.5625 202.793 63.6835C202.738 63.7458 202.678 63.8008 202.612 63.8485C202.546 63.8925 202.482 63.9292 202.419 63.9585C202.537 63.9805 202.663 64.0318 202.799 64.1125C203.012 64.2372 203.173 64.4058 203.283 64.6185C203.393 64.8275 203.448 65.0823 203.448 65.383C203.448 65.79 203.351 66.1218 203.156 66.3785C202.962 66.6352 202.702 66.8112 202.375 66.9065C202.229 66.9468 202.069 66.9725 201.897 66.9835C201.728 66.9945 201.569 67 201.418 67H198.652ZM199.466 66.3125H201.38C201.457 66.3125 201.554 66.307 201.671 66.296C201.789 66.2813 201.893 66.263 201.985 66.241C202.201 66.186 202.359 66.076 202.458 65.911C202.561 65.7423 202.612 65.559 202.612 65.361C202.612 65.1007 202.535 64.888 202.381 64.723C202.231 64.5543 202.029 64.4517 201.776 64.415C201.692 64.3967 201.604 64.3857 201.512 64.382C201.42 64.3783 201.338 64.3765 201.264 64.3765H199.466V66.3125ZM199.466 63.6835H201.127C201.222 63.6835 201.329 63.678 201.446 63.667C201.567 63.6523 201.671 63.6285 201.759 63.5955C201.95 63.5295 202.089 63.4158 202.177 63.2545C202.269 63.0932 202.315 62.9172 202.315 62.7265C202.315 62.5175 202.265 62.3342 202.166 62.1765C202.071 62.0188 201.926 61.9088 201.732 61.8465C201.6 61.7988 201.457 61.7713 201.303 61.764C201.153 61.7567 201.057 61.753 201.017 61.753H199.466V63.6835ZM206.024 67.165C205.576 67.165 205.2 67.0843 204.896 66.923C204.595 66.7617 204.37 66.5472 204.22 66.2795C204.069 66.0118 203.994 65.7203 203.994 65.405C203.994 65.0823 204.058 64.8073 204.187 64.58C204.319 64.349 204.496 64.1602 204.72 64.0135C204.947 63.8668 205.21 63.755 205.507 63.678C205.807 63.6047 206.139 63.5405 206.502 63.4855C206.869 63.4268 207.226 63.3773 207.575 63.337C207.927 63.293 208.235 63.2508 208.499 63.2105L208.213 63.3865C208.224 62.7998 208.11 62.3653 207.872 62.083C207.633 61.8007 207.219 61.6595 206.629 61.6595C206.222 61.6595 205.877 61.7512 205.595 61.9345C205.316 62.1178 205.12 62.4075 205.006 62.8035L204.22 62.5725C204.355 62.0408 204.628 61.6283 205.039 61.335C205.45 61.0417 205.983 60.895 206.64 60.895C207.182 60.895 207.642 60.9977 208.02 61.203C208.401 61.4047 208.671 61.698 208.829 62.083C208.902 62.2553 208.95 62.4478 208.972 62.6605C208.994 62.8732 209.005 63.0895 209.005 63.3095V67H208.284V65.5095L208.493 65.5975C208.291 66.1072 207.978 66.4958 207.553 66.7635C207.127 67.0312 206.618 67.165 206.024 67.165ZM206.117 66.4665C206.495 66.4665 206.825 66.3987 207.107 66.263C207.389 66.1273 207.617 65.9422 207.789 65.7075C207.961 65.4692 208.073 65.2015 208.125 64.9045C208.169 64.7138 208.192 64.5048 208.196 64.2775C208.2 64.0465 208.202 63.8742 208.202 63.7605L208.51 63.92C208.235 63.9567 207.936 63.9933 207.613 64.03C207.294 64.0667 206.979 64.1088 206.667 64.1565C206.359 64.2042 206.08 64.261 205.831 64.327C205.662 64.3747 205.499 64.4425 205.342 64.5305C205.184 64.6148 205.054 64.7285 204.951 64.8715C204.852 65.0145 204.803 65.1923 204.803 65.405C204.803 65.5773 204.845 65.7442 204.929 65.9055C205.017 66.0668 205.156 66.2007 205.347 66.307C205.541 66.4133 205.798 66.4665 206.117 66.4665ZM211.828 67V61.808H209.721V61.06H214.743V61.808H212.636V67H211.828ZM220.291 61.06V67H219.504V62.3745L216.248 67H215.566V61.06H216.353V65.647L219.614 61.06H220.291ZM223.591 67V61.06H226.038C226.163 61.06 226.313 61.0673 226.489 61.082C226.669 61.0967 226.836 61.1242 226.99 61.1645C227.324 61.2525 227.591 61.4322 227.793 61.7035C227.998 61.9748 228.101 62.3012 228.101 62.6825C228.101 62.8952 228.068 63.0858 228.002 63.2545C227.94 63.4195 227.85 63.5625 227.732 63.6835C227.677 63.7458 227.617 63.8008 227.551 63.8485C227.485 63.8925 227.421 63.9292 227.358 63.9585C227.476 63.9805 227.602 64.0318 227.738 64.1125C227.951 64.2372 228.112 64.4058 228.222 64.6185C228.332 64.8275 228.387 65.0823 228.387 65.383C228.387 65.79 228.29 66.1218 228.095 66.3785C227.901 66.6352 227.641 66.8112 227.314 66.9065C227.168 66.9468 227.008 66.9725 226.836 66.9835C226.667 66.9945 226.508 67 226.357 67H223.591ZM224.405 66.3125H226.319C226.396 66.3125 226.493 66.307 226.61 66.296C226.728 66.2813 226.832 66.263 226.924 66.241C227.14 66.186 227.298 66.076 227.397 65.911C227.5 65.7423 227.551 65.559 227.551 65.361C227.551 65.1007 227.474 64.888 227.32 64.723C227.17 64.5543 226.968 64.4517 226.715 64.415C226.631 64.3967 226.543 64.3857 226.451 64.382C226.359 64.3783 226.277 64.3765 226.203 64.3765H224.405V66.3125ZM224.405 63.6835H226.066C226.161 63.6835 226.268 63.678 226.385 63.667C226.506 63.6523 226.61 63.6285 226.698 63.5955C226.889 63.5295 227.028 63.4158 227.116 63.2545C227.208 63.0932 227.254 62.9172 227.254 62.7265C227.254 62.5175 227.204 62.3342 227.105 62.1765C227.01 62.0188 226.865 61.9088 226.671 61.8465C226.539 61.7988 226.396 61.7713 226.242 61.764C226.092 61.7567 225.996 61.753 225.956 61.753H224.405V63.6835ZM230.963 67.165C230.515 67.165 230.139 67.0843 229.835 66.923C229.534 66.7617 229.309 66.5472 229.159 66.2795C229.008 66.0118 228.933 65.7203 228.933 65.405C228.933 65.0823 228.997 64.8073 229.126 64.58C229.258 64.349 229.435 64.1602 229.659 64.0135C229.886 63.8668 230.149 63.755 230.446 63.678C230.746 63.6047 231.078 63.5405 231.441 63.4855C231.808 63.4268 232.165 63.3773 232.514 63.337C232.866 63.293 233.174 63.2508 233.438 63.2105L233.152 63.3865C233.163 62.7998 233.049 62.3653 232.811 62.083C232.572 61.8007 232.158 61.6595 231.568 61.6595C231.161 61.6595 230.816 61.7512 230.534 61.9345C230.255 62.1178 230.059 62.4075 229.945 62.8035L229.159 62.5725C229.294 62.0408 229.567 61.6283 229.978 61.335C230.389 61.0417 230.922 60.895 231.579 60.895C232.121 60.895 232.581 60.9977 232.959 61.203C233.34 61.4047 233.61 61.698 233.768 62.083C233.841 62.2553 233.889 62.4478 233.911 62.6605C233.933 62.8732 233.944 63.0895 233.944 63.3095V67H233.223V65.5095L233.432 65.5975C233.23 66.1072 232.917 66.4958 232.492 66.7635C232.066 67.0312 231.557 67.165 230.963 67.165ZM231.056 66.4665C231.434 66.4665 231.764 66.3987 232.046 66.263C232.328 66.1273 232.556 65.9422 232.728 65.7075C232.9 65.4692 233.012 65.2015 233.064 64.9045C233.108 64.7138 233.131 64.5048 233.135 64.2775C233.139 64.0465 233.141 63.8742 233.141 63.7605L233.449 63.92C233.174 63.9567 232.875 63.9933 232.552 64.03C232.233 64.0667 231.918 64.1088 231.606 64.1565C231.298 64.2042 231.019 64.261 230.77 64.327C230.601 64.3747 230.438 64.4425 230.281 64.5305C230.123 64.6148 229.993 64.7285 229.89 64.8715C229.791 65.0145 229.742 65.1923 229.742 65.405C229.742 65.5773 229.784 65.7442 229.868 65.9055C229.956 66.0668 230.095 66.2007 230.286 66.307C230.48 66.4133 230.737 66.4665 231.056 66.4665ZM235.15 67V61.06H235.936V66.252H238.164V61.06H238.95V66.252H241.172V61.06H241.959V67H235.15ZM244.824 68.32V66.307C245.162 66.307 245.404 66.1988 245.55 65.9825C245.697 65.7625 245.816 65.4123 245.908 64.932C245.97 64.6203 246.021 64.2848 246.062 63.9255C246.102 63.5662 246.137 63.1555 246.166 62.6935C246.196 62.2278 246.223 61.6833 246.249 61.06H250.176V66.307H250.748V68.32H249.967V67H245.6V68.32H244.824ZM246.194 66.307H249.373V61.753H246.997C246.986 62.0317 246.969 62.3268 246.947 62.6385C246.929 62.9502 246.905 63.2618 246.876 63.5735C246.85 63.8852 246.819 64.1785 246.782 64.4535C246.749 64.7248 246.709 64.9632 246.661 65.1685C246.606 65.4325 246.546 65.658 246.48 65.845C246.417 66.032 246.322 66.186 246.194 66.307ZM254.11 67.165C253.519 67.165 253.015 67.0312 252.597 66.7635C252.179 66.4958 251.858 66.1255 251.635 65.6525C251.411 65.1795 251.299 64.6368 251.299 64.0245C251.299 63.4012 251.413 62.8548 251.64 62.3855C251.868 61.9162 252.19 61.5513 252.608 61.291C253.03 61.027 253.53 60.895 254.11 60.895C254.704 60.895 255.21 61.0288 255.628 61.2965C256.049 61.5605 256.37 61.929 256.59 62.402C256.814 62.8713 256.926 63.4122 256.926 64.0245C256.926 64.6478 256.814 65.196 256.59 65.669C256.367 66.1383 256.044 66.505 255.622 66.769C255.201 67.033 254.696 67.165 254.11 67.165ZM254.11 66.3895C254.77 66.3895 255.261 66.1713 255.584 65.735C255.906 65.295 256.068 64.7248 256.068 64.0245C256.068 63.3058 255.905 62.7338 255.578 62.3085C255.256 61.8832 254.766 61.6705 254.11 61.6705C253.666 61.6705 253.299 61.7713 253.01 61.973C252.724 62.171 252.509 62.4478 252.366 62.8035C252.227 63.1555 252.157 63.5625 252.157 64.0245C252.157 64.7395 252.322 65.3133 252.652 65.746C252.982 66.175 253.468 66.3895 254.11 66.3895ZM260.383 67.165C259.785 67.165 259.279 67.0312 258.865 66.7635C258.451 66.4958 258.135 66.1273 257.919 65.658C257.706 65.185 257.596 64.6423 257.589 64.03C257.596 63.4067 257.71 62.8603 257.93 62.391C258.15 61.918 258.467 61.5513 258.882 61.291C259.296 61.027 259.798 60.895 260.389 60.895C260.99 60.895 261.512 61.0417 261.956 61.335C262.403 61.6283 262.71 62.0298 262.875 62.5395L262.083 62.7925C261.943 62.4368 261.721 62.1618 261.417 61.9675C261.116 61.7695 260.772 61.6705 260.383 61.6705C259.947 61.6705 259.586 61.7713 259.3 61.973C259.014 62.171 258.801 62.4478 258.662 62.8035C258.522 63.1592 258.451 63.568 258.447 64.03C258.454 64.7413 258.619 65.3133 258.942 65.746C259.265 66.175 259.745 66.3895 260.383 66.3895C260.786 66.3895 261.129 66.2978 261.412 66.1145C261.698 65.9275 261.914 65.6562 262.061 65.3005L262.875 65.5425C262.655 66.0705 262.332 66.4738 261.907 66.7525C261.481 67.0275 260.973 67.165 260.383 67.165ZM263.784 67V61.06H266.232C266.357 61.06 266.507 61.0673 266.683 61.082C266.863 61.0967 267.029 61.1242 267.183 61.1645C267.517 61.2525 267.785 61.4322 267.986 61.7035C268.192 61.9748 268.294 62.3012 268.294 62.6825C268.294 62.8952 268.261 63.0858 268.195 63.2545C268.133 63.4195 268.043 63.5625 267.926 63.6835C267.871 63.7458 267.81 63.8008 267.744 63.8485C267.678 63.8925 267.614 63.9292 267.552 63.9585C267.669 63.9805 267.796 64.0318 267.931 64.1125C268.144 64.2372 268.305 64.4058 268.415 64.6185C268.525 64.8275 268.58 65.0823 268.58 65.383C268.58 65.79 268.483 66.1218 268.289 66.3785C268.095 66.6352 267.834 66.8112 267.508 66.9065C267.361 66.9468 267.202 66.9725 267.029 66.9835C266.861 66.9945 266.701 67 266.551 67H263.784ZM264.598 66.3125H266.512C266.589 66.3125 266.687 66.307 266.804 66.296C266.921 66.2813 267.026 66.263 267.117 66.241C267.334 66.186 267.491 66.076 267.59 65.911C267.693 65.7423 267.744 65.559 267.744 65.361C267.744 65.1007 267.667 64.888 267.513 64.723C267.363 64.5543 267.161 64.4517 266.908 64.415C266.824 64.3967 266.736 64.3857 266.644 64.382C266.553 64.3783 266.47 64.3765 266.397 64.3765H264.598V66.3125ZM264.598 63.6835H266.259C266.355 63.6835 266.461 63.678 266.578 63.667C266.699 63.6523 266.804 63.6285 266.892 63.5955C267.083 63.5295 267.222 63.4158 267.31 63.2545C267.402 63.0932 267.447 62.9172 267.447 62.7265C267.447 62.5175 267.398 62.3342 267.299 62.1765C267.204 62.0188 267.059 61.9088 266.864 61.8465C266.732 61.7988 266.589 61.7713 266.435 61.764C266.285 61.7567 266.19 61.753 266.149 61.753H264.598V63.6835ZM269.567 59.9325V59.025H270.375V59.9325H269.567ZM269.567 67V61.06H270.375V67H269.567ZM271.364 68.32V66.307C271.701 66.307 271.943 66.1988 272.09 65.9825C272.237 65.7625 272.356 65.4123 272.447 64.932C272.51 64.6203 272.561 64.2848 272.601 63.9255C272.642 63.5662 272.677 63.1555 272.706 62.6935C272.735 62.2278 272.763 61.6833 272.788 61.06H276.715V66.307H277.287V68.32H276.506V67H272.139V68.32H271.364ZM272.733 66.307H275.912V61.753H273.536C273.525 62.0317 273.509 62.3268 273.487 62.6385C273.469 62.9502 273.445 63.2618 273.415 63.5735C273.39 63.8852 273.359 64.1785 273.322 64.4535C273.289 64.7248 273.249 64.9632 273.201 65.1685C273.146 65.4325 273.085 65.658 273.019 65.845C272.957 66.032 272.862 66.186 272.733 66.307Z" fill="#668099"/>
<path d="M24.63 94V87.52H27.177C27.588 87.52 27.933 87.604 28.212 87.772C28.491 87.94 28.701 88.1575 28.842 88.4245C28.983 88.6885 29.0535 88.9675 29.0535 89.2615C29.0535 89.6185 28.965 89.9245 28.788 90.1795C28.614 90.4345 28.3785 90.6085 28.0815 90.7015L28.0725 90.481C28.4865 90.583 28.8045 90.7825 29.0265 91.0795C29.2485 91.3735 29.3595 91.717 29.3595 92.11C29.3595 92.491 29.283 92.8225 29.13 93.1045C28.98 93.3865 28.7595 93.607 28.4685 93.766C28.1805 93.922 27.831 94 27.42 94H24.63ZM25.584 93.1045H27.276C27.489 93.1045 27.6795 93.064 27.8475 92.983C28.0185 92.902 28.152 92.7865 28.248 92.6365C28.347 92.4835 28.3965 92.302 28.3965 92.092C28.3965 91.897 28.353 91.7215 28.266 91.5655C28.182 91.4065 28.059 91.282 27.897 91.192C27.738 91.099 27.5505 91.0525 27.3345 91.0525H25.584V93.1045ZM25.584 90.166H27.1635C27.3375 90.166 27.4935 90.1315 27.6315 90.0625C27.7725 89.9905 27.8835 89.8885 27.9645 89.7565C28.0485 89.6215 28.0905 89.4595 28.0905 89.2705C28.0905 89.0185 28.0065 88.8115 27.8385 88.6495C27.6705 88.4875 27.4455 88.4065 27.1635 88.4065H25.584V90.166ZM31.4475 94.135C31.0875 94.135 30.786 94.069 30.543 93.937C30.3 93.802 30.1155 93.625 29.9895 93.406C29.8665 93.184 29.805 92.941 29.805 92.677C29.805 92.431 29.8485 92.215 29.9355 92.029C30.0225 91.843 30.1515 91.6855 30.3225 91.5565C30.4935 91.4245 30.7035 91.318 30.9525 91.237C31.1685 91.174 31.413 91.1185 31.686 91.0705C31.959 91.0225 32.2455 90.9775 32.5455 90.9355C32.8485 90.8935 33.1485 90.8515 33.4455 90.8095L33.1035 90.9985C33.1095 90.6175 33.0285 90.3355 32.8605 90.1525C32.6955 89.9665 32.4105 89.8735 32.0055 89.8735C31.7505 89.8735 31.5165 89.9335 31.3035 90.0535C31.0905 90.1705 30.942 90.3655 30.858 90.6385L29.9805 90.3685C30.1005 89.9515 30.3285 89.62 30.6645 89.374C31.0035 89.128 31.4535 89.005 32.0145 89.005C32.4495 89.005 32.8275 89.08 33.1485 89.23C33.4725 89.377 33.7095 89.611 33.8595 89.932C33.9375 90.091 33.9855 90.259 34.0035 90.436C34.0215 90.613 34.0305 90.8035 34.0305 91.0075V94H33.198V92.8885L33.36 93.0325C33.159 93.4045 32.9025 93.682 32.5905 93.865C32.2815 94.045 31.9005 94.135 31.4475 94.135ZM31.614 93.3655C31.881 93.3655 32.1105 93.319 32.3025 93.226C32.4945 93.13 32.649 93.0085 32.766 92.8615C32.883 92.7145 32.9595 92.5615 32.9955 92.4025C33.0465 92.2585 33.075 92.0965 33.081 91.9165C33.09 91.7365 33.0945 91.5925 33.0945 91.4845L33.4005 91.597C33.1035 91.642 32.8335 91.6825 32.5905 91.7185C32.3475 91.7545 32.127 91.7905 31.929 91.8265C31.734 91.8595 31.56 91.9 31.407 91.948C31.278 91.993 31.1625 92.047 31.0605 92.11C30.9615 92.173 30.882 92.2495 30.822 92.3395C30.765 92.4295 30.7365 92.539 30.7365 92.668C30.7365 92.794 30.768 92.911 30.831 93.019C30.894 93.124 30.99 93.208 31.119 93.271C31.248 93.334 31.413 93.3655 31.614 93.3655ZM35.0145 94V89.14H35.919V93.154H37.4445V89.14H38.349V93.154H39.87V89.14H40.7745V94H35.0145ZM44.0082 94.135C43.5252 94.135 43.1007 94.03 42.7347 93.82C42.3717 93.607 42.0882 93.3115 41.8842 92.9335C41.6832 92.5525 41.5827 92.1115 41.5827 91.6105C41.5827 91.0795 41.6817 90.619 41.8797 90.229C42.0807 89.839 42.3597 89.5375 42.7167 89.3245C43.0737 89.1115 43.4892 89.005 43.9632 89.005C44.4582 89.005 44.8797 89.1205 45.2277 89.3515C45.5757 89.5795 45.8352 89.905 46.0062 90.328C46.1802 90.751 46.2492 91.2535 46.2132 91.8355H45.2727V91.4935C45.2667 90.9295 45.1587 90.5125 44.9487 90.2425C44.7417 89.9725 44.4252 89.8375 43.9992 89.8375C43.5282 89.8375 43.1742 89.986 42.9372 90.283C42.7002 90.58 42.5817 91.009 42.5817 91.57C42.5817 92.104 42.7002 92.518 42.9372 92.812C43.1742 93.103 43.5162 93.2485 43.9632 93.2485C44.2572 93.2485 44.5107 93.1825 44.7237 93.0505C44.9397 92.9155 45.1077 92.7235 45.2277 92.4745L46.1502 92.767C45.9612 93.202 45.6747 93.5395 45.2907 93.7795C44.9067 94.0165 44.4792 94.135 44.0082 94.135ZM42.2757 91.8355V91.102H45.7452V91.8355H42.2757ZM48.7546 88.3435V87.43H49.6951V88.3435H48.7546ZM48.7546 94V89.14H49.6951V94H48.7546ZM50.8619 94V89.14H51.6494L53.4449 92.704L55.2359 89.14H56.0279V94H55.1189V91.066L53.6564 94H53.2289L51.7664 91.066V94H50.8619ZM57.2012 89.68L57.2597 89.2615C57.3887 89.2705 57.4892 89.2465 57.5612 89.1895C57.6332 89.1325 57.6812 89.053 57.7052 88.951C57.7292 88.849 57.7337 88.7335 57.7187 88.6045H57.2012V87.52H58.1957V88.6945C58.1957 89.0485 58.1102 89.3155 57.9392 89.4955C57.7712 89.6755 57.5252 89.737 57.2012 89.68ZM61.9883 94V92.3125H61.0253C60.9113 92.3125 60.7748 92.308 60.6158 92.299C60.4598 92.29 60.3128 92.2735 60.1748 92.2495C59.8118 92.1835 59.5088 92.026 59.2658 91.777C59.0228 91.525 58.9013 91.1785 58.9013 90.7375C58.9013 90.3115 59.0153 89.9695 59.2433 89.7115C59.4743 89.4505 59.7668 89.2825 60.1208 89.2075C60.2738 89.1715 60.4298 89.152 60.5888 89.149C60.7508 89.143 60.8873 89.14 60.9983 89.14H62.9288L62.9333 94H61.9883ZM58.7618 94L59.9903 92.0785H60.9848L59.7653 94H58.7618ZM60.9443 91.5565H61.9883V89.896H60.9443C60.8783 89.896 60.7973 89.899 60.7013 89.905C60.6053 89.911 60.5123 89.9275 60.4223 89.9545C60.3293 89.9815 60.2393 90.0295 60.1523 90.0985C60.0683 90.1675 59.9993 90.256 59.9453 90.364C59.8913 90.469 59.8643 90.5905 59.8643 90.7285C59.8643 90.9355 59.9228 91.1065 60.0398 91.2415C60.1568 91.3735 60.2963 91.4605 60.4583 91.5025C60.5453 91.5265 60.6323 91.5415 60.7193 91.5475C60.8063 91.5535 60.8813 91.5565 60.9443 91.5565Z" fill="#292424"/>
<rect x="24" y="101" width="273" height="39" rx="4" fill="#FDFDFD"/>
<rect x="23" y="100" width="275" height="41" rx="5" stroke="#4D70FF" stroke-opacity="0.88" stroke-width="2"/>
<path d="M36.77 125V117.08H39.828C40.2717 117.08 40.6585 117.172 40.9885 117.355C41.3185 117.538 41.5752 117.786 41.7585 118.097C41.9418 118.405 42.0335 118.746 42.0335 119.12C42.0335 119.546 41.9198 119.925 41.6925 120.259C41.4652 120.589 41.1608 120.818 40.7795 120.946L40.7685 120.677C41.2818 120.824 41.6852 121.08 41.9785 121.447C42.2718 121.814 42.4185 122.257 42.4185 122.778C42.4185 123.236 42.3213 123.632 42.127 123.966C41.9327 124.296 41.6595 124.551 41.3075 124.73C40.9555 124.91 40.5467 125 40.081 125H36.77ZM37.584 124.224H39.883C40.2057 124.224 40.4953 124.168 40.752 124.054C41.0087 123.937 41.2103 123.772 41.357 123.559C41.5073 123.346 41.5825 123.09 41.5825 122.789C41.5825 122.496 41.5147 122.232 41.379 121.997C41.2433 121.762 41.0582 121.575 40.8235 121.436C40.5925 121.293 40.3285 121.221 40.0315 121.221H37.584V124.224ZM37.584 120.457H39.8225C40.0755 120.457 40.3065 120.4 40.5155 120.286C40.7245 120.169 40.8895 120.01 41.0105 119.808C41.1352 119.606 41.1975 119.373 41.1975 119.109C41.1975 118.735 41.0673 118.431 40.807 118.196C40.5503 117.962 40.2222 117.844 39.8225 117.844H37.584V120.457ZM45.7766 125.165C45.1863 125.165 44.6821 125.031 44.2641 124.763C43.8461 124.496 43.5253 124.125 43.3016 123.652C43.0779 123.179 42.9661 122.637 42.9661 122.024C42.9661 121.401 43.0798 120.855 43.3071 120.385C43.5344 119.916 43.8571 119.551 44.2751 119.291C44.6968 119.027 45.1973 118.895 45.7766 118.895C46.3706 118.895 46.8766 119.029 47.2946 119.296C47.7163 119.56 48.0371 119.929 48.2571 120.402C48.4808 120.871 48.5926 121.412 48.5926 122.024C48.5926 122.648 48.4808 123.196 48.2571 123.669C48.0334 124.138 47.7108 124.505 47.2891 124.769C46.8674 125.033 46.3633 125.165 45.7766 125.165ZM45.7766 124.389C46.4366 124.389 46.9279 124.171 47.2506 123.735C47.5733 123.295 47.7346 122.725 47.7346 122.024C47.7346 121.306 47.5714 120.734 47.2451 120.308C46.9224 119.883 46.4329 119.67 45.7766 119.67C45.3329 119.67 44.9663 119.771 44.6766 119.973C44.3906 120.171 44.1761 120.448 44.0331 120.803C43.8938 121.155 43.8241 121.562 43.8241 122.024C43.8241 122.739 43.9891 123.313 44.3191 123.746C44.6491 124.175 45.1349 124.389 45.7766 124.389ZM49.0359 125V124.29C49.2559 124.331 49.4227 124.322 49.5364 124.263C49.6537 124.201 49.7399 124.098 49.7949 123.955C49.8499 123.808 49.8957 123.627 49.9324 123.41C49.991 123.051 50.0442 122.655 50.0919 122.223C50.1395 121.79 50.1817 121.313 50.2184 120.792C50.2587 120.268 50.299 119.691 50.3394 119.06H54.3764V125H53.5734V119.835H51.0874C51.0617 120.224 51.0324 120.611 50.9994 120.996C50.9664 121.381 50.9315 121.751 50.8949 122.107C50.8619 122.459 50.8252 122.783 50.7849 123.08C50.7445 123.377 50.7024 123.634 50.6584 123.85C50.5924 124.177 50.5044 124.437 50.3944 124.631C50.288 124.826 50.1285 124.954 49.9159 125.017C49.7032 125.079 49.4099 125.073 49.0359 125ZM58.1735 125.165C57.5832 125.165 57.079 125.031 56.661 124.763C56.243 124.496 55.9222 124.125 55.6985 123.652C55.4748 123.179 55.363 122.637 55.363 122.024C55.363 121.401 55.4767 120.855 55.704 120.385C55.9313 119.916 56.254 119.551 56.672 119.291C57.0937 119.027 57.5942 118.895 58.1735 118.895C58.7675 118.895 59.2735 119.029 59.6915 119.296C60.1132 119.56 60.434 119.929 60.654 120.402C60.8777 120.871 60.9895 121.412 60.9895 122.024C60.9895 122.648 60.8777 123.196 60.654 123.669C60.4303 124.138 60.1077 124.505 59.686 124.769C59.2643 125.033 58.7602 125.165 58.1735 125.165ZM58.1735 124.389C58.8335 124.389 59.3248 124.171 59.6475 123.735C59.9702 123.295 60.1315 122.725 60.1315 122.024C60.1315 121.306 59.9683 120.734 59.642 120.308C59.3193 119.883 58.8298 119.67 58.1735 119.67C57.7298 119.67 57.3632 119.771 57.0735 119.973C56.7875 120.171 56.573 120.448 56.43 120.803C56.2907 121.155 56.221 121.562 56.221 122.024C56.221 122.739 56.386 123.313 56.716 123.746C57.046 124.175 57.5318 124.389 58.1735 124.389ZM61.5428 126.32V124.307C61.8801 124.307 62.1221 124.199 62.2688 123.982C62.4154 123.762 62.5346 123.412 62.6263 122.932C62.6886 122.62 62.7399 122.285 62.7803 121.925C62.8206 121.566 62.8554 121.155 62.8848 120.693C62.9141 120.228 62.9416 119.683 62.9673 119.06H66.8943V124.307H67.4663V126.32H66.6853V125H62.3183V126.32H61.5428ZM62.9123 124.307H66.0913V119.753H63.7153C63.7043 120.032 63.6878 120.327 63.6658 120.638C63.6474 120.95 63.6236 121.262 63.5943 121.573C63.5686 121.885 63.5374 122.178 63.5008 122.453C63.4678 122.725 63.4274 122.963 63.3798 123.168C63.3248 123.432 63.2643 123.658 63.1983 123.845C63.1359 124.032 63.0406 124.186 62.9123 124.307ZM73.0667 119.06V125H72.2802V120.374L69.0242 125H68.3422V119.06H69.1287V123.647L72.3902 119.06H73.0667ZM74.3849 125V119.06H75.1054L77.4209 123.922L79.7419 119.06H80.4569V125H79.6759V120.787L77.6794 125H77.1679L75.1714 120.787V125H74.3849ZM86.4949 119.06V125H85.7084V120.374L82.4524 125H81.7704V119.06H82.5569V123.647L85.8184 119.06H86.4949ZM90.4861 125.165C89.9398 125.165 89.4778 125.028 89.1001 124.752C88.7224 124.474 88.4364 124.098 88.2421 123.625C88.0478 123.148 87.9506 122.615 87.9506 122.024C87.9506 121.423 88.0478 120.888 88.2421 120.418C88.4401 119.945 88.7298 119.573 89.1111 119.302C89.4924 119.031 89.9618 118.895 90.5191 118.895C91.0618 118.895 91.5274 119.032 91.9161 119.307C92.3048 119.582 92.6018 119.956 92.8071 120.429C93.0161 120.902 93.1206 121.434 93.1206 122.024C93.1206 122.618 93.0161 123.152 92.8071 123.625C92.5981 124.098 92.2974 124.474 91.9051 124.752C91.5128 125.028 91.0398 125.165 90.4861 125.165ZM87.8131 127.64V119.06H88.5391V123.531H88.6271V127.64H87.8131ZM90.4036 124.411C90.8179 124.411 91.1626 124.307 91.4376 124.098C91.7126 123.889 91.9179 123.605 92.0536 123.245C92.1929 122.882 92.2626 122.475 92.2626 122.024C92.2626 121.577 92.1948 121.174 92.0591 120.814C91.9234 120.455 91.7163 120.171 91.4376 119.962C91.1626 119.753 90.8124 119.648 90.3871 119.648C89.9728 119.648 89.6281 119.749 89.3531 119.951C89.0818 120.153 88.8783 120.433 88.7426 120.792C88.6069 121.148 88.5391 121.559 88.5391 122.024C88.5391 122.483 88.6069 122.893 88.7426 123.256C88.8783 123.616 89.0836 123.898 89.3586 124.103C89.6336 124.309 89.9819 124.411 90.4036 124.411Z" fill="#E2E3E9"/>
<path d="M24.63 165V158.52H25.5705V161.314H28.8105V158.52H29.7555V165H28.8105V162.201H25.5705V165H24.63ZM32.9501 165.135C32.4641 165.135 32.0426 165.026 31.6856 164.806C31.3286 164.587 31.0526 164.286 30.8576 163.902C30.6656 163.515 30.5696 163.069 30.5696 162.565C30.5696 162.058 30.6686 161.613 30.8666 161.229C31.0646 160.842 31.3421 160.542 31.6991 160.329C32.0561 160.113 32.4731 160.005 32.9501 160.005C33.4361 160.005 33.8576 160.114 34.2146 160.333C34.5716 160.552 34.8476 160.854 35.0426 161.238C35.2376 161.622 35.3351 162.064 35.3351 162.565C35.3351 163.072 35.2361 163.519 35.0381 163.906C34.8431 164.29 34.5671 164.592 34.2101 164.811C33.8531 165.027 33.4331 165.135 32.9501 165.135ZM32.9501 164.248C33.4151 164.248 33.7616 164.092 33.9896 163.78C34.2206 163.465 34.3361 163.06 34.3361 162.565C34.3361 162.058 34.2191 161.653 33.9851 161.35C33.7541 161.044 33.4091 160.891 32.9501 160.891C32.6351 160.891 32.3756 160.963 32.1716 161.107C31.9676 161.248 31.8161 161.445 31.7171 161.697C31.6181 161.946 31.5686 162.235 31.5686 162.565C31.5686 163.075 31.6856 163.483 31.9196 163.789C32.1536 164.095 32.4971 164.248 32.9501 164.248ZM36.1395 165V160.14H36.927L38.7225 163.704L40.5135 160.14H41.3055V165H40.3965V162.066L38.934 165H38.5065L37.044 162.066V165H36.1395ZM44.5443 165.135C44.0613 165.135 43.6368 165.03 43.2708 164.82C42.9078 164.607 42.6243 164.311 42.4203 163.933C42.2193 163.552 42.1188 163.111 42.1188 162.61C42.1188 162.079 42.2178 161.619 42.4158 161.229C42.6168 160.839 42.8958 160.537 43.2528 160.324C43.6098 160.111 44.0253 160.005 44.4993 160.005C44.9943 160.005 45.4158 160.12 45.7638 160.352C46.1118 160.579 46.3713 160.905 46.5423 161.328C46.7163 161.751 46.7853 162.253 46.7493 162.835H45.8088V162.493C45.8028 161.929 45.6948 161.512 45.4848 161.242C45.2778 160.972 44.9613 160.837 44.5353 160.837C44.0643 160.837 43.7103 160.986 43.4733 161.283C43.2363 161.58 43.1178 162.009 43.1178 162.57C43.1178 163.104 43.2363 163.518 43.4733 163.812C43.7103 164.103 44.0523 164.248 44.4993 164.248C44.7933 164.248 45.0468 164.182 45.2598 164.05C45.4758 163.915 45.6438 163.723 45.7638 163.474L46.6863 163.767C46.4973 164.202 46.2108 164.539 45.8268 164.779C45.4428 165.016 45.0153 165.135 44.5443 165.135ZM42.8118 162.835V162.102H46.2813V162.835H42.8118ZM49.8604 165.135C49.3954 165.135 49.0054 165.023 48.6904 164.797C48.3754 164.569 48.1369 164.262 47.9749 163.875C47.8129 163.488 47.7319 163.051 47.7319 162.565C47.7319 162.079 47.8114 161.643 47.9704 161.256C48.1324 160.869 48.3694 160.564 48.6814 160.342C48.9964 160.117 49.3834 160.005 49.8424 160.005C50.2984 160.005 50.6914 160.117 51.0214 160.342C51.3544 160.564 51.6109 160.869 51.7909 161.256C51.9709 161.64 52.0609 162.076 52.0609 162.565C52.0609 163.051 51.9709 163.489 51.7909 163.879C51.6139 164.266 51.3604 164.572 51.0304 164.797C50.7034 165.023 50.3134 165.135 49.8604 165.135ZM47.5744 167.16V160.14H48.4114V163.636H48.5194V167.16H47.5744ZM49.7299 164.284C50.0299 164.284 50.2774 164.208 50.4724 164.055C50.6704 163.902 50.8174 163.696 50.9134 163.438C51.0124 163.177 51.0619 162.886 51.0619 162.565C51.0619 162.247 51.0124 161.959 50.9134 161.701C50.8174 161.443 50.6689 161.238 50.4679 161.085C50.2669 160.932 50.0104 160.855 49.6984 160.855C49.4044 160.855 49.1614 160.927 48.9694 161.071C48.7804 161.215 48.6394 161.416 48.5464 161.674C48.4564 161.932 48.4114 162.229 48.4114 162.565C48.4114 162.901 48.4564 163.198 48.5464 163.456C48.6364 163.714 48.7789 163.917 48.9739 164.064C49.1689 164.211 49.4209 164.284 49.7299 164.284ZM55.7518 165V160.986H54.0913V160.14H58.3528V160.986H56.6923V165H55.7518ZM61.1827 165.135C60.6997 165.135 60.2752 165.03 59.9092 164.82C59.5462 164.607 59.2627 164.311 59.0587 163.933C58.8577 163.552 58.7572 163.111 58.7572 162.61C58.7572 162.079 58.8562 161.619 59.0542 161.229C59.2552 160.839 59.5342 160.537 59.8912 160.324C60.2482 160.111 60.6637 160.005 61.1377 160.005C61.6327 160.005 62.0542 160.12 62.4022 160.352C62.7502 160.579 63.0097 160.905 63.1807 161.328C63.3547 161.751 63.4237 162.253 63.3877 162.835H62.4472V162.493C62.4412 161.929 62.3332 161.512 62.1232 161.242C61.9162 160.972 61.5997 160.837 61.1737 160.837C60.7027 160.837 60.3487 160.986 60.1117 161.283C59.8747 161.58 59.7562 162.009 59.7562 162.57C59.7562 163.104 59.8747 163.518 60.1117 163.812C60.3487 164.103 60.6907 164.248 61.1377 164.248C61.4317 164.248 61.6852 164.182 61.8982 164.05C62.1142 163.915 62.2822 163.723 62.4022 163.474L63.3247 163.767C63.1357 164.202 62.8492 164.539 62.4652 164.779C62.0812 165.016 61.6537 165.135 61.1827 165.135ZM59.4502 162.835V162.102H62.9197V162.835H59.4502ZM63.7673 165V164.203C63.9473 164.236 64.0838 164.232 64.1768 164.19C64.2728 164.145 64.3433 164.064 64.3883 163.947C64.4363 163.83 64.4768 163.678 64.5098 163.492C64.5608 163.219 64.6043 162.909 64.6403 162.561C64.6793 162.21 64.7138 161.83 64.7438 161.422C64.7738 161.014 64.8008 160.587 64.8248 160.14H68.3168V165H67.3718V161.026H65.6708C65.6528 161.263 65.6318 161.515 65.6078 161.782C65.5868 162.046 65.5628 162.309 65.5358 162.57C65.5088 162.831 65.4803 163.075 65.4503 163.303C65.4203 163.531 65.3888 163.726 65.3558 163.888C65.2958 164.212 65.2073 164.47 65.0903 164.662C64.9763 164.851 64.8143 164.973 64.6043 165.027C64.3943 165.084 64.1153 165.075 63.7673 165ZM71.5542 165.135C71.0712 165.135 70.6467 165.03 70.2807 164.82C69.9177 164.607 69.6342 164.311 69.4302 163.933C69.2292 163.552 69.1287 163.111 69.1287 162.61C69.1287 162.079 69.2277 161.619 69.4257 161.229C69.6267 160.839 69.9057 160.537 70.2627 160.324C70.6197 160.111 71.0352 160.005 71.5092 160.005C72.0042 160.005 72.4257 160.12 72.7737 160.352C73.1217 160.579 73.3812 160.905 73.5522 161.328C73.7262 161.751 73.7952 162.253 73.7592 162.835H72.8187V162.493C72.8127 161.929 72.7047 161.512 72.4947 161.242C72.2877 160.972 71.9712 160.837 71.5452 160.837C71.0742 160.837 70.7202 160.986 70.4832 161.283C70.2462 161.58 70.1277 162.009 70.1277 162.57C70.1277 163.104 70.2462 163.518 70.4832 163.812C70.7202 164.103 71.0622 164.248 71.5092 164.248C71.8032 164.248 72.0567 164.182 72.2697 164.05C72.4857 163.915 72.6537 163.723 72.7737 163.474L73.6962 163.767C73.5072 164.202 73.2207 164.539 72.8367 164.779C72.4527 165.016 72.0252 165.135 71.5542 165.135ZM69.8217 162.835V162.102H73.2912V162.835H69.8217ZM76.8748 167.025V165.086C76.4008 165.161 75.9703 165.11 75.5833 164.932C75.1963 164.755 74.8888 164.467 74.6608 164.068C74.4328 163.669 74.3188 163.171 74.3188 162.574C74.3188 161.977 74.4328 161.478 74.6608 161.076C74.8888 160.674 75.1963 160.384 75.5833 160.207C75.9703 160.03 76.4008 159.979 76.8748 160.054V158.583H77.7208V160.054C78.1948 159.979 78.6253 160.03 79.0123 160.207C79.3993 160.384 79.7068 160.674 79.9348 161.076C80.1628 161.478 80.2768 161.977 80.2768 162.574C80.2768 163.171 80.1628 163.669 79.9348 164.068C79.7068 164.467 79.3993 164.755 79.0123 164.932C78.6253 165.11 78.1948 165.161 77.7208 165.086V167.025H76.8748ZM76.8748 164.235V160.909C76.6318 160.867 76.4113 160.875 76.2133 160.932C76.0183 160.989 75.8518 161.089 75.7138 161.233C75.5758 161.374 75.4693 161.559 75.3943 161.787C75.3193 162.012 75.2818 162.274 75.2818 162.574C75.2818 162.874 75.3193 163.137 75.3943 163.362C75.4723 163.587 75.5818 163.771 75.7228 163.915C75.8668 164.056 76.0363 164.155 76.2313 164.212C76.4263 164.266 76.6408 164.274 76.8748 164.235ZM77.7208 164.235C77.9548 164.274 78.1693 164.266 78.3643 164.212C78.5593 164.158 78.7273 164.061 78.8683 163.92C79.0123 163.779 79.1218 163.596 79.1968 163.371C79.2748 163.143 79.3138 162.877 79.3138 162.574C79.3138 162.268 79.2763 162.003 79.2013 161.778C79.1263 161.55 79.0198 161.365 78.8818 161.224C78.7438 161.08 78.5758 160.981 78.3778 160.927C78.1828 160.873 77.9638 160.867 77.7208 160.909V164.235ZM83.199 165.135C82.713 165.135 82.2915 165.026 81.9345 164.806C81.5775 164.587 81.3015 164.286 81.1065 163.902C80.9145 163.515 80.8185 163.069 80.8185 162.565C80.8185 162.058 80.9175 161.613 81.1155 161.229C81.3135 160.842 81.591 160.542 81.948 160.329C82.305 160.113 82.722 160.005 83.199 160.005C83.685 160.005 84.1065 160.114 84.4635 160.333C84.8205 160.552 85.0965 160.854 85.2915 161.238C85.4865 161.622 85.584 162.064 85.584 162.565C85.584 163.072 85.485 163.519 85.287 163.906C85.092 164.29 84.816 164.592 84.459 164.811C84.102 165.027 83.682 165.135 83.199 165.135ZM83.199 164.248C83.664 164.248 84.0105 164.092 84.2385 163.78C84.4695 163.465 84.585 163.06 84.585 162.565C84.585 162.058 84.468 161.653 84.234 161.35C84.003 161.044 83.658 160.891 83.199 160.891C82.884 160.891 82.6245 160.963 82.4205 161.107C82.2165 161.248 82.065 161.445 81.966 161.697C81.867 161.946 81.8175 162.235 81.8175 162.565C81.8175 163.075 81.9345 163.483 82.1685 163.789C82.4025 164.095 82.746 164.248 83.199 164.248ZM86.3884 165V160.14H87.3289V162.124H89.7004V160.14H90.6409V165H89.7004V163.011H87.3289V165H86.3884ZM92.3806 167.16L93.3211 164.599L93.3346 165.356L91.2151 160.14H92.1961L93.7801 164.167H93.4921L95.0041 160.14H95.9581L93.2761 167.16H92.3806Z" fill="#292424"/>
<rect x="24.5" y="172.5" width="272" height="38" rx="3.5" fill="#FDFDFD"/>
<rect x="24.5" y="172.5" width="272" height="38" rx="3.5" stroke="#DFE0E7"/>
<path d="M38.827 194.553V192.386H36.66V191.693H38.827V189.526H39.52V191.693H41.6815V192.386H39.52V194.553H38.827ZM42.1179 197.172V196.479H49.3779V197.172H42.1179ZM49.1596 197.172V196.479H56.4196V197.172H49.1596ZM56.2013 197.172V196.479H63.4613V197.172H56.2013ZM63.243 197.172V196.479H70.503V197.172H63.243ZM70.2848 197.172V196.479H77.5448V197.172H70.2848ZM77.3265 197.172V196.479H84.5865V197.172H77.3265ZM84.3682 197.172V196.479H91.6282V197.172H84.3682Z" fill="#E2E3E9"/>
<path d="M24.3015 237.08V235.113C24.5235 235.113 24.7065 235.058 24.8505 234.947C24.9945 234.833 25.1085 234.678 25.1925 234.483C25.2795 234.285 25.3455 234.06 25.3905 233.808C25.4385 233.556 25.4745 233.291 25.4985 233.012C25.5345 232.634 25.5645 232.265 25.5885 231.905C25.6155 231.542 25.6395 231.167 25.6605 230.78C25.6845 230.393 25.71 229.971 25.737 229.515L29.886 229.52V235.113H30.3675V237.08H29.4225V236H25.242V237.08H24.3015ZM25.845 235.113H28.9455V230.406L26.6055 230.402C26.5845 230.732 26.5665 231.045 26.5515 231.342C26.5365 231.639 26.517 231.939 26.493 232.242C26.472 232.542 26.445 232.865 26.412 233.21C26.379 233.54 26.3445 233.82 26.3085 234.051C26.2725 234.279 26.2185 234.477 26.1465 234.645C26.0775 234.813 25.977 234.969 25.845 235.113ZM32.5461 236.135C32.1861 236.135 31.8846 236.069 31.6416 235.937C31.3986 235.802 31.2141 235.625 31.0881 235.406C30.9651 235.184 30.9036 234.941 30.9036 234.677C30.9036 234.431 30.9471 234.215 31.0341 234.029C31.1211 233.843 31.2501 233.685 31.4211 233.556C31.5921 233.424 31.8021 233.318 32.0511 233.237C32.2671 233.174 32.5116 233.118 32.7846 233.07C33.0576 233.022 33.3441 232.977 33.6441 232.935C33.9471 232.893 34.2471 232.851 34.5441 232.809L34.2021 232.998C34.2081 232.617 34.1271 232.335 33.9591 232.152C33.7941 231.966 33.5091 231.873 33.1041 231.873C32.8491 231.873 32.6151 231.933 32.4021 232.053C32.1891 232.17 32.0406 232.365 31.9566 232.638L31.0791 232.368C31.1991 231.951 31.4271 231.62 31.7631 231.374C32.1021 231.128 32.5521 231.005 33.1131 231.005C33.5481 231.005 33.9261 231.08 34.2471 231.23C34.5711 231.377 34.8081 231.611 34.9581 231.932C35.0361 232.091 35.0841 232.259 35.1021 232.436C35.1201 232.613 35.1291 232.803 35.1291 233.007V236H34.2966V234.888L34.4586 235.032C34.2576 235.404 34.0011 235.682 33.6891 235.865C33.3801 236.045 32.9991 236.135 32.5461 236.135ZM32.7126 235.365C32.9796 235.365 33.2091 235.319 33.4011 235.226C33.5931 235.13 33.7476 235.008 33.8646 234.861C33.9816 234.714 34.0581 234.561 34.0941 234.402C34.1451 234.258 34.1736 234.096 34.1796 233.916C34.1886 233.736 34.1931 233.592 34.1931 233.484L34.4991 233.597C34.2021 233.642 33.9321 233.682 33.6891 233.718C33.4461 233.754 33.2256 233.79 33.0276 233.826C32.8326 233.859 32.6586 233.9 32.5056 233.948C32.3766 233.993 32.2611 234.047 32.1591 234.11C32.0601 234.173 31.9806 234.249 31.9206 234.339C31.8636 234.429 31.8351 234.539 31.8351 234.668C31.8351 234.794 31.8666 234.911 31.9296 235.019C31.9926 235.124 32.0886 235.208 32.2176 235.271C32.3466 235.334 32.5116 235.365 32.7126 235.365ZM37.3732 236V231.986H35.7127V231.14H39.9742V231.986H38.3137V236H37.3732ZM41.8805 236.135C41.5205 236.135 41.219 236.069 40.976 235.937C40.733 235.802 40.5485 235.625 40.4225 235.406C40.2995 235.184 40.238 234.941 40.238 234.677C40.238 234.431 40.2815 234.215 40.3685 234.029C40.4555 233.843 40.5845 233.685 40.7555 233.556C40.9265 233.424 41.1365 233.318 41.3855 233.237C41.6015 233.174 41.846 233.118 42.119 233.07C42.392 233.022 42.6785 232.977 42.9785 232.935C43.2815 232.893 43.5815 232.851 43.8785 232.809L43.5365 232.998C43.5425 232.617 43.4615 232.335 43.2935 232.152C43.1285 231.966 42.8435 231.873 42.4385 231.873C42.1835 231.873 41.9495 231.933 41.7365 232.053C41.5235 232.17 41.375 232.365 41.291 232.638L40.4135 232.368C40.5335 231.951 40.7615 231.62 41.0975 231.374C41.4365 231.128 41.8865 231.005 42.4475 231.005C42.8825 231.005 43.2605 231.08 43.5815 231.23C43.9055 231.377 44.1425 231.611 44.2925 231.932C44.3705 232.091 44.4185 232.259 44.4365 232.436C44.4545 232.613 44.4635 232.803 44.4635 233.007V236H43.631V234.888L43.793 235.032C43.592 235.404 43.3355 235.682 43.0235 235.865C42.7145 236.045 42.3335 236.135 41.8805 236.135ZM42.047 235.365C42.314 235.365 42.5435 235.319 42.7355 235.226C42.9275 235.13 43.082 235.008 43.199 234.861C43.316 234.714 43.3925 234.561 43.4285 234.402C43.4795 234.258 43.508 234.096 43.514 233.916C43.523 233.736 43.5275 233.592 43.5275 233.484L43.8335 233.597C43.5365 233.642 43.2665 233.682 43.0235 233.718C42.7805 233.754 42.56 233.79 42.362 233.826C42.167 233.859 41.993 233.9 41.84 233.948C41.711 233.993 41.5955 234.047 41.4935 234.11C41.3945 234.173 41.315 234.249 41.255 234.339C41.198 234.429 41.1695 234.539 41.1695 234.668C41.1695 234.794 41.201 234.911 41.264 235.019C41.327 235.124 41.423 235.208 41.552 235.271C41.681 235.334 41.846 235.365 42.047 235.365ZM47.0693 236V231.14H48.0098V233.124H50.3813V231.14H51.3218V236H50.3813V234.011H48.0098V236H47.0693ZM53.777 236.135C53.417 236.135 53.1155 236.069 52.8725 235.937C52.6295 235.802 52.445 235.625 52.319 235.406C52.196 235.184 52.1345 234.941 52.1345 234.677C52.1345 234.431 52.178 234.215 52.265 234.029C52.352 233.843 52.481 233.685 52.652 233.556C52.823 233.424 53.033 233.318 53.282 233.237C53.498 233.174 53.7425 233.118 54.0155 233.07C54.2885 233.022 54.575 232.977 54.875 232.935C55.178 232.893 55.478 232.851 55.775 232.809L55.433 232.998C55.439 232.617 55.358 232.335 55.19 232.152C55.025 231.966 54.74 231.873 54.335 231.873C54.08 231.873 53.846 231.933 53.633 232.053C53.42 232.17 53.2715 232.365 53.1875 232.638L52.31 232.368C52.43 231.951 52.658 231.62 52.994 231.374C53.333 231.128 53.783 231.005 54.344 231.005C54.779 231.005 55.157 231.08 55.478 231.23C55.802 231.377 56.039 231.611 56.189 231.932C56.267 232.091 56.315 232.259 56.333 232.436C56.351 232.613 56.36 232.803 56.36 233.007V236H55.5275V234.888L55.6895 235.032C55.4885 235.404 55.232 235.682 54.92 235.865C54.611 236.045 54.23 236.135 53.777 236.135ZM53.9435 235.365C54.2105 235.365 54.44 235.319 54.632 235.226C54.824 235.13 54.9785 235.008 55.0955 234.861C55.2125 234.714 55.289 234.561 55.325 234.402C55.376 234.258 55.4045 234.096 55.4105 233.916C55.4195 233.736 55.424 233.592 55.424 233.484L55.73 233.597C55.433 233.642 55.163 233.682 54.92 233.718C54.677 233.754 54.4565 233.79 54.2585 233.826C54.0635 233.859 53.8895 233.9 53.7365 233.948C53.6075 233.993 53.492 234.047 53.39 234.11C53.291 234.173 53.2115 234.249 53.1515 234.339C53.0945 234.429 53.066 234.539 53.066 234.668C53.066 234.794 53.0975 234.911 53.1605 235.019C53.2235 235.124 53.3195 235.208 53.4485 235.271C53.5775 235.334 53.7425 235.365 53.9435 235.365ZM59.63 236.135C59.165 236.135 58.775 236.023 58.46 235.797C58.145 235.569 57.9065 235.262 57.7445 234.875C57.5825 234.488 57.5015 234.051 57.5015 233.565C57.5015 233.079 57.581 232.643 57.74 232.256C57.902 231.869 58.139 231.564 58.451 231.342C58.766 231.117 59.153 231.005 59.612 231.005C60.068 231.005 60.461 231.117 60.791 231.342C61.124 231.564 61.3805 231.869 61.5605 232.256C61.7405 232.64 61.8305 233.076 61.8305 233.565C61.8305 234.051 61.7405 234.489 61.5605 234.879C61.3835 235.266 61.13 235.572 60.8 235.797C60.473 236.023 60.083 236.135 59.63 236.135ZM57.344 238.16V231.14H58.181V234.636H58.289V238.16H57.344ZM59.4995 235.284C59.7995 235.284 60.047 235.208 60.242 235.055C60.44 234.902 60.587 234.696 60.683 234.438C60.782 234.177 60.8315 233.886 60.8315 233.565C60.8315 233.247 60.782 232.959 60.683 232.701C60.587 232.443 60.4385 232.238 60.2375 232.085C60.0365 231.932 59.78 231.855 59.468 231.855C59.174 231.855 58.931 231.927 58.739 232.071C58.55 232.215 58.409 232.416 58.316 232.674C58.226 232.932 58.181 233.229 58.181 233.565C58.181 233.901 58.226 234.198 58.316 234.456C58.406 234.714 58.5485 234.917 58.7435 235.064C58.9385 235.211 59.1905 235.284 59.4995 235.284ZM64.7546 236.135C64.2686 236.135 63.8471 236.026 63.4901 235.806C63.1331 235.587 62.8571 235.286 62.6621 234.902C62.4701 234.515 62.3741 234.069 62.3741 233.565C62.3741 233.058 62.4731 232.613 62.6711 232.229C62.8691 231.842 63.1466 231.542 63.5036 231.329C63.8606 231.113 64.2776 231.005 64.7546 231.005C65.2406 231.005 65.6621 231.114 66.0191 231.333C66.3761 231.552 66.6521 231.854 66.8471 232.238C67.0421 232.622 67.1396 233.064 67.1396 233.565C67.1396 234.072 67.0406 234.519 66.8426 234.906C66.6476 235.29 66.3716 235.592 66.0146 235.811C65.6576 236.027 65.2376 236.135 64.7546 236.135ZM64.7546 235.248C65.2196 235.248 65.5661 235.092 65.7941 234.78C66.0251 234.465 66.1406 234.06 66.1406 233.565C66.1406 233.058 66.0236 232.653 65.7896 232.35C65.5586 232.044 65.2136 231.891 64.7546 231.891C64.4396 231.891 64.1801 231.963 63.9761 232.107C63.7721 232.248 63.6206 232.445 63.5216 232.697C63.4226 232.946 63.3731 233.235 63.3731 233.565C63.3731 234.075 63.4901 234.483 63.7241 234.789C63.9581 235.095 64.3016 235.248 64.7546 235.248ZM67.5885 237.08V235.244C67.8555 235.244 68.046 235.155 68.16 234.978C68.277 234.798 68.37 234.494 68.439 234.065C68.481 233.804 68.5155 233.526 68.5425 233.232C68.5725 232.938 68.598 232.62 68.619 232.278C68.64 231.933 68.661 231.554 68.682 231.14H72.165V235.244H72.642V237.08H71.751V236H68.484V237.08H67.5885ZM68.934 235.244H71.22V231.896H69.519C69.507 232.094 69.4935 232.298 69.4785 232.508C69.4665 232.718 69.4515 232.926 69.4335 233.133C69.4185 233.34 69.4005 233.538 69.3795 233.728C69.3585 233.916 69.3345 234.087 69.3075 234.24C69.2715 234.477 69.228 234.675 69.177 234.834C69.129 234.993 69.048 235.13 68.934 235.244ZM72.8183 236L74.6903 233.57L72.9218 231.14H73.9568L75.6488 233.511V231.14H76.4948V233.511L78.1868 231.14H79.2263L77.4578 233.57L79.3298 236H78.2363L76.4948 233.628V236H75.6488V233.628L73.9118 236H72.8183ZM81.8465 236.135C81.3635 236.135 80.939 236.03 80.573 235.82C80.21 235.607 79.9265 235.311 79.7225 234.933C79.5215 234.552 79.421 234.111 79.421 233.61C79.421 233.079 79.52 232.619 79.718 232.229C79.919 231.839 80.198 231.537 80.555 231.324C80.912 231.111 81.3275 231.005 81.8015 231.005C82.2965 231.005 82.718 231.12 83.066 231.352C83.414 231.579 83.6735 231.905 83.8445 232.328C84.0185 232.751 84.0875 233.253 84.0515 233.835H83.111V233.493C83.105 232.929 82.997 232.512 82.787 232.242C82.58 231.972 82.2635 231.837 81.8375 231.837C81.3665 231.837 81.0125 231.986 80.7755 232.283C80.5385 232.58 80.42 233.009 80.42 233.57C80.42 234.104 80.5385 234.518 80.7755 234.812C81.0125 235.103 81.3545 235.248 81.8015 235.248C82.0955 235.248 82.349 235.182 82.562 235.05C82.778 234.915 82.946 234.723 83.066 234.474L83.9885 234.767C83.7995 235.202 83.513 235.539 83.129 235.779C82.745 236.016 82.3175 236.135 81.8465 236.135ZM80.114 233.835V233.102H83.5835V233.835H80.114ZM84.8766 236V231.14H85.8171V233.124H88.1886V231.14H89.1291V236H88.1886V234.011H85.8171V236H84.8766ZM90.2074 236V231.14H91.1479V233.124H93.5194V231.14H94.4599V236H93.5194V234.011H91.1479V236H90.2074ZM98.4991 236V234.312H97.5361C97.4221 234.312 97.2856 234.308 97.1266 234.299C96.9706 234.29 96.8236 234.273 96.6856 234.249C96.3226 234.183 96.0196 234.026 95.7766 233.777C95.5336 233.525 95.4121 233.178 95.4121 232.737C95.4121 232.311 95.5261 231.969 95.7541 231.711C95.9851 231.45 96.2776 231.282 96.6316 231.207C96.7846 231.171 96.9406 231.152 97.0996 231.149C97.2616 231.143 97.3981 231.14 97.5091 231.14H99.4396L99.4441 236H98.4991ZM95.2726 236L96.5011 234.078H97.4956L96.2761 236H95.2726ZM97.4551 233.556H98.4991V231.896H97.4551C97.3891 231.896 97.3081 231.899 97.2121 231.905C97.1161 231.911 97.0231 231.927 96.9331 231.954C96.8401 231.981 96.7501 232.029 96.6631 232.098C96.5791 232.167 96.5101 232.256 96.4561 232.364C96.4021 232.469 96.3751 232.59 96.3751 232.728C96.3751 232.935 96.4336 233.106 96.5506 233.241C96.6676 233.373 96.8071 233.46 96.9691 233.502C97.0561 233.526 97.1431 233.541 97.2301 233.547C97.3171 233.553 97.3921 233.556 97.4551 233.556Z" fill="#292424"/>
<rect x="24.5" y="243.5" width="272" height="38" rx="3.5" fill="#FDFDFD"/>
<rect x="24.5" y="243.5" width="272" height="38" rx="3.5" stroke="#DFE0E7"/>
<path d="M36.4015 268.32V266.224C36.7095 266.224 36.957 266.147 37.144 265.993C37.331 265.836 37.474 265.627 37.573 265.366C37.672 265.106 37.7472 264.815 37.7985 264.492C37.8498 264.166 37.8938 263.836 37.9305 263.502C37.9818 263.014 38.0222 262.543 38.0515 262.088C38.0845 261.634 38.112 261.163 38.134 260.675C38.1597 260.187 38.189 259.654 38.222 259.074L43.106 259.08V266.224H43.6725V268.32H42.8695V267H37.21V268.32H36.4015ZM37.947 266.224H42.2975V259.855L38.9755 259.85C38.9535 260.297 38.9315 260.73 38.9095 261.148C38.8875 261.566 38.8618 261.988 38.8325 262.413C38.8032 262.838 38.7647 263.282 38.717 263.744C38.6767 264.166 38.629 264.534 38.574 264.849C38.519 265.165 38.442 265.434 38.343 265.658C38.2477 265.882 38.1157 266.07 37.947 266.224ZM44.2919 268.32V266.224C44.5999 266.224 44.8474 266.147 45.0344 265.993C45.2214 265.836 45.3644 265.627 45.4634 265.366C45.5624 265.106 45.6375 264.815 45.6889 264.492C45.7402 264.166 45.7842 263.836 45.8209 263.502C45.8722 263.014 45.9125 262.543 45.9419 262.088C45.9749 261.634 46.0024 261.163 46.0244 260.675C46.05 260.187 46.0794 259.654 46.1124 259.074L50.9964 259.08V266.224H51.5629V268.32H50.7599V267H45.1004V268.32H44.2919ZM45.8374 266.224H50.1879V259.855L46.8659 259.85C46.8439 260.297 46.8219 260.73 46.7999 261.148C46.7779 261.566 46.7522 261.988 46.7229 262.413C46.6935 262.838 46.655 263.282 46.6074 263.744C46.567 264.166 46.5194 264.534 46.4644 264.849C46.4094 265.165 46.3324 265.434 46.2334 265.658C46.138 265.882 46.006 266.07 45.8374 266.224ZM52.4407 263.386V262.693H55.7407V263.386H52.4407ZM56.9498 267V259.08H57.6923L60.8053 265.74L63.9018 259.08H64.6553V266.994H63.8853V260.884L61.0638 267H60.5413L57.7253 260.884V267H56.9498ZM65.9789 267V259.08H66.7214L69.8344 265.74L72.9309 259.08H73.6844V266.994H72.9144V260.884L70.0929 267H69.5704L66.7544 260.884V267H65.9789ZM74.8979 263.386V262.693H78.1979V263.386H74.8979ZM79.407 267V259.08H82.465C82.542 259.08 82.6282 259.084 82.7235 259.091C82.8225 259.095 82.9215 259.106 83.0205 259.124C83.4349 259.186 83.785 259.331 84.071 259.558C84.3607 259.782 84.5789 260.064 84.7255 260.405C84.8759 260.746 84.951 261.124 84.951 261.538C84.951 261.949 84.8759 262.325 84.7255 262.666C84.5752 263.007 84.3552 263.291 84.0655 263.518C83.7795 263.742 83.4312 263.885 83.0205 263.947C82.9215 263.962 82.8225 263.973 82.7235 263.98C82.6282 263.988 82.542 263.991 82.465 263.991H80.2155V267H79.407ZM80.2155 263.221H82.443C82.509 263.221 82.586 263.218 82.674 263.21C82.762 263.203 82.8482 263.19 82.9325 263.172C83.2039 263.113 83.4257 263.001 83.598 262.836C83.774 262.671 83.9042 262.475 83.9885 262.248C84.0765 262.021 84.1205 261.784 84.1205 261.538C84.1205 261.293 84.0765 261.056 83.9885 260.829C83.9042 260.598 83.774 260.4 83.598 260.235C83.4257 260.07 83.2039 259.958 82.9325 259.899C82.8482 259.881 82.762 259.87 82.674 259.866C82.586 259.859 82.509 259.855 82.443 259.855H80.2155V263.221ZM85.8257 267V259.08H88.8837C88.9607 259.08 89.0469 259.084 89.1422 259.091C89.2412 259.095 89.3402 259.106 89.4392 259.124C89.8535 259.186 90.2037 259.331 90.4897 259.558C90.7794 259.782 90.9975 260.064 91.1442 260.405C91.2945 260.746 91.3697 261.124 91.3697 261.538C91.3697 261.949 91.2945 262.325 91.1442 262.666C90.9939 263.007 90.7739 263.291 90.4842 263.518C90.1982 263.742 89.8499 263.885 89.4392 263.947C89.3402 263.962 89.2412 263.973 89.1422 263.98C89.0469 263.988 88.9607 263.991 88.8837 263.991H86.6342V267H85.8257ZM86.6342 263.221H88.8617C88.9277 263.221 89.0047 263.218 89.0927 263.21C89.1807 263.203 89.2669 263.19 89.3512 263.172C89.6225 263.113 89.8444 263.001 90.0167 262.836C90.1927 262.671 90.3229 262.475 90.4072 262.248C90.4952 262.021 90.5392 261.784 90.5392 261.538C90.5392 261.293 90.4952 261.056 90.4072 260.829C90.3229 260.598 90.1927 260.4 90.0167 260.235C89.8444 260.07 89.6225 259.958 89.3512 259.899C89.2669 259.881 89.1807 259.87 89.0927 259.866C89.0047 259.859 88.9277 259.855 88.8617 259.855H86.6342V263.221ZM92.2444 267V259.08H95.3024C95.3794 259.08 95.4655 259.084 95.5609 259.091C95.6599 259.095 95.7589 259.106 95.8579 259.124C96.2722 259.186 96.6224 259.331 96.9084 259.558C97.198 259.782 97.4162 260.064 97.5629 260.405C97.7132 260.746 97.7884 261.124 97.7884 261.538C97.7884 261.949 97.7132 262.325 97.5629 262.666C97.4125 263.007 97.1925 263.291 96.9029 263.518C96.6169 263.742 96.2685 263.885 95.8579 263.947C95.7589 263.962 95.6599 263.973 95.5609 263.98C95.4655 263.988 95.3794 263.991 95.3024 263.991H93.0529V267H92.2444ZM93.0529 263.221H95.2804C95.3464 263.221 95.4234 263.218 95.5114 263.21C95.5994 263.203 95.6855 263.19 95.7699 263.172C96.0412 263.113 96.263 263.001 96.4354 262.836C96.6114 262.671 96.7415 262.475 96.8259 262.248C96.9139 262.021 96.9579 261.784 96.9579 261.538C96.9579 261.293 96.9139 261.056 96.8259 260.829C96.7415 260.598 96.6114 260.4 96.4354 260.235C96.263 260.07 96.0412 259.958 95.7699 259.899C95.6855 259.881 95.5994 259.87 95.5114 259.866C95.4234 259.859 95.3464 259.855 95.2804 259.855H93.0529V263.221ZM98.663 267V259.08H101.721C101.798 259.08 101.884 259.084 101.98 259.091C102.079 259.095 102.178 259.106 102.277 259.124C102.691 259.186 103.041 259.331 103.327 259.558C103.617 259.782 103.835 260.064 103.982 260.405C104.132 260.746 104.207 261.124 104.207 261.538C104.207 261.949 104.132 262.325 103.982 262.666C103.831 263.007 103.611 263.291 103.322 263.518C103.036 263.742 102.687 263.885 102.277 263.947C102.178 263.962 102.079 263.973 101.98 263.98C101.884 263.988 101.798 263.991 101.721 263.991H99.4715V267H98.663ZM99.4715 263.221H101.699C101.765 263.221 101.842 263.218 101.93 263.21C102.018 263.203 102.104 263.19 102.189 263.172C102.46 263.113 102.682 263.001 102.854 262.836C103.03 262.671 103.16 262.475 103.245 262.248C103.333 262.021 103.377 261.784 103.377 261.538C103.377 261.293 103.333 261.056 103.245 260.829C103.16 260.598 103.03 260.4 102.854 260.235C102.682 260.07 102.46 259.958 102.189 259.899C102.104 259.881 102.018 259.87 101.93 259.866C101.842 259.859 101.765 259.855 101.699 259.855H99.4715V263.221Z" fill="#E2E3E9"/>
<line x1="37.5" y1="109" x2="37.5" y2="133" stroke="black"/>
</g>
<defs>
<filter id="filter0_dddd_698_38564" x="0.905035" y="0.452518" width="329.249" height="368.533" filterUnits="userSpaceOnUse" color-interpolation-filters="sRGB">
<feFlood flood-opacity="0" result="BackgroundImageFix"/>
<feColorMatrix in="SourceAlpha" type="matrix" values="0 0 0 0 0 0 0 0 0 0 0 0 0 0 0 0 0 0 127 0" result="hardAlpha"/>
<feOffset dy="0.773741"/>
<feGaussianBlur stdDeviation="1.16061"/>
<feColorMatrix type="matrix" values="0 0 0 0 0.1375 0 0 0 0 0.145208 0 0 0 0 0.15 0 0 0 0.05 0"/>
<feBlend mode="normal" in2="BackgroundImageFix" result="effect1_dropShadow_698_38564"/>
<feColorMatrix in="SourceAlpha" type="matrix" values="0 0 0 0 0 0 0 0 0 0 0 0 0 0 0 0 0 0 127 0" result="hardAlpha"/>
<feOffset dx="1.54748" dy="3.86871"/>
<feGaussianBlur stdDeviation="2.32122"/>
<feColorMatrix type="matrix" values="0 0 0 0 0.137255 0 0 0 0 0.145098 0 0 0 0 0.14902 0 0 0 0.04 0"/>
<feBlend mode="normal" in2="effect1_dropShadow_698_38564" result="effect2_dropShadow_698_38564"/>
<feColorMatrix in="SourceAlpha" type="matrix" values="0 0 0 0 0 0 0 0 0 0 0 0 0 0 0 0 0 0 127 0" result="hardAlpha"/>
<feOffset dx="3.09496" dy="9.28489"/>
<feGaussianBlur stdDeviation="3.09496"/>
<feColorMatrix type="matrix" values="0 0 0 0 0.137255 0 0 0 0 0.145098 0 0 0 0 0.14902 0 0 0 0.03 0"/>
<feBlend mode="normal" in2="effect2_dropShadow_698_38564" result="effect3_dropShadow_698_38564"/>
<feColorMatrix in="SourceAlpha" type="matrix" values="0 0 0 0 0 0 0 0 0 0 0 0 0 0 0 0 0 0 127 0" result="hardAlpha"/>
<feOffset dx="6.18993" dy="17.0223"/>
<feGaussianBlur stdDeviation="3.48184"/>
<feColorMatrix type="matrix" values="0 0 0 0 0.137255 0 0 0 0 0.145098 0 0 0 0 0.14902 0 0 0 0.01 0"/>
<feBlend mode="normal" in2="effect3_dropShadow_698_38564" result="effect4_dropShadow_698_38564"/>
<feBlend mode="normal" in="SourceGraphic" in2="effect4_dropShadow_698_38564" result="shape"/>
</filter>
</defs>
</svg>
