<svg width="32" height="32" viewBox="0 0 32 32" fill="none" xmlns="http://www.w3.org/2000/svg">
<g clip-path="url(#clip0_698_39433)">
<path opacity="0.3" d="M3.99984 14C3.2665 14 2.6665 13.4 2.6665 12.6667C2.6665 11.9334 3.2665 11.3334 3.99984 11.3334C4.73317 11.3334 5.33317 11.9334 5.33317 12.6667C5.33317 13.4 4.73317 14 3.99984 14ZM7.99984 28C7.2665 28 6.6665 27.4 6.6665 26.6667C6.6665 25.9334 7.2665 25.3334 7.99984 25.3334C8.73317 25.3334 9.33317 25.9334 9.33317 26.6667C9.33317 27.4 8.73317 28 7.99984 28ZM14.6665 4.00002C14.6665 3.26669 15.2665 2.66669 15.9998 2.66669C16.7332 2.66669 17.3332 3.26669 17.3332 4.00002C17.3332 4.73335 16.7332 5.33335 15.9998 5.33335C15.2665 5.33335 14.6665 4.73335 14.6665 4.00002ZM15.9998 20C14.1598 20 12.6665 18.5067 12.6665 16.6667C12.6665 14.8267 14.1598 13.3334 15.9998 13.3334C17.8398 13.3334 19.3332 14.8267 19.3332 16.6667C19.3332 18.5067 17.8398 20 15.9998 20ZM23.9998 25.3334C24.7332 25.3334 25.3332 25.9334 25.3332 26.6667C25.3332 27.4 24.7332 28 23.9998 28C23.2665 28 22.6665 27.4 22.6665 26.6667C22.6665 25.9334 23.2665 25.3334 23.9998 25.3334ZM27.9998 14C27.2665 14 26.6665 13.4 26.6665 12.6667C26.6665 11.9334 27.2665 11.3334 27.9998 11.3334C28.7332 11.3334 29.3332 11.9334 29.3332 12.6667C29.3332 13.4 28.7332 14 27.9998 14Z" fill="#F04259"/>
<path d="M28 8.66667C25.7867 8.66667 24 10.4533 24 12.6667C24 12.76 24 12.8533 24.0133 12.9467L21.3067 13.8533C20.4533 12.24 18.88 11.0667 17.0133 10.76V7.88C18.72 7.42667 20 5.86667 20 4C20 1.78667 18.2133 0 16 0C13.7867 0 12 1.78667 12 4C12 5.86667 13.28 7.42667 15 7.88V10.76C13.1333 11.0667 11.56 12.24 10.7067 13.8533L7.98667 12.9467C8 12.8533 8 12.76 8 12.6667C8 10.4533 6.21333 8.66667 4 8.66667C1.78667 8.66667 0 10.4533 0 12.6667C0 14.88 1.78667 16.6667 4 16.6667C5.41333 16.6667 6.64 15.9333 7.36 14.84L10.0667 15.7467C9.8 17.4667 10.2933 19.2933 11.52 20.6667L9.64 23.0267C9.13333 22.7867 8.58667 22.6667 8 22.6667C5.78667 22.6667 4 24.4533 4 26.6667C4 28.88 5.78667 30.6667 8 30.6667C10.2133 30.6667 12 28.88 12 26.6667C12 25.76 11.7067 24.9333 11.2 24.2667L13.08 21.9067C14.8933 22.92 17.1067 22.9067 18.9067 21.9067L20.7867 24.2667C20.2933 24.9333 20 25.76 20 26.6667C20 28.88 21.7867 30.6667 24 30.6667C26.2133 30.6667 28 28.88 28 26.6667C28 24.4533 26.2133 22.6667 24 22.6667C23.4133 22.6667 22.8667 22.7867 22.36 23.0133L20.48 20.6533C21.72 19.2667 22.2 17.4533 21.9333 15.7333L24.64 14.8267C25.3467 15.92 26.5867 16.6533 28 16.6533C30.2133 16.6533 32 14.8667 32 12.6533C32 10.44 30.2133 8.66667 28 8.66667ZM4 14C3.26667 14 2.66667 13.4 2.66667 12.6667C2.66667 11.9333 3.26667 11.3333 4 11.3333C4.73333 11.3333 5.33333 11.9333 5.33333 12.6667C5.33333 13.4 4.73333 14 4 14ZM8 28C7.26667 28 6.66667 27.4 6.66667 26.6667C6.66667 25.9333 7.26667 25.3333 8 25.3333C8.73333 25.3333 9.33333 25.9333 9.33333 26.6667C9.33333 27.4 8.73333 28 8 28ZM14.6667 4C14.6667 3.26667 15.2667 2.66667 16 2.66667C16.7333 2.66667 17.3333 3.26667 17.3333 4C17.3333 4.73333 16.7333 5.33333 16 5.33333C15.2667 5.33333 14.6667 4.73333 14.6667 4ZM16 20C14.16 20 12.6667 18.5067 12.6667 16.6667C12.6667 14.8267 14.16 13.3333 16 13.3333C17.84 13.3333 19.3333 14.8267 19.3333 16.6667C19.3333 18.5067 17.84 20 16 20ZM24 25.3333C24.7333 25.3333 25.3333 25.9333 25.3333 26.6667C25.3333 27.4 24.7333 28 24 28C23.2667 28 22.6667 27.4 22.6667 26.6667C22.6667 25.9333 23.2667 25.3333 24 25.3333ZM28 14C27.2667 14 26.6667 13.4 26.6667 12.6667C26.6667 11.9333 27.2667 11.3333 28 11.3333C28.7333 11.3333 29.3333 11.9333 29.3333 12.6667C29.3333 13.4 28.7333 14 28 14Z" fill="#F04259"/>
</g>
<defs>
<clipPath id="clip0_698_39433">
<rect width="32" height="32" fill="white"/>
</clipPath>
</defs>
</svg>
