<svg width="32" height="32" viewBox="0 0 32 32" fill="none" xmlns="http://www.w3.org/2000/svg">
<path d="M26.1996 12.0533L19.7463 11.4933L17.2263 5.56C16.7729 4.48 15.2263 4.48 14.7729 5.56L12.2529 11.5067L5.81294 12.0533C4.63961 12.1467 4.15961 13.6133 5.05294 14.3867L9.94628 18.6267L8.47961 24.92C8.21294 26.0667 9.45294 26.9733 10.4663 26.36L15.9996 23.0267L21.5329 26.3733C22.5463 26.9867 23.7863 26.08 23.5196 24.9333L22.0529 18.6267L26.9463 14.3867C27.8396 13.6133 27.3729 12.1467 26.1996 12.0533ZM15.9996 20.5333V8.13333L18.2796 13.52L24.1196 14.0267L19.6929 17.8667L21.0263 23.5733L15.9996 20.5333Z" fill="#F04259"/>
</svg>
